<?xml version="1.0" encoding="UTF-8"?>
<svg width="16px" height="16px" viewBox="0 0 16 16" version="1.1" xmlns="http://www.w3.org/2000/svg" xmlns:xlink="http://www.w3.org/1999/xlink">
    <!-- Generator: Sketch 49 (51002) - http://www.bohemiancoding.com/sketch -->
    <title>Input/search-grey</title>
    <desc>Created with Sketch.</desc>
    <defs></defs>
    <g id="Workbench" stroke="none" stroke-width="1" fill="none" fill-rule="evenodd">
        <g id="工作台-以车识件-选择车型操作" transform="translate(-381.000000, -354.000000)" fill="#C7C7C7" fill-rule="nonzero">
            <g id="car-select" transform="translate(77.000000, 338.000000)">
                <g id="Input-Normal" transform="translate(8.000000, 8.000000)">
                    <g id="Input/search-grey" transform="translate(296.000000, 8.000000)">
                        <path d="M7,14 C3.14,14 0,10.86 0,7 C0,3.14 3.14,0 7,0 C10.86,0 14,3.14 14,7 C14,10.86 10.86,14 7,14 Z M7,2 C4.243,2 2,4.243 2,7 C2,9.757 4.243,12 7,12 C9.757,12 12,9.757 12,7 C12,4.243 9.757,2 7,2 Z" id="Shape"></path>
                        <path d="M15.707,14.293 L13.314,11.9 C12.903,12.429 12.429,12.903 11.9,13.314 L14.293,15.707 C14.488,15.902 14.744,16 15,16 C15.256,16 15.512,15.902 15.707,15.707 C16.098,15.316 16.098,14.684 15.707,14.293 Z" id="Shape"></path>
                    </g>
                </g>
            </g>
        </g>
    </g>
</svg>