<?xml version="1.0" encoding="UTF-8"?>
<svg width="16px" height="16px" viewBox="0 0 16 16" version="1.1" xmlns="http://www.w3.org/2000/svg" xmlns:xlink="http://www.w3.org/1999/xlink">
    <!-- Generator: Sketch 48.1 (47250) - http://www.bohemiancoding.com/sketch -->
    <title>Items/beauty-black</title>
    <desc>Created with Sketch.</desc>
    <defs></defs>
    <g id="Items/beauty-black" stroke="none" stroke-width="1" fill="none" fill-rule="evenodd">
        <g fill="#353535" fill-rule="nonzero" id="Shape">
            <path d="M1.27362128,11.5508937 C1.27362128,11.3765752 1.4168826,11.2352541 1.5938863,11.2352541 C1.63883647,11.2352541 1.6856513,11.2277112 1.73621529,11.2352541 C2.78316154,11.3332294 3.6568334,11.9758331 4.12037958,12.855863 C4.15971594,12.9491419 4.15408229,13.0377039 4.15408229,13.1300476 C4.15408229,13.2930417 4.02766241,13.4296664 3.86565532,13.4456873 L1.91317932,13.4456873 C1.56014392,13.4456873 1.27360144,13.1630246 1.27360144,12.8144079 L1.27360144,11.5509141 L1.27362128,11.5508937 Z M11.861926,12.8521017 C12.3263847,11.9720922 13.2000962,11.3332701 14.2479748,11.2352744 C14.3116509,11.2286871 14.3491226,11.2352744 14.3940529,11.2352744 C14.5710566,11.2352744 14.7143179,11.3765956 14.7143179,11.5509141 L14.7143179,12.8144079 C14.7143179,13.1630246 14.4277556,13.4456873 14.0737879,13.4456873 L12.1241287,13.4456873 C11.9621415,13.430622 11.8338173,13.2939973 11.8338173,13.1300476 C11.8338173,13.0377039 11.823522,12.9368822 11.861926,12.8521017 Z M0.95992224,16 L2.24003015,16 C2.65767399,16 3.00884473,15.7361842 3.14087842,15.3687207 C3.21205284,15.1227962 3.3131808,14.9569761 3.48548319,14.8429799 C4.5979702,14.9720617 6.20584144,15.0531013 8.00003967,15.0531013 C9.79425774,15.0531013 11.4021091,14.9720821 12.5145962,14.8429799 C12.6868985,14.9569761 12.799274,15.1020992 12.8592009,15.3687207 C12.9912346,15.7361842 13.3423855,16 13.7600492,16 L15.0401571,16 C15.5701764,16 16,15.5760161 16,15.053081 L16,10.9478746 C16,9.91519916 15.496205,9.00127747 14.7198921,8.42462769 L14.7198921,8.42084611 C14.7198921,5.97957406 12.7140353,4 10.2399706,4 L9.28012775,4 C9.27824325,4.00093523 9.2763786,4.00282602 9.27356177,4.00469647 C9.27167728,4.00469647 9.26981262,4.00376125 9.26792812,4.00376125 C8.91489272,4.00376125 8.62928258,4.28642394 8.62928258,4.63410535 C8.62928258,4.98272199 8.91489272,5.26444945 9.26792812,5.26444945 C9.27356177,5.26444945 9.27822342,5.26351422 9.28383723,5.26255866 L10.1865502,5.26255866 C11.8065814,5.26255866 13.1204118,6.55904986 13.1204118,8.15796554 C13.1204118,8.26441896 13.124161,8.34545855 13.124161,8.34545855 C13.124161,8.34545855 13.1204118,8.40199922 13.1204118,8.42084611 C13.1204118,8.5951646 10.8280125,8.73648578 7.99998016,8.73648578 C5.1719478,8.73648578 2.84771046,8.5951646 2.84771046,8.42084611 C2.78123737,8.23804957 2.60798282,8.10520644 2.40009323,8.10520644 L1.75956319,8.10520644 C1.55167361,8.10520644 1.39153118,8.23239754 1.28010791,8.42084611 C0.503795026,8.99747556 0,9.91519916 0,10.9478339 L0,15.0530403 C0,15.5759755 0.429823626,15.9999593 0.959842893,15.9999593 L0.95992224,16 Z"></path>
            <path d="M3.73348214,4.13352161 L2.80040689,6 L1.86733164,4.13352161 L0,3.2002947 L1.86733164,2.26706778 L2.80040689,0.399459725 L3.73348214,2.26706778 L5.59968085,3.2002947 L3.73348214,4.13352161 Z M8.79948126,2.40022102 L8.19980041,3.59977898 L7.59896253,2.40022102 L6.39960082,1.8004666 L7.59896253,1.19955796 L8.19980041,0 L8.79948126,1.19955796 L10,1.8004666 L8.79948126,2.40022102 Z"></path>
        </g>
    </g>
</svg>