<?xml version="1.0" encoding="UTF-8"?>
<svg width="16px" height="16px" viewBox="0 0 16 16" version="1.1" xmlns="http://www.w3.org/2000/svg" xmlns:xlink="http://www.w3.org/1999/xlink">
    <!-- Generator: Sketch 48.1 (47250) - http://www.bohemiancoding.com/sketch -->
    <title>Items/maintenance-grey</title>
    <desc>Created with Sketch.</desc>
    <defs></defs>
    <g id="Items/maintenance-grey" stroke="none" stroke-width="1" fill="none" fill-rule="evenodd">
        <g fill="#C7C7C7" fill-rule="nonzero" id="Shape">
            <path d="M3.45,3.721 L4.88,2.291 C3.77859231,1.41802924 2.40486715,0.960946975 1,1 L0,1 L0,3 L1,3 C1.87290749,2.97096163 2.73196571,3.2237702 3.45,3.721 Z"></path>
            <path d="M14,2 L8,2 L3,7 L3,15 C3,15.5522847 3.44771525,16 4,16 L15,16 C15.5522847,16 16,15.5522847 16,15 L16,4 C16,2.8954305 15.1045695,2 14,2 Z M13,6 L9,6 C8.44771525,6 8,5.55228475 8,5 C8,4.44771525 8.44771525,4 9,4 L13,4 C13.5522847,4 14,4.44771525 14,5 C14,5.55228475 13.5522847,6 13,6 Z"></path>
        </g>
    </g>
</svg>