<?xml version="1.0" encoding="UTF-8"?>
<svg width="24px" height="24px" viewBox="0 0 24 24" version="1.1" xmlns="http://www.w3.org/2000/svg" xmlns:xlink="http://www.w3.org/1999/xlink">
    <!-- Generator: Sketch 49.3 (51167) - http://www.bohemiancoding.com/sketch -->
    <title>Items/order</title>
    <desc>Created with Sketch.</desc>
    <defs></defs>
    <g id="快捷洗车" stroke="none" stroke-width="1" fill="none" fill-rule="evenodd" opacity="0.400000006">
        <g id="概览" transform="translate(-745.000000, -142.000000)" fill="#FFFFFF" fill-rule="nonzero">
            <g id="card" transform="translate(598.000000, 128.000000)">
                <g id="Items/washing-grey" transform="translate(147.000000, 14.000000)">
                    <g id="Items/order">
                        <path d="M21,0 L3,0 C2.1,0 1.5,0.6 1.5,1.5 L1.5,22.5 C1.5,23.4 2.1,24 3,24 L21,24 C21.9,24 22.5,23.4 22.5,22.5 L22.5,1.5 C22.5,0.6 21.9,0 21,0 Z M12,19.5 L6,19.5 L6,16.5 L12,16.5 L12,19.5 Z M18,13.5 L6,13.5 L6,10.5 L18,10.5 L18,13.5 Z M18,7.5 L6,7.5 L6,4.5 L18,4.5 L18,7.5 Z" id="Shape"></path>
                    </g>
                </g>
            </g>
        </g>
    </g>
</svg>