<?xml version="1.0" encoding="UTF-8"?>
<svg width="16px" height="16px" viewBox="0 0 16 16" version="1.1" xmlns="http://www.w3.org/2000/svg" xmlns:xlink="http://www.w3.org/1999/xlink">
    <!-- Generator: Sketch 48.1 (47250) - http://www.bohemiancoding.com/sketch -->
    <title>Items/repair-black</title>
    <desc>Created with Sketch.</desc>
    <defs></defs>
    <g id="Items/repair-black" stroke="none" stroke-width="1" fill="none" fill-rule="evenodd">
        <g fill="#353535" fill-rule="nonzero" id="Shape">
            <path d="M13.204837,5.17795725 L10.808983,2.78813083 L13.204837,0.398304404 C12.7057007,0.099576101 12.1067372,0 11.5077737,0 C9.01209247,0 7.01554746,1.99152202 7.01554746,4.48092455 C7.01554746,4.97880505 7.11537471,5.37710946 7.21520196,5.87498996 L0.626603425,10.7542189 C-0.172014579,11.3516755 -0.172014579,12.4470126 0.426948924,13.1440453 L2.72297569,15.5338718 C3.42176644,16.2309045 4.51986619,16.1313284 5.1188297,15.3347196 L10.010365,8.76269689 C10.5095012,8.86227299 11.0086375,8.96184909 11.5077737,8.96184909 C14.003455,8.96184909 16,6.97032707 16,4.48092455 C16,3.88346794 15.9001727,3.28601133 15.7005182,2.78813083 L13.204837,5.17795725 Z"></path>
        </g>
    </g>
</svg>