<?xml version="1.0" encoding="UTF-8"?>
<svg width="24px" height="24px" viewBox="0 0 24 24" version="1.1" xmlns="http://www.w3.org/2000/svg" xmlns:xlink="http://www.w3.org/1999/xlink">
    <!-- Generator: Sketch 49.3 (51167) - http://www.bohemiancoding.com/sketch -->
    <title>Items/washing-white</title>
    <desc>Created with Sketch.</desc>
    <defs></defs>
    <g id="快捷洗车" stroke="none" stroke-width="1" fill="none" fill-rule="evenodd" opacity="0.400000006">
        <g id="概览" transform="translate(-339.000000, -142.000000)" fill="#FFFFFF" fill-rule="nonzero">
            <g id="card" transform="translate(192.000000, 128.000000)">
                <g id="Items/washing-grey" transform="translate(147.000000, 14.000000)">
                    <g id="Items/washing-white">
                        <path d="M13.724921,8.12639352 C12.2163175,7.29897084 11.6965937,5.4716289 12.5632682,4.04537655 C13.4299426,2.62052664 17.7534824,1.5 17.7534824,1.5 C17.7534824,1.5 18.891256,5.61747966 18.0245816,7.04373198 C17.1579071,8.4699843 15.2335245,8.9538162 13.724921,8.12639352 Z M19.9110383,9.25533465 C19.1033594,8.79955098 18.8547349,7.74213282 19.3533887,6.89647881 C19.8520426,6.04942236 22.1191619,5.509494 22.1191619,5.509494 C22.1191619,5.509494 22.7765422,7.70286531 22.2764837,8.54992173 C21.7778298,9.39557583 20.7187171,9.71252076 19.9110383,9.25533465 Z M22.0896641,15.6026483 C22.0896641,15.3432023 21.8747513,15.1328406 21.6106754,15.1328406 C21.5418471,15.1328406 21.4716142,15.1216213 21.3957626,15.1328406 C19.8253541,15.2800937 18.5148075,16.2351359 17.8195014,17.544988 C17.7619103,17.6838268 17.7703383,17.8170559 17.7703383,17.9530897 C17.7703383,18.1971093 17.9599672,18.3990565 18.2015685,18.4228975 L21.1302821,18.4228975 C21.6598385,18.4228975 22.0896641,18.0021742 22.0896641,17.4832819 L22.0896641,15.6026483 Z M6.2071872,17.5393784 C5.51188107,16.2309286 4.19992978,15.2786913 2.62811659,15.1328406 C2.53400445,15.1230237 2.47641343,15.1328406 2.40898981,15.1328406 C2.14491397,15.1328406 1.93000117,15.3432023 1.93000117,15.6026483 L1.93000117,17.4832819 C1.93000117,18.0021742 2.35982674,18.4228975 2.88938311,18.4228975 L5.81388272,18.4228975 C6.05829333,18.400459 6.24932695,18.1985117 6.24932695,17.9530897 C6.24932695,17.8156534 6.26477816,17.6669978 6.2071872,17.5393784 Z M22.5602247,22.2248346 L20.6400562,22.2248346 C20.014983,22.2248346 19.4868313,21.8321595 19.2887745,21.2852191 C19.1820204,20.9191897 19.0303172,20.6723653 18.77186,20.5026735 C17.1031254,20.6948039 14.6913262,20.8154112 12,20.8154112 C9.3086738,20.8154112 6.89687464,20.6948039 5.22813999,20.5026735 C4.96968278,20.6723653 4.80112374,20.8883366 4.71122557,21.2852191 C4.51316869,21.8321595 3.98642163,22.2248346 3.35994381,22.2248346 L1.43977524,22.2248346 C0.644738371,22.2248346 0,21.5937496 0,20.8154112 L0,19.4059879 L0,18.9347777 L0,14.7051051 C0,13.1680623 0.75570643,11.8077233 1.92016857,10.95085 L1.92016857,10.9438379 C1.92016857,7.31019015 4.92894769,4.36372395 8.64005619,4.36372395 L10.0798315,4.36372395 C10.0840454,4.36512636 10.0868547,4.36793118 10.0896641,4.370736 C10.0924733,4.370736 10.0952827,4.36933359 10.098092,4.36933359 C10.6276484,4.36933359 11.0560693,4.79005698 11.0560693,5.30754678 C11.0560693,5.82643896 10.6276484,6.24575994 10.098092,6.24575994 C10.0896641,6.24575994 10.0826407,6.24435753 10.0742128,6.24435753 L8.72012172,6.24435753 C6.29006202,6.24435753 4.31932575,8.17267314 4.31932575,10.5525651 C4.31932575,10.7124401 4.31370712,10.8330474 4.31370712,10.8330474 C4.31370712,10.8330474 4.31932575,10.9157897 4.31932575,10.9438379 C4.31932575,11.203284 7.75793047,11.4150481 12,11.4150481 C16.2420695,11.4150481 19.7284326,11.203284 19.7284326,10.9438379 C19.8281634,10.6717701 20.0880253,10.4740301 20.3998595,10.4740301 L21.3606462,10.4740301 C21.6724804,10.4740301 21.912677,10.6633556 22.0798315,10.9438379 C23.2442936,11.8021136 24,13.1680623 24,14.7051051 L24,18.9347777 L24,19.4059879 L24,20.8154112 C24,21.5937496 23.3552616,22.2248346 22.5602247,22.2248346 Z"></path>
                    </g>
                </g>
            </g>
        </g>
    </g>
</svg>