<?xml version="1.0" encoding="UTF-8"?>
<svg width="16px" height="16px" viewBox="0 0 16 16" version="1.1" xmlns="http://www.w3.org/2000/svg" xmlns:xlink="http://www.w3.org/1999/xlink">
    <!-- Generator: Sketch 48.1 (47250) - http://www.bohemiancoding.com/sketch -->
    <title>Items/washing-black</title>
    <desc>Created with Sketch.</desc>
    <defs></defs>
    <g id="Items/washing-black" stroke="none" stroke-width="1" fill="none" fill-rule="evenodd">
        <g fill="#353535" fill-rule="nonzero">
            <path d="M9.14994732,5.41759568 C8.14421166,4.86598056 7.79772915,3.6477526 8.37551212,2.6969177 C8.95329509,1.74701776 11.8356549,1 11.8356549,1 C11.8356549,1 12.5941707,3.74498644 12.0163877,4.69582132 C11.4386047,5.6466562 10.155683,5.9692108 9.14994732,5.41759568 Z M13.2740255,6.1702231 C12.735573,5.86636732 12.5698233,5.16142188 12.9022592,4.59765254 C13.2346951,4.03294824 14.7461079,3.672996 14.7461079,3.672996 C14.7461079,3.672996 15.1843615,5.13524354 14.8509891,5.69994782 C14.5185532,6.26371722 13.8124781,6.47501384 13.2740255,6.1702231 Z M14.7264427,10.4017656 C14.7264427,10.2288015 14.5831675,10.0885604 14.4071169,10.0885604 C14.3612314,10.0885604 14.3144095,10.0810808 14.2638417,10.0885604 C13.2169027,10.1867292 12.343205,10.8234239 11.8796676,11.6966587 C11.8412736,11.7892179 11.8468922,11.8780372 11.8468922,11.9687265 C11.8468922,12.1314062 11.9733115,12.2660377 12.134379,12.2819317 L14.0868547,12.2819317 C14.4398923,12.2819317 14.7264427,12.0014494 14.7264427,11.6555213 L14.7264427,10.4017656 Z M4.1381248,11.6929189 C3.67458738,10.8206191 2.79995319,10.1857942 1.75207772,10.0885604 C1.6893363,10.0820158 1.65094229,10.0885604 1.60599321,10.0885604 C1.42994265,10.0885604 1.28666745,10.2288015 1.28666745,10.4017656 L1.28666745,11.6555213 C1.28666745,12.0014494 1.57321783,12.2819317 1.92625541,12.2819317 L3.87592181,12.2819317 C4.03886222,12.2669726 4.16621797,12.1323411 4.16621797,11.9687265 C4.16621797,11.8771023 4.17651877,11.7779985 4.1381248,11.6929189 Z M15.0401498,14.8165564 L13.7600375,14.8165564 C13.343322,14.8165564 12.9912209,14.554773 12.859183,14.190146 C12.7880136,13.9461265 12.6868781,13.7815769 12.5145733,13.668449 C11.4020836,13.7965359 9.79421747,13.8769408 8,13.8769408 C6.20578253,13.8769408 4.59791643,13.7965359 3.48542666,13.668449 C3.31312185,13.7815769 3.20074916,13.9255578 3.14081705,14.190146 C3.00877913,14.554773 2.65761442,14.8165564 2.23996254,14.8165564 L0.95985016,14.8165564 C0.429825581,14.8165564 0,14.395833 0,13.8769408 L0,12.9373253 L0,12.6231851 L0,9.8034034 C0,8.7787082 0.503804287,7.87181554 1.28011238,7.30056666 L1.28011238,7.29589192 C1.28011238,4.8734601 3.28596512,2.9091493 5.76003746,2.9091493 L6.71988764,2.9091493 C6.72269694,2.91008424 6.72456981,2.91195412 6.72644271,2.913824 C6.72831556,2.913824 6.73018848,2.91288906 6.73206134,2.91288906 C7.08509892,2.91288906 7.37071286,3.19337132 7.37071286,3.53836452 C7.37071286,3.88429264 7.08509892,4.16383996 6.73206134,4.16383996 C6.72644271,4.16383996 6.7217605,4.16290502 6.71614187,4.16290502 L5.81341448,4.16290502 C4.19337468,4.16290502 2.8795505,5.44844876 2.8795505,7.0350434 C2.8795505,7.1416267 2.87580475,7.22203158 2.87580475,7.22203158 C2.87580475,7.22203158 2.8795505,7.27719312 2.8795505,7.29589192 C2.8795505,7.46885602 5.17195365,7.61003206 8,7.61003206 C10.8280464,7.61003206 13.1522884,7.46885602 13.1522884,7.29589192 C13.2187756,7.11451338 13.3920169,6.98268674 13.5999063,6.98268674 L14.2404308,6.98268674 C14.4483203,6.98268674 14.6084514,7.10890376 14.7198876,7.29589192 C15.4961957,7.86807576 16,8.7787082 16,9.8034034 L16,12.6231851 L16,12.9373253 L16,13.8769408 C16,14.395833 15.5701744,14.8165564 15.0401498,14.8165564 Z"></path>
        </g>
    </g>
</svg>