<?xml version="1.0" encoding="UTF-8"?>
<svg width="16px" height="16px" viewBox="0 0 16 16" version="1.1" xmlns="http://www.w3.org/2000/svg" xmlns:xlink="http://www.w3.org/1999/xlink">
    <!-- Generator: Sketch 49.3 (51167) - http://www.bohemiancoding.com/sketch -->
    <title>icons/chart</title>
    <desc>Created with Sketch.</desc>
    <defs></defs>
    <g id="快捷洗车" stroke="none" stroke-width="1" fill="none" fill-rule="evenodd">
        <g id="概览" transform="translate(-192.000000, -84.000000)">
            <rect id="Rectangle-2" fill="#F0F1F2" x="0" y="0" width="1440" height="900"></rect>
            <g id="icons/chart" transform="translate(192.000000, 83.000000)">
                <g>
                    <rect id="Rectangle-path" x="0" y="0" width="16" height="16"></rect>
                    <path d="M15,17 L1,17 C0.4,17 0,16.6 0,16 L0,2 C0,1.4 0.4,1 1,1 L15,1 C15.6,1 16,1.4 16,2 L16,16 C16,16.6 15.6,17 15,17 Z M2,15 L14,15 L14,3 L2,3 L2,15 Z" id="Shape" fill="#B2B2B2" fill-rule="nonzero"></path>
                    <path d="M3.4,11.8 C3,11.5 2.9,10.8 3.2,10.4 L6.2,6.4 C6.6,5.9 7.3,5.9 7.7,6.3 L9.8,8.4 L11.1,6.4 C11.4,5.9 12,5.8 12.5,6.1 C13,6.4 13.1,7 12.8,7.5 L10.8,10.5 C10.5,11 9.7,11.1 9.3,10.7 L7.1,8.5 L4.8,11.6 C4.5,12 3.8,12.1 3.4,11.8 Z" id="Shape" fill="#B2B2B2" fill-rule="nonzero"></path>
                </g>
            </g>
            <g id="icons/chart" transform="translate(192.000000, 83.000000)">
                <rect id="Rectangle-path" x="0" y="0" width="16" height="16"></rect>
                <path d="M15,17 L1,17 C0.4,17 0,16.6 0,16 L0,2 C0,1.4 0.4,1 1,1 L15,1 C15.6,1 16,1.4 16,2 L16,16 C16,16.6 15.6,17 15,17 Z M2,15 L14,15 L14,3 L2,3 L2,15 Z" id="Shape" fill="#B2B2B2" fill-rule="nonzero"></path>
                <path d="M3.4,11.8 C3,11.5 2.9,10.8 3.2,10.4 L6.2,6.4 C6.6,5.9 7.3,5.9 7.7,6.3 L9.8,8.4 L11.1,6.4 C11.4,5.9 12,5.8 12.5,6.1 C13,6.4 13.1,7 12.8,7.5 L10.8,10.5 C10.5,11 9.7,11.1 9.3,10.7 L7.1,8.5 L4.8,11.6 C4.5,12 3.8,12.1 3.4,11.8 Z" id="Shape" fill="#B2B2B2" fill-rule="nonzero"></path>
            </g>
        </g>
    </g>
</svg>