<?xml version="1.0" encoding="UTF-8"?>
<svg width="16px" height="16px" viewBox="0 0 16 16" version="1.1" xmlns="http://www.w3.org/2000/svg" xmlns:xlink="http://www.w3.org/1999/xlink">
    <!-- Generator: Sketch 50 (54983) - http://www.bohemiancoding.com/sketch -->
    <title>icons/gift</title>
    <desc>Created with Sketch.</desc>
    <defs></defs>
    <g id="快捷洗车" stroke="none" stroke-width="1" fill="none" fill-rule="evenodd">
        <g id="营销工具" transform="translate(-212.000000, -890.000000)" fill="#FFFFFF" fill-rule="nonzero">
            <g id="Content" transform="translate(192.000000, 870.000000)">
                <g id="icons/gift" transform="translate(20.000000, 20.000000)">
                    <g id="Shape">
                        <path d="M13,9 L3,9 C2.4,9 2,9.4 2,10 L2,15 C2,15.6 2.4,16 3,16 L13,16 C13.6,16 14,15.6 14,15 L14,10 C14,9.4 13.6,9 13,9 Z"></path>
                        <path d="M13.8,4 C13.9,3.7 14,3.4 14,3 C14,1.3 12.7,0 11,0 C9.6,0 8.6,0.8 8,1.7 C7.4,0.8 6.4,0 5,0 C3.3,0 2,1.3 2,3 C2,3.4 2.1,3.7 2.2,4 L0,4 L0,8 L16,8 L16,4 L13.8,4 Z M11,2 C11.6,2 12,2.4 12,3 C12,3.6 11.6,4 11,4 L9.2,4 C9.4,3.1 9.9,2 11,2 Z M4,3 C4,2.4 4.4,2 5,2 C6.1,2 6.6,3.1 6.8,4 L5,4 C4.4,4 4,3.6 4,3 Z"></path>
                    </g>
                </g>
            </g>
        </g>
    </g>
</svg>