<?xml version="1.0" encoding="UTF-8"?>
<svg width="16px" height="16px" viewBox="0 0 16 16" version="1.1" xmlns="http://www.w3.org/2000/svg" xmlns:xlink="http://www.w3.org/1999/xlink">
    <!-- Generator: Sketch 50 (54983) - http://www.bohemiancoding.com/sketch -->
    <title>icons/invite</title>
    <desc>Created with Sketch.</desc>
    <defs></defs>
    <g id="快捷洗车" stroke="none" stroke-width="1" fill="none" fill-rule="evenodd">
        <g id="营销工具" transform="translate(-212.000000, -495.000000)" fill="#FFFFFF" fill-rule="nonzero">
            <g id="Group" transform="translate(192.000000, 475.000000)">
                <g id="Content">
                    <g id="icons/gift" transform="translate(20.000000, 20.000000)">
                        <g id="icons/invite">
                            <path d="M7,9 C4.8,9 3,7.2 3,5 L3,4 C3,1.8 4.8,0 7,0 C9.2,0 11,1.8 11,4 L11,5 C11,7.2 9.2,9 7,9 Z" id="Shape"></path>
                            <path d="M5,11 C2.2,11 0,13.2 0,16 L8,16 L8,11 L5,11 Z" id="Shape"></path>
                            <polygon id="Shape" points="14 10 12 10 12 12 10 12 10 14 12 14 12 16 14 16 14 14 16 14 16 12 14 12"></polygon>
                        </g>
                    </g>
                </g>
            </g>
        </g>
    </g>
</svg>