<?xml version="1.0" encoding="UTF-8"?>
<svg width="16px" height="16px" viewBox="0 0 16 16" version="1.1" xmlns="http://www.w3.org/2000/svg" xmlns:xlink="http://www.w3.org/1999/xlink">
    <!-- Generator: Sketch 50.2 (55047) - http://www.bohemiancoding.com/sketch -->
    <title>icons/open-redpack</title>
    <desc>Created with Sketch.</desc>
    <defs></defs>
    <g id="营销助手" stroke="none" stroke-width="1" fill="none" fill-rule="evenodd">
        <g id="营销助手-常用工具" transform="translate(-212.000000, -1285.000000)" fill="#FFFFFF" fill-rule="nonzero">
            <g id="分享有礼-随机红包" transform="translate(192.000000, 1265.000000)">
                <g id="icons/gift" transform="translate(20.000000, 20.000000)">
                    <g id="icons/open-redpack">
                        <path d="M8,11 C7.8,11 7.7,11 7.5,10.9 L0,6.7 L0,15 C0,15.6 0.4,16 1,16 L15,16 C15.6,16 16,15.6 16,15 L16,6.7 L8.5,10.9 C8.3,11 8.2,11 8,11 Z" id="Shape"></path>
                        <path d="M8,8.9 L14,5.5 L14,1 C14,0.4 13.6,0 13,0 L3,0 C2.4,0 2,0.4 2,1 L2,5.5 L8,8.9 Z" id="Shape"></path>
                    </g>
                </g>
            </g>
        </g>
    </g>
</svg>