<?xml version="1.0" encoding="UTF-8"?>
<svg width="16px" height="16px" viewBox="0 0 16 16" version="1.1" xmlns="http://www.w3.org/2000/svg" xmlns:xlink="http://www.w3.org/1999/xlink">
    <!-- Generator: Sketch 49.1 (51147) - http://www.bohemiancoding.com/sketch -->
    <title>icons/full-inspection</title>
    <desc>Created with Sketch.</desc>
    <defs>
        <rect id="path-1" x="0" y="0" width="16" height="16"></rect>
    </defs>
    <g id="Symbols" stroke="none" stroke-width="1" fill="none" fill-rule="evenodd">
        <g id="icons/full-inspection">
            <g>
                <mask id="mask-2" fill="white">
                    <use xlink:href="#path-1"></use>
                </mask>
                <g id="nc-rect"></g>
                <path d="M8,0 C3.589,0 0,3.589 0,8 C0,12.411 3.589,16 8,16 C12.411,16 16,12.411 16,8 C16,3.589 12.411,0 8,0 Z M13.91,9 L8.677,9 L6.929,4.628 L5.071,5.372 L6.523,9 L2.09,9 C2.035,8.674 2,8.341 2,8 C2,4.691 4.691,2 8,2 C11.309,2 14,4.691 14,8 C14,8.341 13.965,8.674 13.91,9 Z" id="Shape" fill="#FFC723" fill-rule="nonzero" mask="url(#mask-2)"></path>
            </g>
        </g>
    </g>
</svg>