<?xml version="1.0" encoding="UTF-8"?>
<svg width="16px" height="16px" viewBox="0 0 16 16" version="1.1" xmlns="http://www.w3.org/2000/svg" xmlns:xlink="http://www.w3.org/1999/xlink">
    <!-- Generator: Sketch 50.2 (55047) - http://www.bohemiancoding.com/sketch -->
    <title>icons/info-yellow</title>
    <desc>Created with Sketch.</desc>
    <defs></defs>
    <g id="工作台" stroke="none" stroke-width="1" fill="none" fill-rule="evenodd">
        <g id="预约核销-查询弹窗-服务核销" transform="translate(-761.000000, -563.000000)">
            <g id="Modal" transform="translate(720.000000, 196.000000)">
                <g id="icons/info-yellow" transform="translate(41.000000, 367.000000)">
                    <rect id="Rectangle-path" x="0" y="0" width="16" height="16"></rect>
                    <path d="M8,0 C3.6,0 0,3.6 0,8 C0,12.4 3.6,16 8,16 C12.4,16 16,12.4 16,8 C16,3.6 12.4,0 8,0 Z M9,12 L7,12 L7,7 L9,7 L9,12 Z M8,6 C7.4,6 7,5.6 7,5 C7,4.4 7.4,4 8,4 C8.6,4 9,4.4 9,5 C9,5.6 8.6,6 8,6 Z" id="Shape" fill="#FFBB29" fill-rule="nonzero"></path>
                </g>
            </g>
        </g>
    </g>
</svg>