<?xml version="1.0" encoding="UTF-8"?>
<svg width="16px" height="16px" viewBox="0 0 16 16" version="1.1" xmlns="http://www.w3.org/2000/svg" xmlns:xlink="http://www.w3.org/1999/xlink">
    <!-- Generator: Sketch 50.2 (55047) - http://www.bohemiancoding.com/sketch -->
    <title>icons/pintuan</title>
    <desc>Created with Sketch.</desc>
    <defs>
        <linearGradient x1="104.759313%" y1="100%" x2="7.18421521%" y2="0%" id="linearGradient-1">
            <stop stop-color="#FFCD49" offset="0%"></stop>
            <stop stop-color="#FF9F23" offset="100%"></stop>
        </linearGradient>
    </defs>
    <g id="服务商城" stroke="none" stroke-width="1" fill="none" fill-rule="evenodd">
        <g id="商城-拼团活动-拼团订单详情-拼团中" transform="translate(-1265.000000, -335.000000)" fill-rule="nonzero">
            <g id="Content-Left" transform="translate(1092.000000, 0.000000)">
                <g id="title" transform="translate(52.000000, 335.000000)">
                    <g id="icons/pintuan" transform="translate(121.000000, 0.000000)">
                        <path d="M11.7546654,15 C11.9121837,14.7103941 12,14.371134 12,14.0003174 L12,12.0009523 C12,11.0913547 11.5575113,10.2066583 10.7951055,9.59781261 L9.02651457,8.28816108 C9.65034877,7.49271111 10,6.53960001 10,5.50301557 L10,4.70326951 C10,3.46828321 9.53635133,2.32097088 8.76961937,1.46868621 C9.33623821,1.14278379 9.99972993,0.969441611 10.7,1.004444 C12.6,1.10441226 14,2.80387263 14,4.70326951 L14,5.50301557 C14,6.70263466 13.4,7.70231723 12.5,8.40209503 L15.2,10.4014602 C15.7,10.8013332 16,11.4011427 16,12.0009523 L16,14.0003174 C16,14.600127 15.6,15 15,15 L11.7546654,15 Z" id="Combined-Shape" fill="#FFB223" opacity="0.5"></path>
                        <path d="M10.2,10.4014602 L7.5,8.40209503 C8.4,7.70231723 9,6.70263466 9,5.50301557 L9,4.70326951 C9,2.80387263 7.6,1.10441226 5.7,1.004444 C3.7,0.904475743 2,2.50396786 2,4.503333 L2,5.50301557 C2,6.70263466 2.6,7.70231723 3.5,8.40209503 L0.8,10.5014284 C0.3,10.9013015 0,11.501111 0,12.1009205 L0,14.0003174 C0,14.600127 0.4,15 1,15 L10,15 C10.6,15 11,14.600127 11,14.0003174 L11,12.0009523 C11,11.4011427 10.7,10.8013332 10.2,10.4014602 Z" id="Shape" fill="url(#linearGradient-1)"></path>
                    </g>
                </g>
            </g>
        </g>
    </g>
</svg>