<?xml version="1.0" encoding="UTF-8"?>
<svg width="24px" height="24px" viewBox="0 0 24 24" version="1.1" xmlns="http://www.w3.org/2000/svg" xmlns:xlink="http://www.w3.org/1999/xlink">
    <!-- Generator: Sketch 49 (51002) - http://www.bohemiancoding.com/sketch -->
    <title>Maintenance Icons/air-filter</title>
    <desc>Created with Sketch.</desc>
    <defs></defs>
    <g id="Maintenance" stroke="none" stroke-width="1" fill="none" fill-rule="evenodd">
        <g id="智能保养-服务启用-常规保养" transform="translate(-255.000000, -443.000000)" fill="#303030">
            <g id="Content" transform="translate(192.000000, 72.000000)">
                <g id="table" transform="translate(0.000000, 177.000000)">
                    <g id="Row" transform="translate(0.000000, 172.000000)">
                        <g id="Maintenance-Icons/air-filter" transform="translate(63.000000, 22.000000)">
                            <rect id="Rectangle-11" x="5" y="0" width="14" height="2"></rect>
                            <rect id="Rectangle-11" x="5" y="22" width="14" height="2"></rect>
                            <rect id="Rectangle-14" x="1" y="4" width="22" height="2"></rect>
                            <rect id="Rectangle-14" x="1" y="18" width="22" height="2"></rect>
                            <rect id="Rectangle-15" x="3" y="6" width="2" height="13"></rect>
                            <rect id="Rectangle-15" x="7" y="8" width="2" height="3"></rect>
                            <rect id="Rectangle-15" x="7" y="13" width="2" height="3"></rect>
                            <rect id="Rectangle-15" x="15" y="8" width="2" height="3"></rect>
                            <rect id="Rectangle-15" x="15" y="13" width="2" height="3"></rect>
                            <rect id="Rectangle-15" x="11" y="8" width="2" height="3"></rect>
                            <rect id="Rectangle-15" x="11" y="13" width="2" height="3"></rect>
                            <rect id="Rectangle-15" x="19" y="6" width="2" height="13"></rect>
                        </g>
                    </g>
                </g>
            </g>
        </g>
    </g>
</svg>