<?xml version="1.0" encoding="UTF-8"?>
<svg width="18px" height="18px" viewBox="0 0 18 18" version="1.1" xmlns="http://www.w3.org/2000/svg" xmlns:xlink="http://www.w3.org/1999/xlink">
    <!-- Generator: Sketch 48.1 (47250) - http://www.bohemiancoding.com/sketch -->
    <title>Service Ticket/service-ticket-client</title>
    <desc>Created with Sketch.</desc>
    <defs></defs>
    <g id="Service-Ticket/service-ticket-client" stroke="none" stroke-width="1" fill="none" fill-rule="evenodd">
        <g fill="#444444" fill-rule="nonzero">
            <circle id="Oval" cx="9" cy="8" r="3"></circle>
            <path d="M9,1 C4.6,1 1,4.6 1,9 C1,13.4 4.6,17 9,17 C13.4,17 17,13.4 17,9 C17,4.6 13.4,1 9,1 Z M13,13.4 C12.4,12.7 11.6,12 10,12 L8,12 C6.4,12 5.6,12.7 5,13.4 C3.8,12.3 3,10.8 3,9 C3,5.7 5.7,3 9,3 C12.3,3 15,5.7 15,9 C15,10.8 14.2,12.3 13,13.4 Z" id="Shape"></path>
        </g>
    </g>
</svg>