<?xml version="1.0" encoding="UTF-8"?>
<svg width="18px" height="18px" viewBox="0 0 18 18" version="1.1" xmlns="http://www.w3.org/2000/svg" xmlns:xlink="http://www.w3.org/1999/xlink">
    <!-- Generator: Sketch 48.1 (47250) - http://www.bohemiancoding.com/sketch -->
    <title>Service Ticket/service-ticket-materials</title>
    <desc>Created with Sketch.</desc>
    <defs></defs>
    <g id="Service-Ticket/service-ticket-materials" stroke="none" stroke-width="1" fill="none" fill-rule="evenodd">
        <g fill="#444444" fill-rule="nonzero" id="Shape">
            <path d="M4.45,4.721 L5.88,3.291 C4.77859231,2.41802924 3.40486715,1.96094697 2,2 L1,2 L1,4 L2,4 C2.87290749,3.97096163 3.73196571,4.2237702 4.45,4.721 Z"></path>
            <path d="M15,3 L9,3 L4,8 L4,16 C4,16.5522847 4.44771525,17 5,17 L16,17 C16.5522847,17 17,16.5522847 17,16 L17,5 C17,3.8954305 16.1045695,3 15,3 Z M14,7 L10,7 C9.44771525,7 9,6.55228475 9,6 C9,5.44771525 9.44771525,5 10,5 L14,5 C14.5522847,5 15,5.44771525 15,6 C15,6.55228475 14.5522847,7 14,7 Z"></path>
        </g>
    </g>
</svg>