<?xml version="1.0" encoding="UTF-8"?>
<svg width="18px" height="18px" viewBox="0 0 18 18" version="1.1" xmlns="http://www.w3.org/2000/svg" xmlns:xlink="http://www.w3.org/1999/xlink">
    <!-- Generator: Sketch 48.1 (47250) - http://www.bohemiancoding.com/sketch -->
    <title>Service Ticket/service-ticket-store</title>
    <desc>Created with Sketch.</desc>
    <defs></defs>
    <g id="Service-Ticket/service-ticket-store" stroke="none" stroke-width="1" fill="none" fill-rule="evenodd">
        <g fill="#444444" fill-rule="nonzero">
            <path d="M15,17 L3,17 C2.56666667,17 2,16.4333333 2,16 L2,12 C2,11.5666667 2.56666667,11 3,11 C3.43333333,11 4,11.5666667 4,12 L4,15 L14,15 L14,12 C14,11.5666667 14.5666667,11 15,11 C15.4333333,11 16,11.5666667 16,12 L16,16 C16,16.4333333 15.4333333,17 15,17 Z" id="Shape_1_copy_13"></path>
            <path d="M16.8666667,5.6969697 L14.6666667,1.33333333 C14.5333333,1.12121212 14.2666667,1 14,1 L4,1 C3.73333333,1 3.46666667,1.12121212 3.33333333,1.33333333 L1.13333333,5.6969697 C1.03333333,5.81818182 1,5.93939394 1,6.09090909 L1,7.18181818 C1,8.18181818 1.9,9 3,9 C4.53333333,9 5,7.54545455 5,7.54545455 C5.2,8.39393939 6.03333333,9 7,9 C8.53333333,9 9,7.54545455 9,7.54545455 C9.2,8.39393939 10.0333333,9 11,9 C12.5333333,9 13,7.54545455 13,7.54545455 C13.2,8.39393939 14.0333333,9 15,9 C16.1,9 17,8.18181818 17,7.18181818 L17,6.09090909 C17,5.93939394 16.9666667,5.81818182 16.8666667,5.6969697 Z" id="Shape_1_copy_13-2"></path>
        </g>
    </g>
</svg>