<?xml version="1.0" encoding="UTF-8"?>
<svg width="24px" height="24px" viewBox="0 0 24 24" version="1.1" xmlns="http://www.w3.org/2000/svg" xmlns:xlink="http://www.w3.org/1999/xlink">
    <!-- Generator: Sketch 49 (51002) - http://www.bohemiancoding.com/sketch -->
    <title>Maintenance Icons/transmission-oil</title>
    <desc>Created with Sketch.</desc>
    <defs></defs>
    <g id="Maintenance" stroke="none" stroke-width="1" fill="none" fill-rule="evenodd" stroke-linecap="square">
        <g id="智能保养-服务启用-低频保养" transform="translate(-255.000000, -304.000000)" stroke="#303030" stroke-width="2">
            <g id="Content" transform="translate(192.000000, 72.000000)">
                <g id="table" transform="translate(0.000000, 177.000000)">
                    <g id="Row" transform="translate(0.000000, 33.000000)">
                        <g id="Maintenance-Icons/transmission-oil" transform="translate(63.000000, 22.000000)">
                            <polygon id="Shape" points="15 17 1 17 1 7 13 7 15 10 23 8 23 10"></polygon>
                            <path d="M2,1 L12,1" id="Shape"></path>
                            <path d="M7,3 L7,1" id="Shape"></path>
                            <path d="M19,21 C19,19 21,17 21,17 C21,17 23,19 23,21 C23,22.1045695 22.1045695,23 21,23 C19.8954305,23 19,22.1045695 19,21 Z" id="Shape"></path>
                        </g>
                    </g>
                </g>
            </g>
        </g>
    </g>
</svg>