<?xml version="1.0" standalone="no"?><!DOCTYPE svg PUBLIC "-//W3C//DTD SVG 1.1//EN" "http://www.w3.org/Graphics/SVG/1.1/DTD/svg11.dtd"><svg t="1547602703660" class="icon" style="" viewBox="0 0 1024 1024" version="1.1" xmlns="http://www.w3.org/2000/svg" p-id="10137" xmlns:xlink="http://www.w3.org/1999/xlink" width="16" height="16"><defs><style type="text/css"></style></defs><path d="M279.4 239.9l174.8 297.6 26.1 44.4H863c-4.7 23.7-11.8 46.9-21.3 69.4-18 42.6-43.8 80.9-76.7 113.8-32.9 32.9-71.2 58.7-113.8 76.8-44 18.6-90.9 28.1-139.2 28.1s-95.2-9.5-139.3-28.1c-42.6-18-80.9-43.8-113.8-76.8-32.9-32.9-58.7-71.2-76.7-113.8-18.6-44.1-28.1-91-28.1-139.3 0-67.3 18.7-132.9 54.2-189.6 19.5-31.1 43.5-58.8 71.1-82.5M309 112.6C163.7 186.6 64.2 337.7 64.2 512c0 247.4 200.5 448 447.8 448s447.8-200.6 447.8-448c0-6.7-0.2-13.4-0.5-20.1H531.8L309 112.6zM512 64c-24.8 0-49.2 2-72.9 5.9l15.2 88.7c18.9-3.1 38.2-4.6 57.7-4.6 48.3 0 95.2 9.5 139.3 28.1 42.6 18 80.9 43.8 113.8 76.8 32.9 32.9 58.7 71.2 76.7 113.8 5.9 14 10.9 28.4 15 42.9l87.8-20.2C893.2 204.5 719 64 512 64z" p-id="10138" fill="#ABB9C9"></path></svg>