<?xml version="1.0" standalone="no"?><!DOCTYPE svg PUBLIC "-//W3C//DTD SVG 1.1//EN" "http://www.w3.org/Graphics/SVG/1.1/DTD/svg11.dtd"><svg t="1555396126524" class="icon" style="" viewBox="0 0 1024 1024" version="1.1" xmlns="http://www.w3.org/2000/svg" p-id="5877" xmlns:xlink="http://www.w3.org/1999/xlink" width="16" height="16"><defs><style type="text/css"></style></defs><path d="M493.477 460.297L190.724 821.104l68.944 57.85L562.42 518.149l68.944 57.85-77.135 91.926-68.944-57.85L311.091 817.67l68.944 57.851L270.76 1005.75 63.929 832.197l360.604-429.75z" fill="#ffffff" p-id="5878"></path><path d="M491.714 602.413l137.888 115.702-57.85 68.944-137.889-115.702zM401.081 710.425l183.85 154.27-57.85 68.943L343.23 779.37zM437.78 526.673c-96.612-109.41-101.329-275.95-4.66-391.156C539.622 8.594 728.849-7.961 855.77 98.54c126.923 106.5 143.478 295.727 36.977 422.65-96.67 115.206-261.497 139.48-386.022 63.334l58.802-70.078c85.522 44.87 193.655 25.906 258.276-51.107 74.55-88.846 62.962-221.305-25.883-295.855-88.846-74.55-221.305-62.962-295.855 25.884-64.622 77.013-64.52 186.796-5.482 263.227l-58.802 70.078z" fill="#ffffff" p-id="5879"></path><path d="M603.155 399.595c-40.192-33.725-45.435-93.647-11.71-133.839 33.726-40.192 93.647-45.434 133.84-11.71 40.192 33.726 45.434 93.648 11.709 133.84-33.725 40.192-93.647 45.434-133.84 11.71z m36.639-43.664c16.077 13.49 40.045 11.393 53.535-4.684 13.49-16.077 11.393-40.046-4.683-53.536-16.077-13.49-40.046-11.393-53.536 4.684-13.49 16.077-11.393 40.046 4.684 53.536z" fill="#ffffff" p-id="5880"></path></svg>