<?xml version="1.0" standalone="no"?><!DOCTYPE svg PUBLIC "-//W3C//DTD SVG 1.1//EN" "http://www.w3.org/Graphics/SVG/1.1/DTD/svg11.dtd"><svg t="1547602696244" class="icon" style="" viewBox="0 0 1024 1024" version="1.1" xmlns="http://www.w3.org/2000/svg" p-id="9940" xmlns:xlink="http://www.w3.org/1999/xlink" width="16" height="16"><defs><style type="text/css"></style></defs><path d="M987 557v-90H879.3c-8.3-68.5-35.3-131.2-75.8-182.9l76.2-76.2-63.6-63.6-76.2 76.2C688.2 180 625.5 153 557 144.7V37h-90v107.7c-68.5 8.3-131.2 35.3-182.9 75.8l-76.2-76.2-63.6 63.6 76.2 76.2C180 335.8 153 398.5 144.7 467H37v90h107.7c8.3 68.5 35.3 131.2 75.8 182.9l-76.2 76.2 63.6 63.6 76.2-76.2C335.8 844 398.5 871 467 879.3V987h90V879.3c68.5-8.3 131.2-35.3 182.9-75.8l76.2 76.2 63.6-63.6-76.2-76.2C844 688.2 871 625.5 879.3 557H987z m-105.7-22.2v-0.6 0.6z m0.3-5.2c0-0.5 0-0.9 0.1-1.4-0.1 0.5-0.1 1-0.1 1.4z m0.2-5.3c0-0.5 0-1.1 0.1-1.6-0.1 0.5-0.1 1.1-0.1 1.6z m0.1-5.4v-1.5c0.1 0.4 0 0.9 0 1.5z m-0.6-29.1v-0.6 0.6z m0.7 16.9v-1.5c-0.1 0.5 0 1 0 1.5z m-0.2-5.4c0-0.5 0-1.1-0.1-1.6 0.1 0.5 0.1 1.1 0.1 1.6z m-0.2-5.5c0-0.5 0-0.9-0.1-1.4 0.1 0.4 0.1 0.9 0.1 1.4z m-85-220.2c-0.2-0.2-0.3-0.4-0.5-0.6 0.2 0.2 0.4 0.4 0.5 0.6z m-3.5-4.2c-0.2-0.2-0.3-0.4-0.5-0.5 0.2 0.1 0.3 0.3 0.5 0.5z m-7.8-8.8l-0.1-0.1c0.1 0 0.1 0.1 0.1 0.1z m-3.6-3.9l-0.6-0.6c0.3 0.2 0.4 0.4 0.6 0.6z m-3.9-4.1l-0.4-0.4 0.4 0.4zM749 227.9c-0.2-0.2-0.4-0.3-0.6-0.5 0.2 0.1 0.4 0.3 0.6 0.5z m20.7 18.6l-0.4-0.4 0.4 0.4z m-3.9-3.7l-0.6-0.6c0.3 0.3 0.5 0.4 0.6 0.6z m-4.3-4l-0.1-0.1s0.1 0 0.1 0.1z m-8.3-7.4c-0.2-0.2-0.4-0.3-0.5-0.5 0.1 0.2 0.3 0.3 0.5 0.5z m-218.4-88.7h-0.6 0.6z m-5.2-0.3c-0.5 0-0.9 0-1.4-0.1 0.5 0.1 1 0.1 1.4 0.1z m-5.3-0.2c-0.5 0-1.1 0-1.6-0.1 0.5 0.1 1.1 0.1 1.6 0.1z m-5.4-0.1h-1.5c0.4-0.1 0.9 0 1.5 0z m-29.1 0.6h-0.6 0.6z m16.9-0.7h-1.5c0.5 0.1 1 0 1.5 0z m-5.4 0.2c-0.5 0-1.1 0-1.6 0.1 0.5-0.1 1.1-0.1 1.6-0.1z m-5.5 0.2c-0.5 0-0.9 0-1.4 0.1 0.4-0.1 0.9-0.1 1.4-0.1z m-220.2 85c-0.2 0.2-0.4 0.3-0.6 0.5 0.2-0.2 0.4-0.4 0.6-0.5z m-4.2 3.5c-0.2 0.2-0.4 0.3-0.5 0.5 0.1-0.2 0.3-0.3 0.5-0.5z m-8.8 7.8l-0.1 0.1c0-0.1 0.1-0.1 0.1-0.1z m-3.9 3.6l-0.6 0.6c0.2-0.3 0.4-0.4 0.6-0.6z m-4.1 3.9l-0.4 0.4 0.4-0.4zM227.9 275c-0.2 0.2-0.3 0.4-0.5 0.6 0.1-0.2 0.3-0.4 0.5-0.6z m18.6-20.7l-0.4 0.4 0.4-0.4z m-3.7 3.8l-0.6 0.6 0.6-0.6z m-4 4.4l-0.1 0.1s0-0.1 0.1-0.1z m-7.4 8.3c-0.2 0.2-0.3 0.4-0.5 0.5 0.2-0.1 0.3-0.3 0.5-0.5z m-88.7 218.4v0z m-0.3 5.2c0 0.5 0 0.9-0.1 1.4 0.1-0.5 0.1-1 0.1-1.4z m-0.2 5.3c0 0.5 0 1.1-0.1 1.6 0.1-0.5 0.1-1.1 0.1-1.6z m-0.1 5.4v1.5c-0.1-0.4 0-0.9 0-1.5z m0.6 29.2v0z m-0.7-17v1.5c0.1-0.5 0-1 0-1.5z m0.2 5.4c0 0.5 0 1.1 0.1 1.6-0.1-0.5-0.1-1.1-0.1-1.6z m0.2 5.5c0 0.5 0 0.9 0.1 1.4-0.1-0.4-0.1-0.9-0.1-1.4z m85 220.2c0.2 0.2 0.3 0.4 0.5 0.6-0.2-0.2-0.4-0.4-0.5-0.6z m3.5 4.2c0.2 0.2 0.3 0.4 0.5 0.5-0.2-0.1-0.3-0.3-0.5-0.5z m7.8 8.8l0.1 0.1c-0.1 0-0.1-0.1-0.1-0.1z m3.6 3.9l0.6 0.6c-0.3-0.2-0.5-0.4-0.6-0.6z m3.9 4.1c0.1 0.1 0.2 0.3 0.4 0.4l-0.4-0.4z m28.8 26.7c0.2 0.2 0.4 0.3 0.6 0.5-0.2-0.1-0.4-0.3-0.6-0.5z m-20.7-18.6l0.4 0.4-0.4-0.4z m3.9 3.7l0.6 0.6c-0.3-0.3-0.5-0.4-0.6-0.6z m4.3 4c0.1 0 0.1 0.1 0.2 0.1-0.1 0-0.2-0.1-0.2-0.1z m8.3 7.4c0.2 0.2 0.4 0.3 0.5 0.5-0.1-0.2-0.3-0.3-0.5-0.5z m218.4 88.7h0.6-0.6z m5.2 0.3c0.5 0 0.9 0 1.4 0.1-0.5-0.1-1-0.1-1.4-0.1z m5.3 0.2c0.5 0 1.1 0 1.6 0.1-0.5-0.1-1.1-0.1-1.6-0.1z m5.4 0.1h1.5c-0.4 0.1-0.9 0-1.5 0z m29.2-0.6h0.6-0.6z m-17 0.7h1.5c-0.5-0.1-1 0-1.5 0z m5.4-0.2c0.5 0 1.1 0 1.6-0.1-0.5 0.1-1.1 0.1-1.6 0.1z m5.5-0.2c0.5 0 0.9 0 1.4-0.1-0.4 0.1-0.9 0.1-1.4 0.1zM621 770c-34.5 14.6-71.1 22-109 22s-74.5-7.4-109-22c-33.3-14.1-63.3-34.3-89-60-25.7-25.7-45.9-55.7-60-89-14.6-34.5-22-71.1-22-109 0-37.8 7.4-74.5 22-109 14.1-33.3 34.3-63.3 60-89 25.7-25.7 55.7-45.9 89-60 34.5-14.6 71.1-22 109-22s74.5 7.4 109 22c33.3 14.1 63.3 34.3 89 60 25.7 25.7 45.9 55.7 60 89 14.6 34.5 22 71.1 22 109 0 37.8-7.4 74.5-22 109-14.1 33.3-34.3 63.3-60 89-25.8 25.7-55.7 45.9-89 60z m164.3-8.6l-0.1 0.1c0.1 0 0.1-0.1 0.1-0.1z m-3.6 3.9l-0.6 0.6c0.3-0.2 0.5-0.4 0.6-0.6z m-3.9 4.1c-0.1 0.1-0.2 0.3-0.4 0.4l0.4-0.4zM749 796.1c-0.2 0.2-0.4 0.3-0.6 0.5 0.2-0.1 0.4-0.3 0.6-0.5z m20.7-18.6l-0.4 0.4 0.4-0.4z m-3.9 3.7l-0.6 0.6c0.3-0.3 0.5-0.4 0.6-0.6z m-4.3 4l-0.1 0.1s0.1 0 0.1-0.1z m-8.3 7.4c-0.2 0.2-0.4 0.3-0.5 0.5 0.1-0.2 0.3-0.3 0.5-0.5z m42.9-43.6c0.2-0.2 0.3-0.4 0.5-0.6-0.1 0.2-0.3 0.4-0.5 0.6z m-3.5 4.2c0.2-0.2 0.3-0.4 0.5-0.5-0.2 0.1-0.3 0.3-0.5 0.5zM512 367c-80 0-145 65-145 145s65 145 145 145 145-65 145-145-65-145-145-145z m0 200c-30.3 0-55-24.7-55-55s24.7-55 55-55 55 24.7 55 55-24.7 55-55 55z" p-id="9941" fill="#ABB9C9"></path></svg>