<?xml version="1.0" standalone="no"?><!DOCTYPE svg PUBLIC "-//W3C//DTD SVG 1.1//EN" "http://www.w3.org/Graphics/SVG/1.1/DTD/svg11.dtd"><svg t="1547602640036" class="icon" style="" viewBox="0 0 1024 1024" version="1.1" xmlns="http://www.w3.org/2000/svg" p-id="8700" xmlns:xlink="http://www.w3.org/1999/xlink" width="16" height="16"><defs><style type="text/css"></style></defs><path d="M862 154.2v137.9l4.1 13.1c2.7 8.6 4.1 17.7 4.1 26.9 0 49.6-40.4 90-90 90-13 0-25.6-2.7-37.3-8-11.2-5.1-21.5-12.7-29.8-21.9l-67-74.6-67 74.6c-8.3 9.2-18.6 16.8-29.8 21.9-11.7 5.3-24.2 8-37.3 8-13 0-25.6-2.7-37.3-8-11.2-5.1-21.5-12.7-29.8-21.9l-67-74.6-67 74.6c-8.3 9.2-18.6 16.8-29.8 21.9-11.7 5.3-24.2 8-37.3 8-49.6 0-90-40.4-90-90 0-9 1.3-17.9 3.9-26.3L162 293V154.2h700m90-90H72v215.3c-5.1 16.6-7.8 34.3-7.8 52.6 0 99.4 80.6 180 180 180 53.2 0 101-23.1 134-59.8 33 36.7 80.8 59.8 134 59.8s101-23.1 134-59.8c33 36.7 80.8 59.8 134 59.8 99.4 0 180-80.6 180-180 0-18.7-2.9-36.8-8.2-53.8V64.2z m-115 350v455.3H187V414.2H97v545.3h830V414.2h-90z" p-id="8701" fill="#ABB9C9"></path></svg>