<?xml version="1.0" standalone="no"?><!DOCTYPE svg PUBLIC "-//W3C//DTD SVG 1.1//EN" "http://www.w3.org/Graphics/SVG/1.1/DTD/svg11.dtd"><svg t="1547602630491" class="icon" style="" viewBox="0 0 1024 1024" version="1.1" xmlns="http://www.w3.org/2000/svg" p-id="8378" xmlns:xlink="http://www.w3.org/1999/xlink" width="16" height="16"><defs><style type="text/css"></style></defs><path d="M706.8 279.4v90h165v500.3H658.3V63.4h-600v896h528.4v0.3h375V279.4H706.8z m-138.5 590h-420v-716h420v716zM322.2 346h-90v-90h90v90z m0 180.7h-90v-90h90v90z m0 190h-90v-90h90v90zM499.3 346h-90v-90h90v90z m0 180.7h-90v-90h90v90z m0 190h-90v-90h90v90z m309.2-155.2h-90v-90h90v90z m-90 91.5h90v90h-90v-90z" p-id="8379" fill="#ABB9C9"></path></svg>