<?xml version="1.0" standalone="no"?><!DOCTYPE svg PUBLIC "-//W3C//DTD SVG 1.1//EN" "http://www.w3.org/Graphics/SVG/1.1/DTD/svg11.dtd"><svg t="1547602618380" class="icon" style="" viewBox="0 0 1024 1024" version="1.1" xmlns="http://www.w3.org/2000/svg" p-id="8181" xmlns:xlink="http://www.w3.org/1999/xlink" width="16" height="16"><defs><style type="text/css"></style></defs><path d="M512 624c102.2 0 185-82.8 185-185s-82.8-185-185-185-185 82.8-185 185 82.8 185 185 185z m0-280c52.4 0 95 42.6 95 95s-42.6 95-95 95-95-42.6-95-95 42.6-95 95-95z m318.2 482.4c1-1 2-2.1 3-3.1l1.5-1.5c1-1 2-2.1 3-3.1 0.4-0.5 0.9-0.9 1.3-1.4l4.2-4.5c1.4-1.5 2.7-3 4.1-4.6 0.4-0.5 0.8-0.9 1.2-1.4 1-1.1 1.9-2.2 2.8-3.3 0.5-0.5 0.9-1.1 1.4-1.6 0.9-1.1 1.9-2.2 2.8-3.3 0.4-0.5 0.8-1 1.2-1.4 2.6-3.2 5.2-6.4 7.7-9.6l1.2-1.5c0.9-1.1 1.8-2.3 2.6-3.4 0.4-0.6 0.9-1.1 1.3-1.7 0.9-1.2 1.7-2.3 2.6-3.5 0.4-0.5 0.8-1 1.1-1.5 1.2-1.7 2.4-3.3 3.6-5 1.2-1.7 2.4-3.4 3.5-5.1 0.4-0.5 0.7-1 1.1-1.6l2.4-3.6 1.2-1.8 2.4-3.6c0.3-0.5 0.7-1.1 1-1.6 2.2-3.5 4.4-7 6.5-10.5 0.3-0.5 0.7-1.1 1-1.6 0.7-1.2 1.5-2.5 2.2-3.7 0.4-0.6 0.7-1.2 1.1-1.9 0.7-1.2 1.4-2.5 2.2-3.8 0.3-0.6 0.6-1.1 1-1.7 2-3.6 4-7.2 5.9-10.9 0.3-0.6 0.6-1.1 0.9-1.7 0.7-1.3 1.3-2.6 2-3.9 0.3-0.6 0.6-1.3 1-1.9 0.7-1.3 1.3-2.6 1.9-3.9 0.3-0.6 0.6-1.2 0.9-1.7 1.8-3.7 3.6-7.5 5.3-11.3 0.3-0.6 0.5-1.2 0.8-1.8 0.6-1.3 1.2-2.7 1.8-4 0.3-0.7 0.6-1.3 0.9-2 0.6-1.3 1.1-2.7 1.7-4 0.2-0.6 0.5-1.2 0.7-1.8 0.8-1.9 1.6-3.9 2.3-5.8 0.8-1.9 1.5-3.9 2.3-5.8 0.2-0.6 0.5-1.2 0.7-1.8 0.5-1.4 1-2.7 1.5-4.1 0.2-0.7 0.5-1.4 0.7-2.1 0.5-1.4 1-2.8 1.5-4.1 0.2-0.6 0.4-1.2 0.6-1.9 0.7-2 1.3-4 2-5.9 0.6-2 1.3-4 1.9-6 0.2-0.6 0.4-1.2 0.6-1.9 0.4-1.4 0.9-2.8 1.3-4.2l0.6-2.1c0.4-1.4 0.8-2.8 1.2-4.3 0.2-0.6 0.4-1.3 0.5-1.9 0.6-2 1.1-4.1 1.6-6.1s1-4.1 1.5-6.2c0.2-0.6 0.3-1.3 0.5-1.9 0.3-1.4 0.7-2.9 1-4.3 0.2-0.7 0.3-1.4 0.5-2.2 0.3-1.4 0.6-2.9 0.9-4.4 0.1-0.6 0.3-1.3 0.4-1.9 0.4-2.1 0.8-4.2 1.2-6.2l1.2-6.3c0.1-0.7 0.2-1.3 0.3-2 0.3-1.5 0.5-2.9 0.7-4.4 0.1-0.7 0.2-1.5 0.4-2.2 0.2-1.5 0.5-3 0.7-4.4 0.1-0.7 0.2-1.3 0.3-2 0.6-4.3 1.1-8.5 1.6-12.8 0.1-0.7 0.1-1.3 0.2-2 0.2-1.5 0.3-3 0.5-4.5 0.1-0.8 0.1-1.5 0.2-2.3 0.1-1.5 0.3-3 0.4-4.5 0.1-0.7 0.1-1.4 0.2-2 0.2-2.2 0.3-4.3 0.5-6.5 0.1-2.2 0.3-4.4 0.4-6.5 0-0.7 0.1-1.4 0.1-2 0.1-1.5 0.1-3.1 0.2-4.6 0-0.8 0.1-1.5 0.1-2.3 0-1.5 0.1-3.1 0.1-4.6v-2.1c0-2.2 0.1-4.4 0.1-6.6 0-247.4-200.6-448-448-448s-448 200.6-448 448c0 2.2 0 4.4 0.1 6.6v2.1c0 1.5 0.1 3.1 0.1 4.6 0 0.8 0 1.5 0.1 2.3 0.1 1.5 0.1 3.1 0.2 4.6 0 0.7 0.1 1.3 0.1 2 0.1 2.2 0.2 4.4 0.4 6.5v0.3c0.1 2.1 0.3 4.2 0.4 6.2 0.1 0.7 0.1 1.4 0.2 2 0.1 1.5 0.3 3 0.4 4.5 0.1 0.7 0.1 1.5 0.2 2.2 0.2 1.5 0.3 3.1 0.5 4.6 0.1 0.6 0.1 1.3 0.2 1.9 0.2 2.2 0.5 4.3 0.8 6.4 0 0.1 0 0.3 0.1 0.4 0.3 2 0.5 4 0.8 6 0.1 0.7 0.2 1.3 0.3 2 0.2 1.5 0.4 3 0.7 4.5l0.3 2.1c0.3 1.5 0.5 3.1 0.8 4.6l0.3 1.8c0.4 2.1 0.8 4.2 1.2 6.4 0 0.2 0.1 0.4 0.1 0.5 0.4 1.9 0.8 3.8 1.2 5.8 0.1 0.6 0.3 1.3 0.4 1.9 0.3 1.5 0.6 3 1 4.5 0.2 0.7 0.3 1.4 0.5 2 0.4 1.6 0.7 3.1 1.1 4.7 0.1 0.5 0.3 1.1 0.4 1.6 0.5 2.1 1 4.2 1.6 6.3 0 0.2 0.1 0.4 0.1 0.5 0.5 1.9 1 3.8 1.5 5.6 0.2 0.6 0.3 1.2 0.5 1.8 0.4 1.5 0.8 3 1.3 4.4 0.2 0.6 0.4 1.3 0.6 1.9 0.5 1.6 0.9 3.1 1.4 4.7 0.1 0.5 0.3 0.9 0.4 1.4 0.6 2.1 1.3 4.1 1.9 6.1 0.1 0.2 0.1 0.3 0.2 0.5 0.6 1.8 1.2 3.7 1.8 5.5 0.2 0.6 0.4 1.1 0.6 1.7 0.5 1.5 1 3 1.6 4.4 0.2 0.6 0.4 1.2 0.6 1.7l1.8 4.8c0.1 0.4 0.3 0.8 0.4 1.2 0.8 2 1.5 4 2.3 6 0.1 0.1 0.1 0.3 0.2 0.4 0.7 1.8 1.5 3.6 2.2 5.4l0.6 1.5c0.6 1.5 1.2 3 1.9 4.5 0.2 0.5 0.4 1 0.7 1.6 0.7 1.6 1.4 3.3 2.2 4.9 0.1 0.3 0.3 0.6 0.4 0.9 0.9 2 1.8 4 2.7 5.9 0.1 0.1 0.1 0.2 0.2 0.3 0.8 1.8 1.7 3.6 2.6 5.3 0.2 0.5 0.4 0.9 0.7 1.3 0.7 1.5 1.5 3 2.2 4.5 0.2 0.5 0.5 0.9 0.7 1.4 0.8 1.7 1.7 3.3 2.6 5l0.3 0.6c1 1.9 2.1 3.9 3.1 5.8 0 0.1 0.1 0.2 0.1 0.2 1 1.8 1.9 3.5 2.9 5.3 0.2 0.4 0.5 0.8 0.7 1.2 0.8 1.5 1.7 3 2.6 4.4 0.2 0.4 0.5 0.8 0.7 1.2l3 5.1c0.1 0.1 0.1 0.2 0.2 0.3 1.2 1.9 2.3 3.8 3.5 5.7l0.1 0.1c1.1 1.7 2.2 3.5 3.3 5.2 0.2 0.3 0.4 0.7 0.7 1 1 1.5 1.9 3 2.9 4.4 0.2 0.3 0.4 0.7 0.7 1 1.2 1.7 2.3 3.5 3.5 5.2 1.3 1.8 2.6 3.7 3.9 5.5v0.1c1.2 1.7 2.4 3.4 3.7 5.1l0.6 0.9c1.1 1.5 2.2 2.9 3.3 4.4 0.2 0.3 0.4 0.5 0.6 0.8 3.9 5.2 8 10.2 12.1 15.2 0.2 0.2 0.4 0.5 0.6 0.7 1.2 1.4 2.4 2.9 3.7 4.3l0.6 0.6c4.2 4.9 8.6 9.8 13 14.5l0.6 0.6c1.3 1.4 2.7 2.8 4 4.2l0.5 0.5c4.6 4.7 9.2 9.3 14 13.8 0.2 0.2 0.4 0.4 0.6 0.5 1.4 1.4 2.9 2.7 4.3 4l0.4 0.4c4.8 4.4 9.8 8.8 14.8 13 0.2 0.2 0.4 0.3 0.5 0.5 1.5 1.3 3.1 2.6 4.7 3.8 0.1 0.1 0.2 0.2 0.4 0.3 5.1 4.1 10.3 8.2 15.6 12.1 0.2 0.1 0.4 0.3 0.6 0.4 1.6 1.2 3.3 2.4 4.9 3.6 0.1 0.1 0.2 0.2 0.3 0.2 31.8 22.8 66.8 41.5 104.1 55.4 0.6 0.2 1.2 0.4 1.8 0.7 1 0.4 2 0.7 2.9 1.1 0.7 0.2 1.3 0.5 2 0.7 0.9 0.3 1.9 0.7 2.9 1 0.7 0.2 1.4 0.5 2.1 0.7 0.9 0.3 1.9 0.6 2.8 0.9 0.7 0.2 1.4 0.5 2.2 0.7 0.9 0.3 1.9 0.6 2.8 0.9 0.7 0.2 1.5 0.5 2.2 0.7 0.9 0.3 1.9 0.6 2.8 0.9 0.7 0.2 1.5 0.4 2.2 0.7 0.9 0.3 1.9 0.6 2.8 0.8 0.7 0.2 1.5 0.4 2.2 0.7 0.9 0.3 1.9 0.5 2.8 0.8 0.7 0.2 1.5 0.4 2.2 0.6 0.9 0.3 1.9 0.5 2.8 0.8l2.1 0.6c1.9 0.5 3.8 1 5.6 1.4 0.7 0.2 1.5 0.4 2.2 0.5l2.7 0.6c0.8 0.2 1.6 0.4 2.5 0.6l2.7 0.6c0.8 0.2 1.7 0.4 2.5 0.6l2.7 0.6c0.9 0.2 1.7 0.4 2.6 0.5 0.9 0.2 1.8 0.4 2.6 0.5 0.9 0.2 1.7 0.3 2.6 0.5 0.9 0.2 1.7 0.3 2.6 0.5 0.9 0.2 1.8 0.3 2.7 0.5 0.9 0.2 1.7 0.3 2.6 0.5 0.9 0.2 1.8 0.3 2.7 0.5 0.8 0.1 1.7 0.3 2.5 0.4 0.9 0.2 1.9 0.3 2.9 0.5 0.8 0.1 1.6 0.3 2.4 0.4 1 0.2 2.1 0.3 3.1 0.5 0.7 0.1 1.5 0.2 2.2 0.3 1.4 0.2 2.7 0.4 4.1 0.5 0.6 0.1 1.2 0.2 1.8 0.2 1.6 0.2 3.2 0.4 4.7 0.6 0.7 0.1 1.3 0.1 2 0.2 1.1 0.1 2.3 0.2 3.4 0.4 0.8 0.1 1.5 0.1 2.3 0.2 1.1 0.1 2.1 0.2 3.2 0.3 0.8 0.1 1.6 0.1 2.4 0.2 1 0.1 2.1 0.2 3.1 0.3 0.8 0.1 1.6 0.1 2.4 0.2 1 0.1 2 0.1 3.1 0.2 0.8 0.1 1.6 0.1 2.4 0.2 1 0.1 2.1 0.1 3.1 0.2 0.8 0 1.6 0.1 2.4 0.1 1.1 0.1 2.1 0.1 3.2 0.1 0.8 0 1.6 0.1 2.3 0.1 1.1 0 2.2 0.1 3.3 0.1 0.7 0 1.5 0 2.2 0.1 1.2 0 2.5 0.1 3.7 0.1h14.7c1.2 0 2.5 0 3.7-0.1 0.7 0 1.5 0 2.2-0.1 1.1 0 2.2-0.1 3.3-0.1 0.8 0 1.6-0.1 2.4-0.1 1 0 2.1-0.1 3.1-0.1 0.8 0 1.6-0.1 2.5-0.1 1-0.1 2-0.1 3-0.2 0.8-0.1 1.7-0.1 2.5-0.2 1-0.1 1.9-0.1 2.9-0.2 0.9-0.1 1.7-0.1 2.6-0.2 1-0.1 1.9-0.2 2.9-0.2 0.9-0.1 1.7-0.1 2.6-0.2 0.9-0.1 1.9-0.2 2.8-0.3l2.7-0.3 2.7-0.3 2.7-0.3c0.9-0.1 1.7-0.2 2.6-0.3 0.9-0.1 1.9-0.2 2.8-0.3 0.4 0 0.7-0.1 1.1-0.1 2.5-0.3 5-0.7 7.5-1l1.8-0.3c1.1-0.2 2.2-0.3 3.3-0.5 0.7-0.1 1.3-0.2 2-0.3l3.3-0.6c0.7-0.1 1.3-0.2 2-0.3l3.3-0.6c0.6-0.1 1.3-0.2 1.9-0.4l3.3-0.6c0.6-0.1 1.2-0.2 1.8-0.4 1.1-0.2 2.3-0.5 3.4-0.7 0.6-0.1 1.1-0.2 1.7-0.4 1.2-0.2 2.3-0.5 3.5-0.8l1.5-0.3c1.2-0.3 2.4-0.6 3.6-0.8l1.2-0.3c1.3-0.3 2.6-0.6 4-1 0.2 0 0.4-0.1 0.6-0.1 8-2 15.9-4.2 23.8-6.6 0.1 0 0.1 0 0.2-0.1 1.5-0.4 2.9-0.9 4.4-1.4 0.2-0.1 0.4-0.1 0.6-0.2 1.4-0.4 2.8-0.9 4.1-1.4 0.3-0.1 0.5-0.2 0.8-0.2 1.4-0.5 2.7-0.9 4.1-1.4 0.3-0.1 0.5-0.2 0.8-0.3 1.4-0.5 2.7-0.9 4.1-1.4 0.2-0.1 0.4-0.2 0.7-0.2l4.2-1.5c0.2-0.1 0.3-0.1 0.5-0.2 1.5-0.5 2.9-1.1 4.4-1.7 33.9-13 65.8-30 95.1-50.4 0.5-0.4 1-0.7 1.5-1.1 1.2-0.8 2.4-1.7 3.6-2.5 0.6-0.4 1.2-0.8 1.7-1.2 1.2-0.8 2.3-1.7 3.5-2.6 0.5-0.4 1-0.7 1.5-1.1 3.3-2.5 6.6-5 9.8-7.5l1.5-1.2c1.1-0.9 2.3-1.8 3.4-2.7 0.6-0.4 1.1-0.9 1.7-1.3 1.1-0.9 2.2-1.8 3.3-2.8 0.5-0.4 1-0.8 1.4-1.2 3.1-2.6 6.2-5.3 9.3-8.1 0.5-0.4 0.9-0.8 1.4-1.3 1.1-1 2.1-1.9 3.2-2.9 0.5-0.5 1-1 1.6-1.4 1.1-1 2.1-2 3.2-3 0.5-0.4 0.9-0.9 1.4-1.3 3-2.8 5.9-5.7 8.8-8.6-0.7 0.1-0.3-0.3 0.2-0.8zM181.6 372.2c18-42.6 43.9-80.9 76.8-113.8 32.9-32.9 71.2-58.7 113.8-76.8 44.1-18.6 91-28.1 139.3-28.1s95.2 9.5 139.3 28.1c42.6 18 80.9 43.9 113.8 76.8 32.9 32.9 58.7 71.2 76.8 113.8 18.6 44.1 28.1 91 28.1 139.3s-9.5 95.2-28.1 139.3c-18 42.6-43.9 80.9-76.8 113.8-1.8 1.8-3.7 3.6-5.6 5.4-13.7-68.6-74.6-120.7-147.1-120.7H412c-72.7 0-133.8 52.5-147.2 121.5-2.1-2-4.3-4.1-6.4-6.2-32.9-32.9-58.7-71.2-76.8-113.8-18.6-44.1-28.1-91-28.1-139.3s9.5-95.2 28.1-139.3z m577.5 397.9c-1 1-2 1.9-3.1 2.9 1.1-0.9 2.1-1.9 3.1-2.9z m-5.6 5.3c-1.1 1-2.1 1.9-3.2 2.9 1-1 2.1-1.9 3.2-2.9z m-5.7 5.1c-1.1 1-2.2 1.9-3.3 2.9 1.1-1 2.2-1.9 3.3-2.9z m-5.6 4.8c-2.2 1.9-4.4 3.7-6.7 5.5 2.2-1.8 4.5-3.6 6.7-5.5z m-8.7 7.1c-1.3 1-2.5 2-3.8 3 1.3-1 2.6-2 3.8-3z m-5.9 4.6c-1.3 1-2.6 2-4 3 1.4-1 2.7-2 4-3z m-5.7 4.2c-4.7 3.4-9.5 6.8-14.4 10 4.9-3.2 9.7-6.5 14.4-10z m-416 3.5c-1.3-0.9-2.6-1.8-3.9-2.8 1.4 1 2.7 1.9 3.9 2.8z m-6.3-4.6c-1.2-0.9-2.3-1.7-3.5-2.6 1.2 0.9 2.4 1.8 3.5 2.6z m-6.4-4.8l-3-2.4 3 2.4z m-8.5-6.8c-0.8-0.7-1.6-1.3-2.4-2 0.8 0.7 1.5 1.3 2.4 2z m-6.1-5.1l-2.4-2.1 2.4 2.1z m-6.1-5.4c-0.7-0.6-1.4-1.3-2.1-1.9 0.6 0.6 1.3 1.3 2.1 1.9z m99.7 63.4c-2.2-0.9-4.4-1.9-6.5-2.9-1-0.4-2-0.9-3-1.3-0.8-0.4-1.7-0.8-2.5-1.2-2.7-1.3-5.5-2.6-8.2-3.9-7.9-4-15.7-8.2-23.3-12.7 7.6 4.5 15.4 8.8 23.3 12.7v-32.7c0-15.9 6.3-30.9 17.7-42.3 11.4-11.4 26.4-17.7 42.3-17.7h200c15.9 0 30.9 6.3 42.3 17.7 11.4 11.4 17.7 26.4 17.7 42.3v32.2c-2.8 1.4-5.6 2.8-8.5 4.1-1 0.5-2 1-3.1 1.4-1 0.4-1.9 0.9-2.9 1.3-2.2 1-4.4 2-6.7 2.9-44.1 18.6-91 28.1-139.3 28.1s-95.2-9.3-139.3-28z m-64.9-35.8c3.3 2.3 6.6 4.5 9.9 6.7-3.3-2.2-6.6-4.4-9.9-6.7z m9.9 6.7c1.7 1.1 3.3 2.1 5 3.2-1.6-1.1-3.3-2.1-5-3.2z m6.1 3.8c1.7 1.1 3.5 2.1 5.2 3.2-1.7-1-3.5-2.1-5.2-3.2z m383.1-4.2c-1.6 1-3.2 2.1-4.8 3.1 1.6-1 3.2-2 4.8-3.1z m-6 3.8c-7.2 4.5-14.6 8.7-22.1 12.7 7.6-4 14.9-8.2 22.1-12.7z m-22.8 13.1c-1.9 1-3.7 1.9-5.6 2.9 1.9-1 3.7-2 5.6-2.9z" p-id="8182" fill="#ffffff"></path></svg>