<?xml version="1.0" standalone="no"?><!DOCTYPE svg PUBLIC "-//W3C//DTD SVG 1.1//EN" "http://www.w3.org/Graphics/SVG/1.1/DTD/svg11.dtd"><svg t="1547602682198" class="icon" style="" viewBox="0 0 1024 1024" version="1.1" xmlns="http://www.w3.org/2000/svg" p-id="9737" xmlns:xlink="http://www.w3.org/1999/xlink" width="16" height="16"><defs><style type="text/css"></style></defs><path d="M597.4 116.6c8.2 0 16.3 0.4 24.5 1.2l-35.1 45.1-55.3 71 71 55.3 71 55.3 71 55.3 55.3-71 38.5-49.4c10.1 25.1 16.3 51.8 18.2 79.3 2.2 31.3-1.2 62.4-10.1 92.3-9.2 30.9-24 59.7-44.1 85.5-25.1 32.2-56.3 57.4-92.8 74.8-34.9 16.7-73.8 25.5-112.6 25.5-20.3 0-40.6-2.4-60.2-7.1l-56.3-13.4-35.6 45.7L282 871.1l-78.9-61.4 160.2-205.8 36.8-47.3-29.4-52.2c-24.9-44.1-36.3-94.3-32.9-145.1 3.4-51.9 22.2-101.1 54.3-142.4 25.1-32.2 56.3-57.4 92.8-74.8 34.8-16.7 73.7-25.5 112.5-25.5m0-90C493.2 26.6 390 73 321 161.6c-89.3 114.8-95.9 267.7-28.7 386.9L76.8 825.4l221 172L516 717.1c26.7 6.4 53.9 9.5 81.1 9.5 104.3 0 207.4-46.4 276.4-135C983.8 449.9 968 250 842.8 127.1l-114 146.3-71-55.3L771 72.7c-54.1-31-114-46.1-173.6-46.1z" p-id="9738" fill="#ffffff"></path></svg>