<?xml version="1.0" encoding="UTF-8"?>
<svg width="24px" height="24px" viewBox="0 0 24 24" version="1.1" xmlns="http://www.w3.org/2000/svg" xmlns:xlink="http://www.w3.org/1999/xlink">
    <!-- Generator: Sketch 49 (51002) - http://www.bohemiancoding.com/sketch -->
    <title>Maintenance Icons/fuel</title>
    <desc>Created with Sketch.</desc>
    <defs></defs>
    <g id="Maintenance" stroke="none" stroke-width="1" fill="none" fill-rule="evenodd">
        <g id="智能保养-服务启用-清洗护理" transform="translate(-255.000000, -303.000000)" stroke="#303030" stroke-width="2">
            <g id="Content" transform="translate(192.000000, 72.000000)">
                <g id="table" transform="translate(0.000000, 177.000000)">
                    <g id="Row" transform="translate(0.000000, 33.000000)">
                        <g id="Maintenance-Icons/fuel" transform="translate(63.000000, 21.000000)">
                            <path d="M18,14 L18,15.5 C18,16.88071 19.11929,18 20.5,18 C21.88071,18 23,16.88071 23,15.5 L23,6 L21,6" id="Shape" stroke-linecap="square"></path>
                            <rect id="Rectangle-path" stroke-linecap="square" x="7" y="6" width="7" height="5"></rect>
                            <path d="M3,22 L3,4 C3,2.89543 3.89543,2 5,2 L16,2 C17.10457,2 18,2.89543 18,4 L18,22" id="Shape"></path>
                            <path d="M1,22 L20,22" id="Shape" stroke-linecap="square"></path>
                        </g>
                    </g>
                </g>
            </g>
        </g>
    </g>
</svg>