<?xml version="1.0" encoding="UTF-8"?>
<svg width="10px" height="10px" viewBox="0 0 10 10" version="1.1" xmlns="http://www.w3.org/2000/svg" xmlns:xlink="http://www.w3.org/1999/xlink">
    <!-- Generator: Sketch 48.1 (47250) - http://www.bohemiancoding.com/sketch -->
    <title>Star/star-s-grey</title>
    <desc>Created with Sketch.</desc>
    <defs></defs>
    <g id="Star/star-s-grey" stroke="none" stroke-width="1" fill="none" fill-rule="evenodd">
        <g fill="#EBEBEF" fill-rule="nonzero" id="Shape">
            <path d="M9.46422515,3.37984542 L6.76668815,2.98743096 L5.56257562,0.543588655 C5.44613035,0.343260479 5.23191113,0.219999999 5.0001982,0.219999999 C4.76848528,0.219999999 4.55426606,0.343260479 4.43782079,0.543588655 L3.23370826,2.98805582 L0.536171255,3.37984542 C0.30051785,3.41364303 0.104542605,3.57840814 0.0307741409,3.80475526 C-0.0429943231,4.03110238 0.0182619961,4.27970146 0.188746985,4.44586305 L2.14019662,6.34857331 L1.679672,9.03548762 C1.63950659,9.26990511 1.73589864,9.50679899 1.9283235,9.64657556 C2.12074837,9.78635214 2.37583817,9.80477312 2.58634937,9.69409406 L5.0001982,8.4249957 L7.41279732,9.69284434 C7.62330851,9.80352339 7.87839831,9.78510241 8.07082318,9.64532584 C8.26324804,9.50554927 8.35964009,9.26865538 8.31947468,9.0342379 L7.85895007,6.34732358 L9.81164942,4.44586305 C9.98170124,4.27982963 10.0428417,4.03170189 9.96939768,3.80566938 C9.89595368,3.57963686 9.70064212,3.41483722 9.46547488,3.38047028 L9.46422515,3.37984542 Z"></path>
        </g>
    </g>
</svg>