<?xml version="1.0" encoding="UTF-8"?>
<svg width="16px" height="16px" viewBox="0 0 16 16" version="1.1" xmlns="http://www.w3.org/2000/svg" xmlns:xlink="http://www.w3.org/1999/xlink">
    <!-- Generator: Sketch 48.1 (47250) - http://www.bohemiancoding.com/sketch -->
    <title>Star/star-l-grey</title>
    <desc>Created with Sketch.</desc>
    <defs></defs>
    <g id="Star/star-l-grey" stroke="none" stroke-width="1" fill="none" fill-rule="evenodd">
        <g fill="#EBEBEF" fill-rule="nonzero">
            <path d="M15.0116894,5.46524954 L10.772892,4.84862579 L8.88079974,1.00847374 C8.69782249,0.693686387 8.36120733,0.5 7.99710328,0.5 C7.63299924,0.5 7.29638408,0.693686387 7.11340683,1.00847374 L5.22131453,4.84960767 L0.982517188,5.46524954 C0.612221239,5.5183577 0.304273897,5.77726273 0.188357204,6.13293518 C0.0724405113,6.48860762 0.168696141,6.87924586 0.436589155,7.14034527 L3.50301586,10.1301849 L2.77936665,14.3522902 C2.7162524,14.7206441 2.86771886,15.0928893 3.17008727,15.3125284 C3.47245569,15.5321675 3.87329318,15.5611134 4.20408172,15.387197 L7.99710328,13.3929886 L11.7881611,15.3852332 C12.1189496,15.5591497 12.5197871,15.5302037 12.8221555,15.3105646 C13.1245239,15.0909255 13.2759904,14.7186803 13.2128761,14.3503265 L12.4892269,10.1282212 L15.5576174,7.14034527 C15.8248298,6.87944726 15.9209033,6.48954966 15.8054965,6.13437158 C15.6900896,5.77919349 15.3831852,5.52023419 15.0136532,5.46623142 L15.0116894,5.46524954 Z"></path>
        </g>
    </g>
</svg>