<?xml version="1.0" encoding="UTF-8"?>
<svg width="16px" height="16px" viewBox="0 0 16 16" version="1.1" xmlns="http://www.w3.org/2000/svg" xmlns:xlink="http://www.w3.org/1999/xlink">
    <!-- Generator: Sketch 50.2 (55047) - http://www.bohemiancoding.com/sketch -->
    <title>Nav/nav-operate-grey</title>
    <desc>Created with Sketch.</desc>
    <defs>
        <polygon id="path-1" points="0 0.0003 14.7359 0.0003 14.7359 15.6713 0 15.6713"></polygon>
    </defs>
    <g id="企业微信" stroke="none" stroke-width="1" fill="none" fill-rule="evenodd">
        <g id="车店AI企业微信-组织管理" transform="translate(-24.000000, -440.000000)">
            <g id="Left-Nav">
                <g id="Nav-Menu" transform="translate(0.000000, 152.000000)">
                    <g id="Nav/nav-operate-white" transform="translate(24.000000, 288.000000)">
                        <g id="Group-17">
                            <path d="M13.1681,9.2398 C13.1091,8.7718 12.7001,8.3918 12.2021,8.3918 C11.6751,8.3918 11.2361,8.8298 11.2361,9.3578 C11.2361,9.8248 11.5581,10.2358 12.0261,10.3228 C12.7001,10.4408 13.3431,10.7908 13.8111,11.2598 C13.8411,11.2878 13.8991,11.3178 13.9581,11.3178 C14.0751,11.3178 14.1621,11.2308 14.1621,11.1128 C14.1331,11.0548 14.1331,10.9958 14.0751,10.9668 C13.6361,10.4978 13.3141,9.9128 13.1681,9.2398 Z" id="Fill-2" fill="#FEFEFE"></path>
                            <path d="M13.1681,9.2398 C13.1091,8.7718 12.7001,8.3918 12.2021,8.3918 C11.6751,8.3918 11.2361,8.8298 11.2361,9.3578 C11.2361,9.8248 11.5581,10.2358 12.0261,10.3228 C12.7001,10.4408 13.3431,10.7908 13.8111,11.2598 C13.8411,11.2878 13.8991,11.3178 13.9581,11.3178 C14.0751,11.3178 14.1621,11.2308 14.1621,11.1128 C14.1331,11.0548 14.1331,10.9958 14.0751,10.9668 C13.6361,10.4978 13.3141,9.9128 13.1681,9.2398 Z" id="Fill-4" fill="#FEFEFE"></path>
                            <path d="M9.246,11.2302 C8.778,11.2882 8.398,11.6982 8.398,12.1952 C8.398,12.7222 8.837,13.1612 9.364,13.1612 C9.831,13.1612 10.242,12.8402 10.329,12.3712 C10.446,11.6982 10.797,11.0542 11.265,10.5862 C11.295,10.5562 11.324,10.4982 11.324,10.4402 C11.324,10.3232 11.236,10.2352 11.119,10.2352 C11.06,10.2642 11.002,10.2942 10.973,10.3232 C10.505,10.7612 9.919,11.0842 9.246,11.2302 Z" id="Fill-6" fill="#FEFEFE"></path>
                            <g id="Group-10">
                                <mask id="mask-2" fill="white">
                                    <use xlink:href="#path-1"></use>
                                </mask>
                                <g id="Clip-9"></g>
                                <path d="M13.4969,9.0283 C13.5289,9.1743 13.5729,9.3143 13.6209,9.4523 C13.6299,9.4843 13.6419,9.5143 13.6519,9.5463 C13.6999,9.6723 13.7549,9.7923 13.8149,9.9093 C14.3899,8.9563 14.7359,7.8733 14.7359,6.7093 C14.7359,3.0043 11.4369,0.0003 7.3679,0.0003 C3.2989,0.0003 -0.0001,3.0043 -0.0001,6.7093 C-0.0001,8.1973 0.5369,9.5693 1.4379,10.6813 C1.5249,10.7903 1.5749,10.9233 1.5739,11.0613 L1.5269,15.0593 C1.5219,15.4143 1.8129,15.6713 2.1309,15.6713 C2.2289,15.6713 2.3299,15.6463 2.4259,15.5923 L6.4099,13.3543 C6.7249,13.3913 7.0419,13.4183 7.3679,13.4183 C7.7789,13.4183 8.1789,13.3773 8.5709,13.3173 C8.2419,13.0963 8.0089,12.7393 8.0089,12.3193 C8.0089,11.8813 8.2489,11.5073 8.5909,11.2893 C8.1979,11.3713 7.7899,11.4183 7.3679,11.4183 C7.1579,11.4183 6.9289,11.4023 6.6449,11.3693 L5.9979,11.2923 L5.4309,11.6113 L3.5549,12.6653 L3.5739,11.0853 C3.5799,10.4853 3.3739,9.8943 2.9919,9.4233 C2.3429,8.6223 1.9999,7.6833 1.9999,6.7093 C1.9999,4.1123 4.4079,2.0003 7.3679,2.0003 C10.3279,2.0003 12.7359,4.1123 12.7359,6.7093 C12.7359,7.1433 12.5519,7.8373 12.4519,8.1963 C12.4789,8.1933 12.5029,8.1793 12.5319,8.1793 C13.0289,8.1793 13.4379,8.5603 13.4969,9.0283" id="Fill-8" fill="#FEFEFE" mask="url(#mask-2)"></path>
                            </g>
                            <path d="M13.7909,9.9541 C13.7999,9.9391 13.8059,9.9241 13.8149,9.9091 C13.7549,9.7921 13.6999,9.6721 13.6519,9.5461 C13.6969,9.6831 13.7329,9.8251 13.7909,9.9541" id="Fill-11" fill="#FEFEFE"></path>
                            <path d="M10.329,13.4248 C10.768,13.8928 11.09,14.4788 11.236,15.1518 C11.295,15.6188 11.704,15.9998 12.202,15.9998 C12.729,15.9998 13.168,15.5618 13.168,15.0338 C13.168,14.5668 12.846,14.1558 12.377,14.0688 C11.704,13.9508 11.06,13.6008 10.593,13.1318 C10.563,13.1028 10.505,13.0728 10.446,13.0728 C10.329,13.0728 10.242,13.1608 10.242,13.2788 C10.27,13.3368 10.3,13.3958 10.329,13.4248" id="Fill-13" fill="#FEFEFE"></path>
                            <path d="M13.431,14.0976 C13.899,13.6596 14.485,13.3366 15.158,13.1906 C15.626,13.1316 16.006,12.7226 16.006,12.2246 C16.006,11.6986 15.567,11.2596 15.04,11.2596 C14.572,11.2596 14.162,11.5806 14.075,12.0496 C13.958,12.7226 13.607,13.3666 13.139,13.8346 C13.109,13.8636 13.08,13.9216 13.08,13.9806 C13.08,14.0976 13.168,14.1856 13.285,14.1856 C13.343,14.1566 13.402,14.1266 13.431,14.0976" id="Fill-15" fill="#FEFEFE"></path>
                        </g>
                    </g>
                </g>
            </g>
        </g>
    </g>
</svg>