<?xml version="1.0" encoding="UTF-8"?>
<svg width="86px" height="26px" viewBox="0 0 86 26" version="1.1" xmlns="http://www.w3.org/2000/svg" xmlns:xlink="http://www.w3.org/1999/xlink">
    <!-- Generator: Sketch 44.1 (41455) - http://www.bohemiancoding.com/sketch -->
    <title>logo</title>
    <desc>Created with Sketch.</desc>
    <defs></defs>
    <g id="Outdated-Browser" stroke="none" stroke-width="1" fill="none" fill-rule="evenodd">
        <g id="XP" transform="translate(-14.000000, -13.000000)" fill="#FFFFFF">
            <g id="Top-Nav-|-Blue" transform="translate(-16.000000, 0.000000)">
                <g id="Brand" transform="translate(16.000000, 0.000000)">
                    <g id="logo" transform="translate(14.000000, 13.000000)">
                        <path d="M13.5238379,22.3488618 L7.93662759,16.6861392 L7.94268303,16.6801915 C6.99950681,15.7259132 6.42096647,14.4116329 6.43078611,12.9641898 C6.44076941,11.5197205 7.0348575,10.2160139 7.98736238,9.27528327 L10.7965971,12.1225878 C10.5730367,12.3446359 10.4334342,12.6516042 10.4311429,12.9916154 C10.428688,13.3346004 10.566654,13.6458643 10.7907054,13.8715471 L14.3498331,17.4920549 L17.1245355,20.3041687 L13.5238379,22.3488618 Z M9.80203148,3.64180359 L15.3912057,9.31708251 C16.3360186,10.2715259 16.9158682,11.5867976 16.9060486,13.0358928 C16.8960653,14.4835012 16.2995223,15.7895208 15.3434168,16.7309123 L12.5340184,13.8834426 C12.7611794,13.6608988 12.9034005,13.3516175 12.9056917,13.0084672 C12.907983,12.6684561 12.7726356,12.3598356 12.5520211,12.1346484 L12.5525121,12.1341528 L8.97930948,8.51265373 L6.2013339,5.68649667 L9.80203148,3.64180359 Z M21.9407406,5.53945587 L13.1470911,0.383115301 C12.2878728,-0.120788536 11.2286612,-0.128057968 10.3627328,0.363950434 L1.49854562,5.39984973 C0.621815616,5.89797106 0.0763347273,6.83209313 0.0694609807,7.84783109 L6.88725147e-05,17.9926544 C-0.00696853468,19.0085576 0.525746824,19.9502795 1.39593041,20.4606267 L10.1895799,25.6169673 C11.0489618,26.1207059 12.1081735,26.1281406 12.9741019,25.635967 L21.8381254,20.6002329 C22.715019,20.1019463 23.2603363,19.1679895 23.2673737,18.1524167 L23.3367658,8.00742817 C23.3436395,6.991525 22.8110878,6.04980307 21.9407406,5.53945587 L21.9407406,5.53945587 Z"></path>
                        <path d="M80.1883018,19.3991504 L73.5415935,19.3991504 L73.5415935,17.2955038 L80.6776926,17.2955038 L80.6776926,18.9097597 C80.6776926,19.1801267 80.4586688,19.3991504 80.1883018,19.3991504 M70.7959526,15.9809538 C70.7959526,15.9379641 70.8307927,15.903124 70.8737825,15.903124 L83.3455036,15.903124 C83.3884934,15.903124 83.4233334,15.9379641 83.4233334,15.9809538 L83.4233334,18.8494517 C83.4233334,19.921955 82.5537582,20.7915301 81.481255,20.7915301 L70.8737825,20.7915301 C70.8307927,20.7915301 70.7959526,20.7566901 70.7959526,20.7137003 L70.7959526,15.9809538 Z M71.5877387,7.33970327 L71.5877387,8.42320862 C71.5877387,8.46660588 71.5526949,8.50164968 71.5092977,8.50164968 L68.920539,8.50164968 C68.8773454,8.50164968 68.8420979,8.46660588 68.8420979,8.42320862 L68.8420979,5.99173949 C68.8420979,5.94834223 68.8773454,5.91329843 68.920539,5.91329843 L75.3836748,5.91329843 L75.3836748,5.05880023 C75.3836748,5.02640509 75.4101614,5.00012225 75.4425566,5.00012225 L78.7283202,5.00012225 C78.7607153,5.00012225 78.7869981,5.02640509 78.7869981,5.05880023 L78.7869981,5.91329843 L85.1071064,5.91329843 C85.1502999,5.91329843 85.1855475,5.94834223 85.1855475,5.99173949 L85.1855475,8.42320862 C85.1855475,8.46660588 85.1502999,8.50164968 85.1071064,8.50164968 L82.518144,8.50164968 C82.4751542,8.50164968 82.4401104,8.46660588 82.4401104,8.42320862 L82.4401104,7.33970327 L71.5877387,7.33970327 Z M79.8119681,13.1095017 C81.3306685,13.5414369 83.1833038,13.9258999 85.4419988,14.1905621 C85.4587057,14.1925995 85.4707266,14.2082878 85.4674667,14.2245872 L85.2235863,15.5045008 C85.2019896,15.6181894 85.0986918,15.6974454 84.9831696,15.6870546 C84.1333574,15.6114659 80.7343127,15.2567493 77.2729227,14.1722252 C75.1766108,14.8883819 72.4376935,15.4824966 68.8988811,15.7002978 C68.8662822,15.7023353 68.8357207,15.6813497 68.8269598,15.6499733 L68.4382181,14.2771529 C68.4261973,14.2337556 68.4541101,14.1899509 68.4989335,14.1848573 C68.9942328,14.128013 71.6039771,13.8065065 74.3145741,13.0373767 C71.9222237,11.5628885 70.9326438,10.5352087 70.9326438,10.5352087 C70.8444231,10.4290586 70.796136,10.2951994 70.796136,10.1570617 L70.796136,9.00306124 C70.796136,8.9706661 70.8222151,8.94438325 70.854814,8.94438325 L83.3646351,8.94438325 C83.3970302,8.94438325 83.423313,8.9706661 83.423313,9.00306124 L83.423313,10.016479 C83.423313,10.2597481 83.3371297,10.4954788 83.1755615,10.6774213 C82.7483124,11.1584586 81.7287824,12.1366288 79.8119681,13.1095017 Z M74.1794925,10.3707881 C74.6519726,10.7766442 75.3720004,11.3699438 76.7046834,11.983414 C76.8827548,12.0653187 77.089554,12.0667449 77.2684403,11.9864702 C78.2749308,11.5347719 79.1783273,11.0007615 79.8464007,10.3707881 L74.1794925,10.3707881 Z M45.2684607,14.4478284 C45.2684607,14.4847059 45.2393255,14.5146561 45.2026517,14.5158786 L39.8468591,14.7039334 L39.8468591,19.6781153 C39.8468591,20.4081265 39.2547819,21 38.5247707,21 L37.1012183,21 L37.1012183,14.8001001 L31.0066535,15.0138265 C30.9604038,15.0154565 30.9221001,14.9783752 30.9221001,14.9321256 L30.9221001,13.5790682 C30.9221001,13.5438207 30.9500129,13.5148892 30.9852605,13.5136667 L39.521074,13.2170169 C41.8160353,13.1190165 44.5732895,12.9623381 45.1566058,12.9289242 C45.2183399,12.9252569 45.2684607,12.9745627 45.2684607,13.0362968 L45.2684607,14.4478284 Z M63.2235175,11.8550763 L66.7653861,11.8550763 C66.8067459,11.8550763 66.8403635,11.8886939 66.8403635,11.9300537 L66.8403635,13.2065037 C66.8403635,13.2480673 66.8067459,13.2816849 66.7653861,13.2816849 L63.2235175,13.2816849 L63.2235175,19.2533926 C63.2235175,19.2841578 63.2204614,19.3141081 63.2190352,19.3444658 L63.2235175,19.3444658 C63.2235175,20.1732923 62.5515731,20.8454405 61.7225428,20.8454405 L61.6314696,20.8454405 L60.4778767,20.8454405 L58.9536752,20.8454405 C58.9125191,20.8454405 58.8791053,20.811823 58.8791053,20.7706669 L58.8791053,19.4192395 C58.8791053,19.3778796 58.9125191,19.3444658 58.9536752,19.3444658 L60.0610185,19.3444658 C60.2912481,19.3444658 60.4778767,19.1578372 60.4778767,18.9276076 L60.4778767,13.2816849 L56.8033714,13.2816849 C56.7701613,13.2816849 56.7430635,13.2545871 56.7430635,13.221377 L56.7430635,11.9153843 C56.7430635,11.8821741 56.7701613,11.8550763 56.8033714,11.8550763 L60.4778767,11.8550763 L60.4778767,10.0132395 C60.4778767,9.9498754 60.5098643,9.89221613 60.5642637,9.86022847 C60.9114418,9.65628172 62.2361789,8.81156318 63.2261662,7.26698739 L57.4828544,7.26698739 C57.4402721,7.26698739 57.4058395,7.23255482 57.4058395,7.19017628 L57.4058395,5.48973708 C57.4058395,5.44715479 57.4402721,5.41272222 57.4828544,5.41272222 L66.2234297,5.41272222 C66.2633633,5.41272222 66.2957585,5.44491362 66.2955547,5.48484725 L66.2941285,7.13618438 C66.2941285,7.22318264 66.2672344,7.30630979 66.2154837,7.37619365 C65.9247424,7.76595403 64.8467381,9.10739804 63.2235175,9.9091268 L63.2235175,11.8550763 Z M35.7594075,11.0578299 L35.7594075,6.6266231 L30.0833309,6.6266231 C30.037285,6.6266231 30,6.58913439 30,6.54329221 L30,5.28334541 C30,5.23750323 30.037285,5.20001452 30.0833309,5.20001452 L38.5930654,5.20001452 C38.6376851,5.20001452 38.6737476,5.23628077 38.6737476,5.28069675 L38.6737476,6.54573712 C38.6737476,6.59035684 38.6376851,6.6266231 38.5930654,6.6266231 L38.0529426,6.6266231 L38.0529426,12.7254665 C38.0529426,12.7759947 38.0134165,12.8175583 37.9626845,12.8197995 L35.7594075,12.922486 L35.7594075,12.5586009 L31.0176964,12.8106311 C30.9657419,12.8132797 30.9221409,12.7719199 30.9221409,12.7199654 L30.9221409,7.54326292 C30.9221409,7.50903409 30.9496462,7.48132504 30.983875,7.48091756 L34.9807017,7.43752029 C35.0291926,7.43711281 35.0687187,7.47623147 35.0687187,7.5247223 L35.0687187,8.20624269 C35.0687187,8.25391855 35.0302113,8.29303721 34.9825354,8.2934447 L33.215676,8.31259654 L33.215676,9.16770597 L34.9807017,9.14855412 C35.0291926,9.1479429 35.0687187,9.18706155 35.0687187,9.23575613 L35.0687187,9.91707277 C35.0687187,9.96495238 35.0302113,10.0038673 34.9825354,10.0042748 L33.215676,10.0234266 L33.215676,11.1929115 L35.7594075,11.0578299 Z M46.7129783,19.5065841 C46.8001803,19.5285883 46.8490786,19.6194577 46.8197396,19.7044185 C46.7254066,19.9784529 46.5318508,20.5389499 46.4279418,20.843342 C46.3963617,20.9354338 46.3032511,20.9916669 46.2070844,20.9792386 C40.8036159,20.267768 40.2808114,16.8746318 40.2808114,16.8746318 L40.2808114,15.4659526 C40.2808114,15.4659526 41.2589816,15.4305013 42.9828512,15.373657 C44.4339089,15.3257774 45.7739268,15.2198311 46.0915621,15.1935482 C46.1302733,15.1902883 46.1626684,15.2208498 46.1626684,15.2593572 L46.1626684,16.5916328 C46.1626684,16.6456247 46.1198824,16.6898369 46.0660942,16.6916706 L42.7833868,16.7953758 C43.4058217,18.5648839 46.0316617,19.3344212 46.7129783,19.5065841 Z M56.4612054,19.3151879 C56.4960455,19.3312836 56.5133636,19.3710135 56.5003241,19.4068723 L56.020713,20.7261083 C56.0029874,20.7748028 55.9522554,20.8021044 55.9023383,20.7880461 C55.5734971,20.6957506 54.3632636,20.317196 53.1141152,19.4317289 C52.4105906,19.9498474 51.7241803,20.4384231 50.6282467,20.8078092 C50.5308575,20.8406118 50.4220587,20.8057718 50.3613433,20.7230521 L49.6826753,19.7750359 C49.6146252,19.6825365 49.6657647,19.5708854 49.76621,19.5146523 C50.2525446,19.2428591 50.624783,19.0323926 51.705436,18.1717821 C50.6893696,17.0192079 49.8929381,15.4092306 49.8929381,13.1843569 L49.8929381,8.51456699 L49.3297924,8.51456699 C49.2843578,8.51456699 49.2478878,8.47789325 49.2478878,8.43245855 L49.2478878,7.17027058 C49.2478878,7.12483589 49.2843578,7.08795841 49.3297924,7.08795841 L49.8929381,7.08795841 L49.8929381,5.07701486 C49.8929381,5.03443257 49.9273707,5 49.969953,5 L52.1094584,5 C52.1520407,5 52.1864732,5.03443257 52.1864732,5.07701486 L52.1864732,7.08795841 L56.2032668,7.08795841 C56.2442191,7.08795841 56.2772255,7.12096477 56.2772255,7.16191712 L56.2772255,8.44060827 C56.2772255,8.48135688 56.2442191,8.51456699 56.2032668,8.51456699 L52.1864732,8.51456699 L52.1864732,13.1843569 C52.1864732,13.1843569 52.1571343,14.7552155 53.163421,16.4326317 C53.4242121,15.944871 53.6167492,15.3933386 53.6960052,14.7692738 L53.9588337,9.11846128 C53.9610749,9.06874799 54.0020272,9.02983307 54.0517405,9.02983307 L56.1590545,9.02983307 C56.2120277,9.02983307 56.2544063,9.0740453 56.2519613,9.12722223 L55.9897441,14.7692738 C55.9895403,14.7696813 55.8868539,16.4087938 54.54052,18.0774491 C55.0588423,18.5322035 55.6896306,18.9566002 56.4612054,19.3151879 Z M46.7302761,12.7814754 C46.7302761,12.8311887 46.6836189,12.8692887 46.6347206,12.860324 C45.0632507,12.5718239 43.8110462,12.0677637 42.8141316,11.4813913 C41.2145452,12.4929753 39.7127555,12.7941075 39.2612609,12.865825 C39.1889322,12.8774384 39.1241419,12.8207978 39.1241419,12.7476541 L39.1241419,11.4500148 C39.1241419,11.400709 39.1553146,11.3569043 39.2013605,11.3395861 C39.9696754,11.0490486 40.6310252,10.6816999 41.1968196,10.2850123 C39.9118124,9.09413437 39.3936939,7.90835003 39.267577,7.58073126 C39.25087,7.537334 39.2834689,7.49210305 39.3301261,7.49210305 L41.4959143,7.49210305 C41.5539811,7.49210305 41.6034906,7.52938802 41.6224387,7.58419489 C41.8015288,8.10475829 42.1723411,8.59129661 42.6350415,9.03240023 C43.6144342,7.9806788 44.0202903,7.05079568 44.0202903,7.05079568 L39.2103252,7.05079568 C39.1626493,7.05079568 39.1241419,7.01228825 39.1241419,6.96461239 L39.1241419,5.71077788 C39.1241419,5.66310201 39.1626493,5.62439084 39.2103252,5.62439084 L46.5257181,5.62439084 L46.5257181,6.68263205 C46.5257181,6.88535635 46.4625578,7.20401043 46.3780044,7.38778663 C45.8211748,8.59965007 45.1033881,9.5452214 44.3369069,10.2858273 C45.3560295,10.8931852 46.3303285,11.2970038 46.6337019,11.417416 C46.6931949,11.4410501 46.7302761,11.4976907 46.7302761,11.561666 L46.7302761,12.7814754 Z M30.5701137,17.2007429 C30.5538143,17.1414537 30.5953778,17.0823682 30.656297,17.0750335 C33.0191047,16.7861259 34.1741239,15.7274772 34.5180421,15.3493301 C34.5928158,15.2672217 34.7075231,15.2380864 34.813062,15.2719078 L36.6489903,15.8592989 C36.774496,15.8992325 36.8258392,16.0544847 36.743527,16.1571712 C35.0661108,18.2475745 31.8388214,18.4613009 31.0831386,18.4822865 C30.9881944,18.4851389 30.905271,18.4227935 30.8800068,18.3313129 L30.5701137,17.2007429 Z M30.4829728,19.7986701 C30.4658584,19.7298049 30.5167942,19.6633847 30.5876967,19.6589024 C33.4714753,19.4763486 35.019311,18.0529999 35.3891046,17.6662957 C35.4384104,17.6147487 35.5197039,17.6157674 35.5683984,17.6677219 L36.6845027,18.8581923 C36.7340122,18.9109618 36.732586,18.9953114 36.6792054,19.0440059 C34.721235,20.8422418 30.7170735,20.74852 30.7170735,20.74852 L30.4829728,19.7986701 Z" id="juhaoke"></path>
                    </g>
                </g>
            </g>
        </g>
    </g>
</svg>