<?xml version="1.0" encoding="UTF-8"?>
<svg width="18px" height="25px" viewBox="0 0 18 25" version="1.1" xmlns="http://www.w3.org/2000/svg" xmlns:xlink="http://www.w3.org/1999/xlink">
    <!-- Generator: Sketch 48.2 (47327) - http://www.bohemiancoding.com/sketch -->
    <title>leaderboard_no2</title>
    <desc>Created with Sketch.</desc>
    <defs>
        <circle id="path-1" cx="9" cy="17" r="8"></circle>
    </defs>
    <g id="经营-目标管理-关注微信客户数" stroke="none" stroke-width="1" fill="none" fill-rule="evenodd" transform="translate(-231.000000, -407.000000)">
        <g id="Content" transform="translate(192.000000, 72.000000)">
            <g id="table" transform="translate(0.000000, 211.000000)">
                <g id="Row" transform="translate(0.000000, 102.000000)">
                    <g id="leaderboard_no2" transform="translate(39.000000, 22.000000)">
                        <g>
                            <path d="M1,0 L6,0 L6,14 L0.552786405,11.2763932 C0.214002376,11.1070012 4.63861989e-17,10.7607381 0,10.381966 L0,1 C-6.76353751e-17,0.44771525 0.44771525,1.01453063e-16 1,0 Z" id="Rectangle-21" fill="#FF6464"></path>
                            <rect id="Rectangle-21" fill="#FAFAFA" x="6" y="0" width="6" height="14"></rect>
                            <path d="M12,0 L17,0 C17.5522847,-1.01453063e-16 18,0.44771525 18,1 L18,10.381966 C18,10.7607381 17.7859976,11.1070012 17.4472136,11.2763932 L12,14 L12,0 Z" id="Rectangle-21" fill="#469AFF"></path>
                            <g id="Oval-2">
                                <use fill="#D0D4E1" fill-rule="evenodd" xlink:href="#path-1"></use>
                                <circle stroke="#EFF0F5" stroke-width="2" cx="9" cy="17" r="7"></circle>
                            </g>
                            <path d="M12.0344401,21 L6.77613932,21 L6.77613932,20.1030273 L9.38111979,17.2617188 C9.75709823,16.8427713 10.0247551,16.4927586 10.1840983,16.2116699 C10.3434415,15.9305813 10.423112,15.6486017 10.423112,15.3657227 C10.423112,14.993325 10.3183767,14.6925467 10.108903,14.4633789 C9.89942929,14.2342111 9.61744969,14.1196289 9.26295573,14.1196289 C8.84042757,14.1196289 8.51279413,14.2485339 8.28004557,14.5063477 C8.04729701,14.7641614 7.93092448,15.1168597 7.93092448,15.5644531 L6.62574869,15.5644531 C6.62574869,15.0882138 6.73406467,14.6594257 6.95069987,14.2780762 C7.16733506,13.8967266 7.47706504,13.6004242 7.87989908,13.3891602 C8.28273313,13.1778961 8.74732809,13.0722656 9.27369791,13.0722656 C10.0328163,13.0722656 10.6316873,13.2629375 11.0703288,13.6442871 C11.5089703,14.0256367 11.7282878,14.5528938 11.7282878,15.2260742 C11.7282878,15.6163756 11.6181814,16.0254699 11.3979655,16.4533691 C11.1777495,16.8812684 10.8169947,17.3673475 10.3156901,17.9116211 L8.40358073,19.9580078 L12.0344401,19.9580078 L12.0344401,21 Z" id="2" fill="#FFFFFF"></path>
                        </g>
                    </g>
                </g>
            </g>
        </g>
    </g>
</svg>