<?xml version="1.0" encoding="UTF-8"?>
<svg width="18px" height="25px" viewBox="0 0 18 25" version="1.1" xmlns="http://www.w3.org/2000/svg" xmlns:xlink="http://www.w3.org/1999/xlink">
    <!-- Generator: Sketch 48.2 (47327) - http://www.bohemiancoding.com/sketch -->
    <title>leaderboard_no3</title>
    <desc>Created with Sketch.</desc>
    <defs>
        <circle id="path-1" cx="9" cy="17" r="8"></circle>
    </defs>
    <g id="经营-目标管理-关注微信客户数" stroke="none" stroke-width="1" fill="none" fill-rule="evenodd" transform="translate(-231.000000, -476.000000)">
        <g id="Content" transform="translate(192.000000, 72.000000)">
            <g id="table" transform="translate(0.000000, 211.000000)">
                <g id="Row" transform="translate(0.000000, 171.000000)">
                    <g id="leaderboard_no3" transform="translate(39.000000, 22.000000)">
                        <g>
                            <path d="M1,0 L6,0 L6,14 L0.552786405,11.2763932 C0.214002376,11.1070012 4.63861989e-17,10.7607381 0,10.381966 L0,1 C-6.76353751e-17,0.44771525 0.44771525,1.01453063e-16 1,0 Z" id="Rectangle-21" fill="#FF6464"></path>
                            <rect id="Rectangle-21" fill="#FAFAFA" x="6" y="0" width="6" height="14"></rect>
                            <path d="M12,0 L17,0 C17.5522847,-1.01453063e-16 18,0.44771525 18,1 L18,10.381966 C18,10.7607381 17.7859976,11.1070012 17.4472136,11.2763932 L12,14 L12,0 Z" id="Rectangle-21" fill="#469AFF"></path>
                            <g id="Oval-2">
                                <use fill="#B17B48" fill-rule="evenodd" xlink:href="#path-1"></use>
                                <circle stroke="#CE9664" stroke-width="2" cx="9" cy="17" r="7"></circle>
                            </g>
                            <path d="M8.28541666,16.4936523 L9.08033854,16.4936523 C9.48138221,16.4900716 9.79916875,16.3862315 10.0337077,16.1821289 C10.2682466,15.9780263 10.3855143,15.6826191 10.3855143,15.2958984 C10.3855143,14.9235007 10.2879404,14.6343598 10.0927897,14.4284668 C9.89763899,14.2225738 9.59954627,14.1196289 9.1985026,14.1196289 C8.84758939,14.1196289 8.55934357,14.2207835 8.33375651,14.4230957 C8.10816944,14.6254079 7.9953776,14.889484 7.9953776,15.215332 L6.69020182,15.215332 C6.69020182,14.8142884 6.79672745,14.4490576 7.0097819,14.1196289 C7.22283635,13.7902002 7.5200339,13.5332854 7.90138346,13.348877 C8.28273302,13.1644685 8.70973071,13.0722656 9.18238932,13.0722656 C9.96299218,13.0722656 10.5761859,13.2683086 11.0219889,13.6604004 C11.4677919,14.0524922 11.6906901,14.5976528 11.6906901,15.2958984 C11.6906901,15.6468117 11.5787934,15.9771306 11.3549967,16.2868652 C11.1312,16.5965999 10.8420591,16.8302401 10.4875651,16.987793 C10.9172547,17.1346036 11.243993,17.3655583 11.4677897,17.6806641 C11.6915864,17.9957698 11.8034831,18.3717426 11.8034831,18.8085938 C11.8034831,19.5104202 11.5626814,20.0690083 11.081071,20.484375 C10.5994605,20.8997417 9.96657293,21.1074219 9.18238932,21.1074219 C8.43043243,21.1074219 7.81455318,20.906903 7.33473307,20.5058594 C6.85491296,20.1048157 6.61500651,19.5712924 6.61500651,18.9052734 L7.92018229,18.9052734 C7.92018229,19.2490252 8.03565965,19.5283192 8.26661783,19.7431641 C8.49757602,19.9580089 8.80820117,20.0654297 9.1985026,20.0654297 C9.60312702,20.0654297 9.92180873,19.9580089 10.1545573,19.7431641 C10.3873058,19.5283192 10.5036784,19.2167989 10.5036784,18.8085938 C10.5036784,18.3968078 10.3819348,18.0799165 10.138444,17.8579102 C9.89495321,17.6359038 9.53330318,17.5249023 9.05348307,17.5249023 L8.28541666,17.5249023 L8.28541666,16.4936523 Z" id="3" fill="#FFFFFF"></path>
                        </g>
                    </g>
                </g>
            </g>
        </g>
    </g>
</svg>