<?xml version="1.0" encoding="UTF-8"?>
<svg width="70px" height="89px" viewBox="0 0 70 89" version="1.1" xmlns="http://www.w3.org/2000/svg" xmlns:xlink="http://www.w3.org/1999/xlink">
    <!-- Generator: Sketch 48.2 (47327) - http://www.bohemiancoding.com/sketch -->
    <title>ranking-list-cover-bg-icon</title>
    <desc>Created with Sketch.</desc>
    <defs></defs>
    <g id="经营-目标管理-关注微信客户数" stroke="none" stroke-width="1" fill="none" fill-rule="evenodd" transform="translate(-1293.000000, -72.000000)" opacity="0.03">
        <g id="Content" transform="translate(192.000000, 72.000000)" fill="#000000" fill-rule="nonzero">
            <g id="ranking-list-cover-bg-icon" transform="translate(1101.000000, 0.000000)">
                <path d="M35.1743285,19.9131576 C16.0602336,19.9131576 0.564862277,35.378661 0.564862277,54.4565788 C0.564862277,73.5342978 16.0602336,89 35.1743285,89 C54.2884235,89 69.7837948,73.5342978 69.7837948,54.4565788 C69.7837948,35.378661 54.2885231,19.9131576 35.1743285,19.9131576 Z M52.9700795,51.3757438 L46.1462206,58.014722 L47.757054,67.3891279 C48.2981148,70.5362612 46.4968694,71.9124238 43.6092201,70.3971043 L35.1744281,65.97092 L26.7396361,70.3971043 C23.9081544,71.8828033 22.0400855,70.5985836 22.5918022,67.3891279 L24.2027353,58.014722 L17.3788763,51.3757438 C15.0881566,49.147245 15.7346809,46.9771921 18.9631198,46.5090284 L28.3934915,45.1413146 L32.6110369,36.6119889 C34.0268773,33.7489345 36.2943931,33.6922778 37.7381181,36.6119889 L41.9556635,45.1413146 L51.3859356,46.5090284 C54.5516342,46.9681469 55.3064105,49.103013 52.9700795,51.3757438 Z M67.5278312,0 L46.1286931,0 C44.9738724,0 44.0480042,0.806911386 43.7764281,1.875239 L37.179729,14.8573876 C37.179729,14.8573876 51.3040744,15.7055491 59.6474448,23.7245664 L69.500069,3.88058973 C69.7920606,3.47544427 70,3.00469627 70,2.46735173 C69.9999004,1.10480661 68.8930811,9.93978057e-05 67.5278312,9.93978057e-05 L67.5278312,0 Z M32.8201714,14.857487 L26.2234723,1.8753384 C25.9518962,0.807010784 25.0261276,0.000198795611 23.8712073,0.000198795611 L2.47216875,0.000198795611 C1.10691894,0.000198795611 0,1.10500541 0,2.46755053 C0,3.00489506 0.207939428,3.47564307 0.500130176,3.88078853 L10.3526548,23.7247652 C18.695826,15.7056485 32.8201714,14.857487 32.8201714,14.857487 Z"></path>
            </g>
        </g>
    </g>
</svg>