<?xml version="1.0" encoding="utf-8"?>
<!-- Generator: Adobe Illustrator 21.0.0, SVG Export Plug-In . SVG Version: 6.00 Build 0)  -->
<svg version="1.1" id="图层_1" xmlns="http://www.w3.org/2000/svg" xmlns:xlink="http://www.w3.org/1999/xlink" x="0px" y="0px"
	 viewBox="0 0 3208.1 494.2" style="enable-background:new 0 0 3208.1 494.2;" xml:space="preserve">
<style type="text/css">
	.st0{fill:#FFC723;}
</style>
<title>cdai-logo</title>
<desc>Created with Sketch.</desc>
<title>cdai-logo</title>
<desc>Created with Sketch.</desc>
<g>
	<path class="st0" d="M1526.3,116.4c-8.1,0-14.1-1.9-17.9-5.7c-3.9-3.8-5.8-9.9-5.8-18.5c0-9.4,1.9-15.9,5.8-19.4
		c3.9-3.5,9.9-5.2,17.9-5.2h292.3c8.1,0,14.1,1.8,18.1,5.2c4,3.5,6.1,10,6.1,19.4c0,8.6-2,14.8-5.9,18.5c-3.9,3.8-9.9,5.7-17.9,5.7
		h-121.4v153.2h144c8.1,0,14,1.8,17.9,5.3c3.9,3.5,5.8,9.9,5.8,19.4c0,8.6-2,14.8-5.8,18.5c-3.9,3.8-9.9,5.6-17.9,5.6h-144v88.7
		c0,8.6-2,14.7-6,18.1c-4,3.5-10.4,5.2-19,5.2c-7.8,0-13.9-1.6-18.4-4.8c-4.4-3.2-6.6-9.4-6.6-18.5v-88.7h-144
		c-8.1,0-14-1.9-17.9-5.6c-3.9-3.8-5.9-9.9-5.9-18.5c0-9.4,2-15.9,5.9-19.4c3.9-3.5,9.9-5.3,17.9-5.3h144V116.4H1526.3z
		 M1614.6,225.2c2.7,8.3,3.3,15.5,2,21.4c-1.4,5.9-6.3,10.5-14.9,13.7c-8.6,3.2-15.4,3.5-20.4,0.8c-5-2.7-9.5-10.1-13.5-22.2
		c-5.6-16.9-11.1-31.6-16.3-44c-5.3-12.4-10.2-23.1-14.7-32.3c-5.4-10.5-7.1-18.6-5.3-24.4s5.9-10.5,12.1-14.3
		c7.5-3.8,14.3-4.6,20.4-2.4c6.1,2.1,11.9,9.3,17.5,21.4c6.2,13.7,12,26.9,17.3,39.7C1604.2,195.5,1609.5,209.6,1614.6,225.2z
		 M1813.8,162.7c-3.5,12.9-8.3,25.9-14.3,38.9c-6.1,13-12.6,25.7-19.6,38.1c-11.6,21.2-25.3,27.4-41.1,18.5
		c-8.9-3.8-13.2-8.8-13.1-15.1s2.9-13.8,8.3-22.4c3.8-5.6,7.1-11.1,10.1-16.3c3-5.2,5.6-10.6,8.1-16.1c2.4-5.5,4.8-11.5,7.1-17.9
		s4.8-13.8,7.5-22.2c3.5-10.7,7.2-18,11.1-21.8c3.9-3.8,10.1-4.7,18.8-2.8c7.8,1.1,13.6,4.6,17.5,10.7
		C1817.9,140.3,1817.8,149.8,1813.8,162.7z"/>
	<path class="st0" d="M2164.5,123.2c-6.7-6.4-10.6-12.9-11.7-19.3c-1.1-6.5,1.6-13.2,8.1-20.2c5.1-4.3,10.7-6.6,16.9-6.9
		c6.2-0.3,13.6,3.8,22.2,12.1c9.4,9.4,18.1,18.3,26.2,26.6c8.1,8.3,15.9,16.7,23.6,25c7.7,8.3,15.3,16.9,22.8,25.8
		c7.5,8.9,15.3,18.5,23.4,29c5.9,7.8,9,14.5,9.3,20.2c0.3,5.6-3.5,11.6-11.3,17.8c-7,5.1-13.2,7.3-18.8,6.4
		c-5.5-0.8-11.4-5.1-17.5-12.9c-3.2-4-6.3-8-9.3-11.9c-3-3.9-5.9-7.7-8.9-11.5l-266.9,12.9c-10.8-0.3-19.5-2.8-26.2-7.7
		c-6.7-4.8-10.1-11.1-10.1-19c0-5.9,1.7-11.7,5-17.3c3.4-5.6,8.5-10.7,15.5-15.3c10.2-6.4,20.8-13.7,31.7-21.6
		c10.9-7.9,21.7-16.3,32.5-25.2c10.7-8.9,21.3-18.1,31.6-27.6c10.4-9.5,20.1-19.1,29.2-28.8c6.2-7.3,12.4-11.3,18.8-12.1
		c6.3-0.8,12,0.5,17.1,4c4.3,3,7.3,6.2,8.9,9.7c1.6,3.5,2.3,7,2,10.5c-0.3,3.5-1.3,6.8-3,10.1c-1.8,3.2-3.8,6.1-6.3,8.5
		c-14,14-28.2,26.9-42.7,38.7c-14.5,11.8-31.1,24.2-49.6,37.1c-6.2,3.8-8.7,5.7-7.5,5.9s4.8,0.2,10.7,0.2c29-1.3,57.7-2.5,85.9-3.4
		c28.2-0.9,56.6-2,85.1-3c-5.7-6.2-11.5-12.2-17.6-18.1c-6-5.9-12.4-12-19.1-18.1V123.2z M2269.4,369.6c0,8.6-0.5,15.7-1.6,21.4
		c-1.1,5.6-3.2,10.2-6.5,13.7c-3.2,3.5-7.9,5.9-13.9,7.3c-6,1.3-14,2-24,2h-210.1c-9.4,0-17.1-0.7-23-2s-10.5-3.6-13.9-6.9
		s-5.6-7.7-6.8-13.3c-1.2-5.6-1.8-12.9-1.8-21.8v-82.7c0-8.6,0.6-15.8,1.8-21.6c1.2-5.8,3.5-10.4,6.8-13.9s8-6,13.9-7.5
		c5.9-1.5,13.6-2.2,23-2.2H2223c8.9,0,16.3,0.6,22.2,1.8c5.9,1.2,10.7,3.5,14.3,6.9s6.2,8,7.7,13.9c1.5,5.9,2.2,13.4,2.2,22.6V369.6
		z M2222.2,297.4c0-5.1-3.2-7.7-9.7-7.7H2025c-6.2,0-9.3,2.6-9.3,7.7v61.3c0,2.7,0.6,4.6,1.8,5.8c1.2,1.2,3.7,1.8,7.5,1.8h187.5
		c6.4,0,9.7-2.6,9.7-7.7V297.4z"/>
	<path class="st0" d="M2414.4,138.9c-14.3,12.6-26.9,13-37.9,1.2c-4.6-4.6-6.3-9.9-5.3-16.1c1.1-6.2,5.5-12.4,13.3-18.5
		c8.6-7,16.3-15,23.2-24.2c6.9-9.1,12.4-18,16.7-26.6c3.8-8.3,8.1-13,13.1-14.1c5-1.1,10.9-0.1,17.9,2.8c6.2,2.7,10.1,6.1,11.9,10.1
		c1.7,4,1.1,9.4-1.8,16.1h81.1c7.8,0,13.7,1.5,17.7,4.4c4,3,6.1,8.2,6.1,15.7c0,7.3-2,12.4-6.1,15.5c-4,3.1-9.9,4.6-17.7,4.6h-31.9
		v0.4c3,10.5,3.4,17.9,1.2,22.2s-7.9,7.3-17.3,8.9c-7.8,1.9-13.8,1.4-17.9-1.4c-4.2-2.8-7.7-9.1-10.7-18.8c-0.5-1.6-1.2-3.3-2-5.2
		c-0.8-1.9-1.5-3.9-2-6.1h-25.4c-4.6,5.9-9.1,11.4-13.5,16.5S2418.4,135.7,2414.4,138.9z M2579.7,138.9c1.1,1.6,2.5,3.9,4.2,6.9
		c1.7,3,3.2,5.6,4.2,8.1h107.3c22.6,0,37.8,2.8,45.8,8.5c7.9,5.6,11.5,14.1,10.7,25.4c-0.3,4.6-1,9.4-2,14.5
		c-1.1,5.1-3.2,11.2-6.4,18.1c-3,8.1-7,13.5-12.1,16.3c-5.1,2.8-12.4,2.8-21.8-0.2c-7-2.7-11.3-6-12.9-10.1s-0.8-10.4,2.4-19
		c2.7-7,3.5-11.5,2.4-13.5c-1.1-2-4.6-3-10.5-3h-250.4c-5.9,0-9.9,0.9-12.1,2.6c-2.1,1.8-3.2,4.9-3.2,9.5v14.5
		c0,6.2-2.1,10.9-6.4,14.1c-4.3,3.2-9.9,4.8-16.9,4.8c-7.8,0-13.8-1.4-17.9-4.2s-6.3-7.5-6.3-13.9v-26.6c0-12.9,3.7-22.4,11.1-28.6
		c7.4-6.2,19.3-9.3,35.7-9.3h107.3c-2.1-4.6-2.4-9.5-0.8-14.9c1.6-5.4,5.8-9.1,12.5-11.3c7.3-2.7,13.8-3.4,19.6-2.2
		C2568.8,126.6,2574.3,131.1,2579.7,138.9z M2716,393c0,11.3-2.9,19.4-8.7,24.4c-5.8,5-16.1,7.4-30.8,7.4h-211.3
		c-15.3,0-25.8-2.5-31.4-7.4c-5.7-5-8.5-13.1-8.5-24.4V244.2c0-10.7,2.9-19,8.7-24.6c5.8-5.6,16.2-8.5,31.2-8.5h188.7
		c15.3,0,25.9,2.8,31.6,8.3s8.7,13.8,8.7,24.8v29.4c0,11.3-2.9,19.5-8.7,24.6c-5.8,5.1-16.3,7.7-31.6,7.7h-183.5v15.3h206
		c14.8,0,25.1,2.4,30.8,7.1c5.8,4.7,8.7,12.7,8.7,24V393z M2649.1,250.2c0-2.4-2-3.6-6.1-3.6h-165.7c-4.6,0-6.9,1.5-6.9,4.4v19.4
		h171.8c4.6,0,6.9-1.8,6.9-5.3V250.2z M2671.2,361.1c0-3.8-2.3-5.6-6.9-5.6h-194v29.4c0,3.2,2.3,4.8,6.9,4.8h187.9
		c4,0,6.1-1.3,6.1-4V361.1z M2574.1,97.4c5.9-7.5,11-14.7,15.3-21.6c4.3-6.9,7.7-12.8,10.1-17.9c4-8.3,8.5-13.5,13.5-15.5
		c5-2,10.9-1.5,17.9,1.4c6.4,3,10.6,6.4,12.5,10.5c1.9,4,1.3,9.4-1.6,16.1h90.3c7.8,0,13.8,1.5,17.9,4.4c4.2,3,6.3,8.2,6.3,15.7
		c0,7.3-2.1,12.3-6.3,15.1s-10.1,4.2-17.9,4.2h-33.9c0,0.8,0.3,1.5,0.8,2c3.2,10.2,3.9,17.5,2,21.8c-1.9,4.3-7.1,7.5-15.7,9.7
		c-7.8,2.1-13.9,2-18.3-0.4c-4.4-2.4-8.4-8.5-11.9-18.1c-0.8-2.1-1.7-4.4-2.6-6.9c-1-2.4-2-5.1-3-8.1h-30.6
		c-1.9,2.7-4.2,5.7-6.9,9.1c-2.7,3.4-5.1,6.4-7.3,9.1c-1.6,1.6-3.5,3.1-5.6,4.4c-2.2,1.3-4.6,2.2-7.3,2.6c-2.7,0.4-5.5,0.1-8.5-0.8
		c-3-0.9-6-2.9-9.3-5.8c-4.3-3.8-6.7-8.3-7.1-13.7C2566.6,109.4,2569,103.6,2574.1,97.4z"/>
	<path class="st0" d="M2958.1,330.9c2.7,6.4,2.9,12.5,0.6,18.1c-2.3,5.6-6.1,10.3-11.5,14.1c-7,5.6-14.9,11.2-23.6,16.5
		c-8.7,5.4-17.6,10.3-26.6,14.9c-9,4.6-17.7,8.6-26,12.1s-15.5,6.2-21.4,8.1c-9.4,3.8-15.9,4.2-19.4,1.2c-3.5-3-6.3-8.5-8.5-16.5
		c-2.2-7-1.5-13.3,2-19c3.5-5.6,8.6-9.5,15.3-11.7c4.6-1.3,9.3-3.1,14.1-5.2c4.8-2.2,10.6-4.7,17.3-7.7V253.4h-23
		c-7.5,0-12.6-2.1-15.1-6.4c-2.6-4.3-3.8-10.1-3.8-17.3c0-7.8,1.1-13.6,3.4-17.5c2.3-3.9,7.5-5.8,15.5-5.8h23v-87.5h-25.8
		c-7.8,0-13-2.2-15.5-6.6c-2.5-4.4-3.8-10.2-3.8-17.1c0-7.8,1.2-13.7,3.6-17.7c2.4-4,7.7-6.1,15.7-6.1h94.8c7.5,0,12.6,2,15.3,6.1
		c2.7,4,4,9.9,4,17.7c0,7-1.6,12.7-4.6,17.1c-3.1,4.4-8,6.6-14.7,6.6h-26.2v87.5h21.4c7.8,0,13,2,15.5,5.8c2.6,3.9,3.8,9.7,3.8,17.5
		c0,7.3-1.4,13-4.2,17.3s-7.9,6.4-15.1,6.4h-21.4v79c2.1-1.3,4.2-2.7,6-4c1.9-1.3,3.6-2.7,5.3-4c7-5.4,13.4-7.4,19.3-6.1
		C2949.9,319.7,2954.6,323.9,2958.1,330.9z M3010.9,265.6c-14.3,0-23.9-3.4-28.8-10.1c-5-6.7-7.5-17.3-7.5-31.8V100.2
		c0-14.8,2.5-25.4,7.5-31.9c5-6.4,14.6-9.7,28.8-9.7h137.5c13.7,0,23.4,3.2,29,9.7s8.5,17.1,8.5,31.9v123.4
		c0,14.5-2.8,25.1-8.5,31.8c-5.6,6.7-15.3,10.1-29,10.1H3098v32.3h72.2c7.3,0,12.5,1.5,15.7,4.4c3.2,3,4.8,8.5,4.8,16.5
		c0,7.8-1.6,13.3-4.8,16.5c-3.2,3.2-8.5,4.8-15.7,4.8H3098v38.3h87.1c7.8,0,13.6,1.6,17.3,4.8c3.8,3.2,5.6,8.7,5.6,16.5
		c0,14.3-7.7,21.4-23,21.4H2971c-15.6,0-23.4-7.1-23.4-21.4c0-7.8,2-13.3,5.9-16.5c3.9-3.2,9.7-4.8,17.5-4.8h87.9v-38.3h-68.9
		c-7.8,0-13.2-1.6-16.1-4.8c-3-3.2-4.4-8.7-4.4-16.5c0-8.1,1.5-13.6,4.4-16.5c3-3,8.3-4.4,16.1-4.4h68.9v-32.3H3010.9z
		 M3013.3,142.2h45.6v-41.9h-33.1c-4.8,0-8.1,0.7-9.9,2.2c-1.8,1.5-2.6,4.4-2.6,8.7V142.2z M3013.3,210.7c0,8.3,3.8,12.5,11.3,12.5
		h34.3v-40.7h-45.6V210.7z M3147.2,113.1c0-4.8-1-8.2-3-10.1c-2-1.9-6.1-2.8-12.3-2.8H3098v41.9h49.2V113.1z M3147.2,182.5H3098
		v40.7h34.7c6.2,0,10.1-1.2,11.9-3.6c1.7-2.4,2.6-6.7,2.6-12.9V182.5z"/>
</g>
<g>
	<path d="M182.6,221.7c8.5,1.5,16.9,4.1,25.2,7.7c8.3,3.6,15.7,8.7,22.2,15.2c6.5,6.5,11.8,14.7,15.9,24.5
		c4.1,9.8,6.1,21.6,6.1,35.2c0,27.5-8.3,48.9-24.9,64.2c-16.6,15.3-41,22.9-73,22.9H59.6c-8.2,0-14.3-2.1-18.4-6.3
		c-4.1-4.2-6.1-8.9-6.1-14.1V95.6c0-5.1,2.1-9.8,6.3-14.1s10.3-6.3,18.1-6.3h82.6c18.7,0,34.5,2.2,47.2,6.6
		c12.7,4.4,22.9,10.1,30.6,17.2c7.7,7.1,13.2,15.4,16.3,24.7c3.2,9.4,4.8,19,4.8,29c0,10.6-1.5,19.8-4.5,27.7
		c-3,7.9-7.2,14.6-12.5,20.2c-5.3,5.6-11.5,10.1-18.6,13.6C198.4,217.7,190.7,220.2,182.6,221.7z M94.1,196.8h46.7
		c15.4,0,26.2-3.4,32.4-10.2c6.2-6.8,9.3-15.3,9.3-25.6c0-4.5-0.8-8.8-2.3-12.9c-1.5-4.1-3.9-7.8-7.3-11.1c-3.3-3.3-7.6-6-12.9-7.9
		c-5.3-2-11.7-3-19.3-3H94.1V196.8z M94.1,340.6h44.5c17.2,0,30.8-3.5,40.6-10.4c9.8-7,14.6-18.1,14.3-33.6c0-9.4-1.4-17-4.1-22.9
		c-2.7-5.9-6.7-10.6-12-14.1c-5.3-3.5-11.8-5.9-19.5-7.3c-7.7-1.4-16.6-2-26.5-2H94.1V340.6z"/>
	<path d="M516.7,66.2c24.5,0,45.7,4.3,63.7,12.9c18,8.6,32.9,20.4,44.7,35.4c11.8,15,20.6,32.6,26.3,52.8
		c5.7,20.3,8.6,42.2,8.6,65.8c0,23.6-2.9,45.6-8.6,66c-5.8,20.4-14.5,38.1-26.3,53.1c-11.8,15-26.7,26.8-44.7,35.4
		c-18,8.6-39.2,12.9-63.7,12.9c-23.6,0-44.3-4.2-62.2-12.5c-17.8-8.3-32.8-19.9-44.9-34.7c-12.1-14.8-21.2-32.5-27.2-53.1
		c-6-20.6-9.1-42.9-9.1-67.1c0-23.3,2.7-45.1,8.2-65.5c5.4-20.4,14-38.1,25.6-53.1c11.6-15,26.5-26.8,44.5-35.4
		C469.5,70.5,491.2,66.2,516.7,66.2z M516.7,348.8c16,0,29.4-3,40.1-8.9c10.7-5.9,19.4-14,26.1-24.3c6.7-10.3,11.3-22.4,14.1-36.3
		c2.7-13.9,4.1-28.9,4.1-44.9c0-16-1.5-31.1-4.5-45.4c-3-14.2-7.9-26.6-14.5-37.2c-6.7-10.6-15.4-18.9-26.1-24.9
		c-10.7-6.1-23.8-9.1-39.2-9.1s-28.5,3.1-39.2,9.3c-10.7,6.2-19.4,14.5-26.1,24.9s-11.5,22.6-14.5,36.5c-3,13.9-4.5,28.7-4.5,44.4
		c0,14.2,1.4,28.3,4.1,42.2c2.7,13.9,7.4,26.3,14.1,37.2c6.6,10.9,15.3,19.7,26.1,26.3C487.2,345.4,500.6,348.8,516.7,348.8z"/>
	<path d="M850.7,156c0,7,2.1,13,6.3,18.1c4.2,5.2,9.5,9.7,15.7,13.6c6.2,3.9,12.7,7.3,19.5,10c6.8,2.7,12.9,5.3,18.4,7.7
		c13.6,6.1,25.4,12.1,35.4,18.1c10,6.1,18.2,12.6,24.7,19.5c6.5,7,11.2,14.8,14.1,23.6c2.9,8.8,4.2,18.8,3.9,29.9
		c-0.6,29.9-10,54.1-28.1,72.4c-18.1,18.3-45.8,28-83,29.3c-13.6,0.6-26.4-1-38.3-4.8c-12-3.8-22.3-7.9-31.1-12.5
		c-7.9-3.9-14.1-8.4-18.8-13.4c-4.7-5-8.1-10.1-10.2-15.2c-2.1-5.1-3.1-10.1-2.9-15c0.1-4.8,1.4-8.9,3.9-12.2
		c4.2-6.6,9.3-10.4,15.2-11.1c5.9-0.7,11.4,0.5,16.6,3.9c4.5,3,9.3,6.3,14.3,9.7c5,3.5,10.3,6.7,15.9,9.5c5.6,2.9,11.5,5.2,17.7,7
		c6.2,1.8,12.9,2.7,20.2,2.7c6,0,12-1.1,17.9-3.2c5.9-2.1,11.1-5.1,15.7-9.1c4.5-3.9,8.2-8.8,10.9-14.7c2.7-5.9,4.1-12.6,4.1-20.2
		c0-7.3-1.7-13.6-5-19.1c-3.3-5.4-7.3-10.2-12-14.3c-4.7-4.1-9.8-7.5-15.4-10.2c-5.6-2.7-10.7-4.8-15.2-6.3
		c-12.7-4.5-24.6-9.5-35.6-14.7c-11.1-5.3-20.6-11.6-28.8-18.8c-8.2-7.3-14.7-15.9-19.5-25.9c-4.8-10-7.3-21.8-7.3-35.4
		c0-14.5,2.9-27.3,8.8-38.3s13.7-20.2,23.4-27.4c9.7-7.3,20.6-12.7,32.9-16.3c12.2-3.6,24.7-5.3,37.4-5c14.2,0.3,27.4,2.6,39.5,6.8
		c12.1,4.2,22.1,9.5,30.2,15.9c8,6.3,13.5,13.2,16.3,20.6c2.9,7.4,2.3,14.4-1.6,21.1c-2.1,3.3-4.8,6-7.9,7.9c-3.2,2-6.5,3.3-10,4.1
		c-3.5,0.8-6.9,0.8-10.2,0.2c-3.3-0.6-6-1.8-8.2-3.6c-3-2.1-6.5-4.5-10.4-7c-3.9-2.6-8.1-4.9-12.5-7c-4.4-2.1-9.1-3.9-14.1-5.4
		c-5-1.5-10.1-2.3-15.2-2.3c-5.8,0-10.9,1.1-15.4,3.4c-4.5,2.3-8.4,5.2-11.6,8.6c-3.2,3.5-5.7,7.4-7.5,11.8
		C851.6,147.4,850.7,151.7,850.7,156z"/>
	<path d="M1171.7,156c0,7,2.1,13,6.3,18.1c4.2,5.2,9.5,9.7,15.7,13.6c6.2,3.9,12.7,7.3,19.5,10c6.8,2.7,12.9,5.3,18.4,7.7
		c13.6,6.1,25.4,12.1,35.4,18.1c10,6.1,18.2,12.6,24.7,19.5c6.5,7,11.2,14.8,14.1,23.6c2.9,8.8,4.2,18.8,3.9,29.9
		c-0.6,29.9-10,54.1-28.1,72.4c-18.1,18.3-45.8,28-83,29.3c-13.6,0.6-26.4-1-38.3-4.8c-12-3.8-22.3-7.9-31.1-12.5
		c-7.9-3.9-14.1-8.4-18.8-13.4c-4.7-5-8.1-10.1-10.2-15.2c-2.1-5.1-3.1-10.1-2.9-15c0.1-4.8,1.4-8.9,3.9-12.2
		c4.2-6.6,9.3-10.4,15.2-11.1c5.9-0.7,11.4,0.5,16.6,3.9c4.5,3,9.3,6.3,14.3,9.7c5,3.5,10.3,6.7,15.9,9.5c5.6,2.9,11.5,5.2,17.7,7
		c6.2,1.8,12.9,2.7,20.2,2.7c6,0,12-1.1,17.9-3.2c5.9-2.1,11.1-5.1,15.7-9.1c4.5-3.9,8.2-8.8,10.9-14.7c2.7-5.9,4.1-12.6,4.1-20.2
		c0-7.3-1.7-13.6-5-19.1c-3.3-5.4-7.3-10.2-12-14.3c-4.7-4.1-9.8-7.5-15.4-10.2c-5.6-2.7-10.7-4.8-15.2-6.3
		c-12.7-4.5-24.6-9.5-35.6-14.7c-11.1-5.3-20.6-11.6-28.8-18.8c-8.2-7.3-14.7-15.9-19.5-25.9c-4.8-10-7.3-21.8-7.3-35.4
		c0-14.5,2.9-27.3,8.8-38.3c5.9-11,13.7-20.2,23.4-27.4c9.7-7.3,20.6-12.7,32.9-16.3c12.2-3.6,24.7-5.3,37.4-5
		c14.2,0.3,27.4,2.6,39.5,6.8c12.1,4.2,22.1,9.5,30.2,15.9c8,6.3,13.5,13.2,16.3,20.6c2.9,7.4,2.3,14.4-1.6,21.1
		c-2.1,3.3-4.8,6-7.9,7.9c-3.2,2-6.5,3.3-10,4.1c-3.5,0.8-6.9,0.8-10.2,0.2c-3.3-0.6-6-1.8-8.2-3.6c-3-2.1-6.5-4.5-10.4-7
		c-3.9-2.6-8.1-4.9-12.5-7c-4.4-2.1-9.1-3.9-14.1-5.4c-5-1.5-10.1-2.3-15.2-2.3c-5.8,0-10.9,1.1-15.4,3.4s-8.4,5.2-11.6,8.6
		c-3.2,3.5-5.7,7.4-7.5,11.8C1172.6,147.4,1171.7,151.7,1171.7,156z"/>
</g>
</svg>
