<?xml version="1.0" encoding="UTF-8"?>
<svg width="32px" height="32px" viewBox="0 0 32 32" version="1.1" xmlns="http://www.w3.org/2000/svg" xmlns:xlink="http://www.w3.org/1999/xlink">
    <!-- Generator: Sketch 48.1 (47250) - http://www.bohemiancoding.com/sketch -->
    <title>cloud-upload</title>
    <desc>Created with Sketch.</desc>
    <defs></defs>
    <g id="营销-创建活动海报" stroke="none" stroke-width="1" fill="none" fill-rule="evenodd" transform="translate(-561.000000, -485.000000)">
        <g id="form-row" transform="translate(256.000000, 369.000000)" stroke="#DDDDDD" stroke-width="2">
            <g id="cloud-upload" transform="translate(305.000000, 116.000000)">
                <path d="M16,30 L16,14" id="Shape"></path>
                <polyline id="Shape" stroke-linecap="square" points="11 19 16 14 21 19"></polyline>
                <path d="M20,23 L26,23 C28.8,22.7 31,20.4 31,17.5 C31,14.6 28.8,12.3 26,12 C25.5,7 21.2,3 16,3 C11.5,3 7.7,6 6.4,10.1 C3.4,10.6 1,13.3 1,16.5 C1,19.9 3.6,22.7 7,23 L12,23" id="Shape" stroke-linecap="square"></path>
            </g>
        </g>
    </g>
</svg>