<?xml version="1.0" standalone="no"?><!DOCTYPE svg PUBLIC "-//W3C//DTD SVG 1.1//EN" "http://www.w3.org/Graphics/SVG/1.1/DTD/svg11.dtd"><svg t="1542264459520" class="icon" style="" viewBox="0 0 1024 1024" version="1.1" xmlns="http://www.w3.org/2000/svg" p-id="5881" xmlns:xlink="http://www.w3.org/1999/xlink" width="200" height="200"><defs><style type="text/css"></style></defs><path d="M862.848 193.344l-36.288-36.16C807.296 137.728 781.568 127.872 756.288 128c-25.344 0-51.072 9.728-70.4 29.12L226.88 616.064c-13.696 13.76-64.832 206.784-68.16 211.328l-12.672 50.752 50.688-12.736c4.416-3.328 197.44-54.592 211.2-68.224l459.008-459.072C886.336 318.72 896.064 293.12 896 267.776 896.064 242.496 882.176 212.608 862.848 193.344zM363.456 752.768c0.832 4.032-150.272 58.048-150.656 57.664 0.384 0.384 54.528-150.656 58.56-150.016l349.056-349.056 92.224 92.16L363.456 752.768zM822.528 293.696l-65.408 65.408-92.096-92.16 65.344-65.408c7.232-7.168 16.448-10.688 25.984-10.752 9.344 0.128 18.56 3.584 25.856 10.752l36.16 36.224c7.168 7.296 14.848 20.544 14.784 30.016C833.28 277.312 829.696 286.528 822.528 293.696z" p-id="5882" fill="#8a8a8a"></path></svg>