<?xml version="1.0" encoding="UTF-8"?>
<svg width="200px" height="200px" viewBox="0 0 200 200" version="1.1" xmlns="http://www.w3.org/2000/svg" xmlns:xlink="http://www.w3.org/1999/xlink">
    <!-- Generator: Sketch 52.4 (67378) - http://www.bohemiancoding.com/sketch -->
    <title>开关轮次</title>
    <desc>Created with Sketch.</desc>
    <g id="Page-1" stroke="none" stroke-width="1" fill="none" fill-rule="evenodd">
        <g id="开关轮次" fill="#FFFFFF" fill-rule="nonzero">
            <path d="M134.285714,115.357143 L66.4285715,115.357143 C52.857143,115.357143 42.1428572,126.428571 42.1428572,139.642857 L42.1428572,142.142857 C42.1428572,155.714286 53.2142857,166.428571 66.4285715,166.428571 L134.285714,166.428571 C147.857143,166.428571 158.571429,155.357143 158.571429,142.142857 L158.571429,139.642857 C158.571429,126.071429 147.5,115.357143 134.285714,115.357143 Z M67.5,158.214286 C57.8571428,158.214286 50.3571428,150.714286 50.3571428,141.071429 C50.3571428,131.428571 57.8571428,123.928571 67.5,123.928571 C77.1428572,123.928571 84.6428572,131.428571 84.6428572,141.071429 C84.6428572,150.714286 77.1428572,158.214286 67.5,158.214286 Z M65.7142857,84.2857143 L133.571429,84.2857143 C147.142857,84.2857143 157.857143,73.2142857 157.857143,60 L157.857143,57.5 C157.857143,43.9285715 146.785714,33.2142857 133.571429,33.2142857 L65.7142857,33.2142857 C52.1428572,33.2142857 41.4285715,44.2857143 41.4285715,57.5 L41.4285715,60 C41.4285715,73.5714285 52.5,84.2857143 65.7142857,84.2857143 Z M132.5,41.7857143 C142.142857,41.7857143 149.642857,49.2857143 149.642857,58.9285715 C149.642857,68.5714287 142.142857,76.0714287 132.5,76.0714285 C122.857143,76.0714285 115.357143,68.5714285 115.357143,58.9285715 C115.357143,49.2857145 122.857143,41.7857143 132.5,41.7857143 Z" id="Shape"></path>
            <path d="M172.5,0 L27.8571428,0 C12.5,0 8.52651283e-14,12.5 8.52651283e-14,27.8571428 L8.52651283e-14,172.142857 C8.52651283e-14,187.5 12.5,200 27.8571428,200 L172.142857,200 C187.5,200 200,187.5 200,172.142857 L200,27.8571428 C200,12.5 187.5,0 172.5,0 Z M34.2857143,57.5 C34.2857143,40.3571428 48.2142857,26.0714285 65.7142857,26.0714285 L133.571429,26.0714285 C150.714286,26.0714285 165,40 165,57.5 L165,60 C165,77.1428572 150.714286,91.4285715 133.571429,91.4285715 L65.7142857,91.4285715 C48.5714285,91.4285715 34.2857143,77.5 34.2857143,60 L34.2857143,57.5 Z M165.714286,142.142857 C165.714286,159.285714 151.428571,173.571429 134.285714,173.571429 L66.4285715,173.571429 C49.2857143,173.571429 35,159.642857 35,142.142857 L35,139.642857 C35,122.5 48.9285715,108.214286 66.4285715,108.214286 L134.285714,108.214286 C151.428571,108.214286 165.714286,122.142857 165.714286,139.642857 L165.714286,142.142857 Z" id="Shape"></path>
        </g>
    </g>
</svg>