<?xml version="1.0" encoding="UTF-8"?>
<svg width="92px" height="92px" viewBox="0 0 92 92" version="1.1" xmlns="http://www.w3.org/2000/svg" xmlns:xlink="http://www.w3.org/1999/xlink">
    <!-- Generator: Sketch 50.2 (55047) - http://www.bohemiancoding.com/sketch -->
    <title>Group</title>
    <desc>Created with Sketch.</desc>
    <defs>
        <linearGradient x1="25.1798595%" y1="7.5200338%" x2="75.4688606%" y2="93.4809494%" id="linearGradient-1">
            <stop stop-color="#FFB60D" offset="0%"></stop>
            <stop stop-color="#FFCD57" offset="100%"></stop>
        </linearGradient>
        <rect id="path-2" x="0" y="0" width="60" height="60" rx="30"></rect>
        <filter x="-45.0%" y="-35.0%" width="190.0%" height="190.0%" filterUnits="objectBoundingBox" id="filter-4">
            <feOffset dx="0" dy="6" in="SourceAlpha" result="shadowOffsetOuter1"></feOffset>
            <feGaussianBlur stdDeviation="8" in="shadowOffsetOuter1" result="shadowBlurOuter1"></feGaussianBlur>
            <feColorMatrix values="0 0 0 0 1   0 0 0 0 0.780392157   0 0 0 0 0.137254902  0 0 0 0.2 0" type="matrix" in="shadowBlurOuter1"></feColorMatrix>
        </filter>
        <linearGradient x1="96.4866329%" y1="50.535869%" x2="2.28504335%" y2="64.9037693%" id="linearGradient-5">
            <stop stop-color="#FFFFFF" offset="0%"></stop>
            <stop stop-color="#FFE09A" offset="100%"></stop>
        </linearGradient>
    </defs>
    <g id="企业微信" stroke="none" stroke-width="1" fill="none" fill-rule="evenodd">
        <g id="车店AI企业微信-管理设置" transform="translate(-441.000000, -243.000000)">
            <g id="Group" transform="translate(457.000000, 253.000000)">
                <g id="wechat-ent">
                    <g id="app-icon/maintenance-mini">
                        <mask id="mask-3" fill="white">
                            <use xlink:href="#path-2"></use>
                        </mask>
                        <g id="Mask">
                            <use fill="black" fill-opacity="1" filter="url(#filter-4)" xlink:href="#path-2"></use>
                            <use fill="url(#linearGradient-1)" fill-rule="evenodd" xlink:href="#path-2"></use>
                        </g>
                        <g mask="url(#mask-3)" fill="url(#linearGradient-1)" id="Mask">
                            <rect x="0" y="0" width="60" height="60"></rect>
                        </g>
                    </g>
                </g>
                <path d="M45.9959922,31.131195 C45.996931,31.6955977 45.7739181,32.2377246 45.3755163,32.6374921 C44.9771144,33.0375155 44.4360116,33.2629181 43.8716089,33.263857 L42.406364,33.263857 L42.4037183,33.2765737 C42.0282748,33.3282089 41.7085633,33.5749484 41.5632166,33.9249583 L40.8678056,35.4595907 C40.7111077,35.8359729 40.7807513,36.2684284 41.0471206,36.5767887 L41.0208336,36.622791 L42.0210203,37.627245 C42.8524751,38.4630526 42.8524751,39.8133345 42.0210203,40.649142 L40.5143819,42.1600478 C39.6822443,42.9948311 38.3340107,42.9948311 37.5022145,42.161328 L36.489055,41.1444986 L36.462768,41.1595197 C36.1673805,40.9627938 35.7936441,40.9258384 35.4652271,41.0608581 L33.8889451,41.6535961 C33.5389353,41.79826 33.2909156,42.1163499 33.2362079,42.4911105 L33.1988257,42.5007548 L33.1988257,43.8603396 C33.1988257,43.9283615 33.1945583,43.998005 33.1891814,44.0646614 L33.1848287,44.0996538 C33.0651716,45.1798964 32.1529781,45.998037 31.0658224,46 L28.9415245,46 C27.7615961,45.9976956 26.8071556,45.0398413 26.8084358,43.8603396 L26.8084358,42.4774549 C26.7514237,42.461751 26.6941556,42.4454496 26.6373996,42.4283802 C26.547102,42.1130214 26.3190536,41.8552721 26.017009,41.7272509 L24.4753781,41.0204887 C24.1623237,40.8881148 23.8053153,40.9118414 23.5125736,41.0844993 L23.4609384,41.0538596 L22.464763,42.0543023 C21.6329668,42.889171 20.2847332,42.889171 19.4525957,42.0543023 L17.9460426,40.5421163 C17.1151852,39.7052846 17.1151852,38.3554294 17.9460426,37.5185977 L18.9948773,36.4667758 L18.9378652,36.3653831 C19.0578637,36.0967093 19.0631553,35.790312 18.9518622,35.5179683 L18.3647571,33.9346879 C18.2480872,33.6462989 18.010992,33.423286 17.7162873,33.3239416 C17.6996445,33.259931 17.6816362,33.1959204 17.6662737,33.1305442 L16.1247281,33.1305442 C15.5602401,33.1298615 15.0192227,32.9048003 14.6208208,32.5051182 C14.2224189,32.1050094 13.9989793,31.5633091 14.0000035,30.9988211 L14.0017105,28.8661592 C14.0003449,28.3014152 14.2236992,27.7596296 14.622101,27.3596061 C15.0205029,26.9598387 15.5616057,26.7344361 16.1260083,26.7331559 L17.7566566,26.7331559 L17.7802978,26.6484912 C18.0410343,26.5390758 18.2484286,26.3317669 18.3577587,26.0710304 L19.0618751,24.5281193 C19.1782036,24.249716 19.1725707,23.9353813 19.0465125,23.6613307 L19.1258857,23.5235799 L17.9766823,22.3701092 C17.1452275,21.5343017 17.1452275,20.1840198 17.9766823,19.3482976 L19.4832354,17.8360262 C19.88232,17.435576 20.4241056,17.2102588 20.9895324,17.2102588 C21.5546179,17.2102588 22.0966595,17.435576 22.4954027,17.8360262 L23.2008847,18.544154 C23.2969006,18.7111789 23.4319202,18.8444916 23.5905811,18.9364962 L23.6836099,19.0282447 L23.7283319,19.0032379 C23.9866786,19.1078738 24.2757504,19.1071911 24.5337558,19.0018723 L26.1086721,18.4130603 C26.3974025,18.2957076 26.6197326,18.0576735 26.7181382,17.76203 L26.7987916,17.7400103 L26.7987916,16.1397458 L26.8014373,16.0743696 L26.8461594,15.6960244 C27.0532123,14.7088105 27.9229881,14.0017069 28.9317949,14 L31.0548126,14 C32.2333754,14 33.1875598,14.9585371 33.1875598,16.1397458 L33.1875598,17.2082104 C33.0421278,17.7272936 33.3049126,18.2737733 33.8012933,18.4841547 L35.3261961,19.1799071 C35.68824,19.3336178 36.1056743,19.2736186 36.4100233,19.0242333 L36.4420286,19.0422417 L37.4619305,18.0167068 L37.976661,17.6062709 C38.8104202,17.122863 39.8653146,17.2625767 40.5447656,17.9456977 L42.0502945,19.4566035 C42.8824321,20.2927524 42.8824321,21.6439731 42.0502945,22.480122 L40.9928397,23.5429538 C40.996851,23.5516592 41.0014597,23.5599379 41.0068366,23.5679606 C40.7964552,23.8680422 40.7527573,24.2544101 40.8914469,24.5934955 L41.4799175,26.1726792 C41.6308971,26.5430871 41.9759569,26.7984467 42.3743587,26.8348047 L42.384003,26.8681755 L43.8229609,26.8681755 L44.382072,26.9321861 C45.3319037,27.1682572 45.9982966,28.0210488 45.9972724,28.9998133 L45.9959922,31.131195 Z M29.9986379,24.2747228 C26.8127886,24.2800996 24.2340155,26.86681 24.2387096,30.0530008 C24.2360639,31.5832804 24.8415186,33.0518539 25.9216759,34.1356811 C27.0021745,35.2195083 28.4684436,35.8296572 29.9986379,35.8323029 C31.5289176,35.8296572 32.9955281,35.2195083 34.0756854,34.1356811 C35.1558426,33.0518539 35.7612974,31.5832804 35.7589076,30.0530008 C35.7632604,26.86681 33.1848287,24.2800996 29.9986379,24.2747228 Z" id="Fill-1" fill="url(#linearGradient-5)"></path>
            </g>
        </g>
    </g>
</svg>