<?xml version="1.0" encoding="UTF-8"?>
<svg width="22px" height="20px" viewBox="0 0 22 20" version="1.1" xmlns="http://www.w3.org/2000/svg" xmlns:xlink="http://www.w3.org/1999/xlink">
    <!-- Generator: Sketch 48.2 (47327) - http://www.bohemiancoding.com/sketch -->
    <title>icon_select_car 1</title>
    <desc>Created with Sketch.</desc>
    <defs></defs>
    <g id="车检助手首页-已注册" stroke="none" stroke-width="1" fill="none" fill-rule="evenodd" transform="translate(-44.000000, -505.000000)">
        <g id="Group-3" transform="translate(15.000000, 471.000000)" fill="#BFC5CD">
            <g id="icon_select_car" transform="translate(26.000000, 30.000000)">
                <path d="M7.32572998,11 L20.67427,11 L19.2456986,6 L8.75430141,6 L7.32572998,11 Z M22.8896106,11.4735822 C24.1458262,12.1481306 25,13.4743138 25,15 L25,19 C25,19.5522847 24.5522847,20 24,20 L4,20 C3.44771525,20 3,19.5522847 3,19 L3,15 C3,13.4743138 3.85417375,12.1481306 5.11038938,11.4735822 L7.03847605,4.72527887 C7.16113364,4.29597731 7.55351964,4 8,4 L20,4 C20.4464804,4 20.8388664,4.29597731 20.9615239,4.72527887 L22.8896106,11.4735822 Z M7.5,18 C8.32842712,18 9,17.3284271 9,16.5 C9,15.6715729 8.32842712,15 7.5,15 C6.67157288,15 6,15.6715729 6,16.5 C6,17.3284271 6.67157288,18 7.5,18 Z M20.5,18 C21.3284271,18 22,17.3284271 22,16.5 C22,15.6715729 21.3284271,15 20.5,15 C19.6715729,15 19,15.6715729 19,16.5 C19,17.3284271 19.6715729,18 20.5,18 Z M18,21 L23,21 L23,23 C23,23.5522847 22.5522847,24 22,24 L19,24 C18.4477153,24 18,23.5522847 18,23 L18,21 Z M5,21 L10,21 L10,23 C10,23.5522847 9.55228475,24 9,24 L6,24 C5.44771525,24 5,23.5522847 5,23 L5,21 Z" id="Combined-Shape"></path>
            </g>
        </g>
    </g>
</svg>