<?xml version="1.0" encoding="UTF-8"?>
<svg width="16px" height="16px" viewBox="0 0 16 16" version="1.1" xmlns="http://www.w3.org/2000/svg" xmlns:xlink="http://www.w3.org/1999/xlink">
    <!-- Generator: Sketch 48.1 (47250) - http://www.bohemiancoding.com/sketch -->
    <title>my-location</title>
    <desc>Created with Sketch.</desc>
    <defs></defs>
    <g id="经营-门店-创建编辑门店" stroke="none" stroke-width="1" fill="none" fill-rule="evenodd" transform="translate(-387.000000, -810.000000)">
        <g id="form-row" transform="translate(256.000000, 537.000000)" fill="#444444" fill-rule="nonzero">
            <g id="Button" transform="translate(120.000000, 264.000000)">
                <g id="tail-up" transform="translate(11.000000, 9.000000)">
                    <g id="my-location">
                        <path d="M8,5.45454545 C6.59363636,5.45454545 5.45454545,6.59363636 5.45454545,8 C5.45454545,9.40636364 6.59363636,10.5454545 8,10.5454545 C9.40636364,10.5454545 10.5454545,9.40636364 10.5454545,8 C10.5454545,6.59363636 9.40636364,5.45454545 8,5.45454545 Z M13.6890909,7.36363636 C13.3963636,4.71 11.29,2.60363636 8.63636364,2.31090909 L8.63636364,1 L7.36363636,1 L7.36363636,2.31090909 C4.71,2.60363636 2.60363636,4.71 2.31090909,7.36363636 L1,7.36363636 L1,8.63636364 L2.31090909,8.63636364 C2.60363636,11.29 4.71,13.3963636 7.36363636,13.6890909 L7.36363636,15 L8.63636364,15 L8.63636364,13.6890909 C11.29,13.3963636 13.3963636,11.29 13.6890909,8.63636364 L15,8.63636364 L15,7.36363636 L13.6890909,7.36363636 Z M8,12.4545455 C5.53727273,12.4545455 3.54545455,10.4627273 3.54545455,8 C3.54545455,5.53727273 5.53727273,3.54545455 8,3.54545455 C10.4627273,3.54545455 12.4545455,5.53727273 12.4545455,8 C12.4545455,10.4627273 10.4627273,12.4545455 8,12.4545455 Z" id="Shape"></path>
                    </g>
                </g>
            </g>
        </g>
    </g>
</svg>