<?xml version="1.0" encoding="UTF-8"?>
<svg width="12px" height="12px" viewBox="0 0 12 12" version="1.1" xmlns="http://www.w3.org/2000/svg" xmlns:xlink="http://www.w3.org/1999/xlink">
    <!-- Generator: Sketch 49.1 (51147) - http://www.bohemiancoding.com/sketch -->
    <title>icons/12px/notes</title>
    <desc>Created with Sketch.</desc>
    <defs>
        <rect id="path-1" x="0" y="0" width="12" height="12"></rect>
        <linearGradient x1="0%" y1="0%" x2="100%" y2="100%" id="linearGradient-3">
            <stop stop-color="#FFBD39" offset="0%"></stop>
            <stop stop-color="#FFD762" offset="100%"></stop>
        </linearGradient>
    </defs>
    <g id="Operate" stroke="none" stroke-width="1" fill="none" fill-rule="evenodd">
        <g id="经营-车检档案-查看报告" transform="translate(-990.000000, -377.000000)">
            <g id="report" transform="translate(932.000000, 0.000000)">
                <g id="report-detail-card" transform="translate(44.000000, 283.000000)">
                    <g id="note" transform="translate(14.000000, 94.000000)">
                        <g id="tips-line">
                            <g id="icons/12px/notes">
                                <g>
                                    <mask id="mask-2" fill="white">
                                        <use xlink:href="#path-1"></use>
                                    </mask>
                                    <g id="nc-rect"></g>
                                    <path d="M9,11 L3,11 C2.448,11 2,10.552 2,10 L2,2 C2,1.448 2.448,1 3,1 L7,1 C7.265,1 7.52,1.105 7.707,1.293 L9.707,3.293 C9.895,3.48 10,3.735 10,4 L10,10 C10,10.552 9.552,11 9,11 Z" id="Shape" fill="url(#linearGradient-3)" fill-rule="nonzero" mask="url(#mask-2)"></path>
                                </g>
                            </g>
                        </g>
                    </g>
                </g>
            </g>
        </g>
    </g>
</svg>