<?xml version="1.0" encoding="UTF-8"?>
<svg width="16px" height="16px" viewBox="0 0 16 16" version="1.1" xmlns="http://www.w3.org/2000/svg" xmlns:xlink="http://www.w3.org/1999/xlink">
    <!-- Generator: Sketch 48.1 (47250) - http://www.bohemiancoding.com/sketch -->
    <title>trash</title>
    <desc>Created with Sketch.</desc>
    <defs></defs>
    <g id="trash" stroke="none" stroke-width="1" fill="none" fill-rule="evenodd">
        <g fill="#999999" fill-rule="nonzero">
            <rect id="Rectangle-path" x="5" y="7" width="2" height="6"></rect>
            <rect id="Rectangle-path" x="9" y="7" width="2" height="6"></rect>
            <path d="M12,1 C12,0.4 11.6,0 11,0 L5,0 C4.4,0 4,0.4 4,1 L4,3 L0,3 L0,5 L1,5 L1,15 C1,15.6 1.4,16 2,16 L14,16 C14.6,16 15,15.6 15,15 L15,5 L16,5 L16,3 L12,3 L12,1 Z M6,2 L10,2 L10,3 L6,3 L6,2 Z M13,5 L13,14 L3,14 L3,5 L13,5 Z" id="Shape"></path>
        </g>
    </g>
</svg>