<svg height="80" viewBox="0 0 94 80" width="94" xmlns="http://www.w3.org/2000/svg"><g fill="none" fill-rule="evenodd" transform=""><path d="m62.4447119 64.8368676c.0283861.0351075.0586336.0692788.0912079.1020458.0563069.0566401.116802.1057906.1800891.149792.1256436.1188974.2508218.2396673.3736733.3632457 2.4165445 2.4308436 3.9354356 5.4224711 4.5585346 8.5582735.010703.1764737.0297822.3524793.057703.5275487.0307129.1928573.0716634.3838421.1228515.5729545.2391881.8819005.7012772 1.7146505 1.3895247 2.4074386 2.1089505 2.1209614 5.5278515 2.1209614 7.636802 0 2.1084852-2.1214294 2.1084852-5.5605606 0-7.6819901-.7436237-.7475558-1.6496534-1.2306351-2.6036138-1.4511102-.1070297-.0248093-.2145248-.0458738-.3220198-.0641297-.1088911-.0182559-.2173169-.0337032-.3266733-.0449376-3.1950693-.5991681-6.249604-2.1406216-8.7210594-4.6267011-.1782277-.1792823-.3508713-.3623094-.5193267-.547677l-.0009307.0004681c-.5039703-.5069524-1.3215842-.5069524-1.8255545 0-.4718614.4746534-.5021089 1.2245497-.0912079 1.7347788" fill="#fb6500"/><path d="m79.5180901 69.0102137c.034901-.0285541.0688713-.0589806.1014455-.0917476.056307-.0566401.1051684-.1174931.1489109-.1811547.1181981-.126387.2382575-.252306.3611089-.3758844 2.4165446-2.4308436 5.3905743-3.9587222 8.5079307-4.5855082.1754357-.0107663.350406-.0299584.5244456-.0580444.1917228-.0308946.3815841-.0720874.5695841-.1235784.8767129-.2406035 1.7045644-.7054268 2.3932773-1.3977468 2.1084851-2.1214295 2.1084851-5.5605607 0-7.6819902-2.1089505-2.1209614-5.5278515-2.1209614-7.636802 0-.7431584.7480239-1.2233961 1.6594148-1.4425743 2.6190199-.0246633.107663-.0456039.2157941-.0637524.3239252-.0181486.1095354-.033505.2186028-.0446733.3286063-.5956436 3.213975-2.1280297 6.2865838-4.5994852 8.7726633-.1782277.1792823-.3601782.3529474-.5444554.5223997l.0004653.0009362c-.5039703.5069523-.5039703 1.3294041 0 1.8363565.4718614.4746535 1.2173466.50508 1.7245743.0917476" fill="#0082ef"/><path d="m83.6668871 51.8358096c-.0283861-.0351075-.0586336-.0692788-.0912079-.1020458-.0563069-.0566401-.116802-.1057906-.1800891-.149792-.1256436-.1188975-.2508218-.2396673-.3736733-.3632457-2.4165445-2.4308436-3.9354356-5.4224711-4.5585346-8.5582735-.010703-.1764737-.0297822-.3524793-.057703-.5275487-.0307129-.1928573-.0716634-.3838421-.1228515-.5729545-.2391881-.8819005-.7012772-1.7146506-1.3895247-2.4074386-2.1089505-2.1209614-5.5278515-2.1209614-7.636802 0-2.1084852 2.1214294-2.1084852 5.5605606 0 7.6819901.7436238.7475558 1.6496535 1.2306351 2.6036139 1.4511102.1070297.0248093.2145247.0458738.3220198.0641297.108891.0182559.2173168.0337032.3266732.0449376 3.1950693.5991681 6.249604 2.1406216 8.7210594 4.6267011.1782277.1792823.3508713.3623094.5193268.547677l.0009307-.0004681c.5039702.5069524 1.3215841.5069524 1.8255544 0 .4718614-.4746534.5021089-1.2245497.0912079-1.7347788" fill="#2dbc00"/><path d="m66.5934624 47.6624635c-.034901.0285541-.0688713.0589806-.1014456.0917476-.0563069.0566401-.1051683.1174931-.1489109.1811547-.118198.126387-.2382574.2523059-.3611089.3758844-2.4165445 2.4308436-5.3905742 3.9587222-8.5079307 4.5855082-.1754356.0107663-.3504059.0299584-.5244455.0580444-.1917228.0308946-.3815842.0720874-.5695842.1235784-.8767128.2406035-1.7045643.7054268-2.3932772 1.3977468-2.1084851 2.1214295-2.1084851 5.5605607 0 7.6819902 2.1089505 2.1209614 5.5278515 2.1209614 7.636802 0 .7431584-.7480239 1.223396-1.6594148 1.4425742-2.6190199.0246634-.107663.045604-.2157941.0637525-.3239252.0181485-.1095355.033505-.2186028.0446733-.3286063.5956436-3.213975 2.1280297-6.2865838 4.5994851-8.7726633.1782278-.1792823.3601783-.3529474.5444555-.5223997l-.0004654-.0009362c.5039703-.5069523.5039703-1.3294041 0-1.8363565-.4718614-.4746535-1.2173465-.50508-1.7245742-.0917476" fill="#fc0"/><path d="m74.6227376 21.1216579c-1.5016732-3.1044396-3.5198812-5.9860636-5.9978515-8.565295-6.2617029-6.51454856-15.0283663-10.71059754-24.6843069-11.81484559-1.7334158-.19800633-3.4514752-.29817974-5.1067129-.29817974-1.5775247 0-3.2225247.09221571-4.889396.27477474-9.6992178 1.06071474-18.5142772 5.23476302-24.82204951 11.75352449-2.48960396 2.5731461-4.5180495 5.4482167-6.03042574 8.5442305-2.05171287 4.2016662-3.09176238 8.6617236-3.09176238 13.2561257 0 5.9153805 1.78925743 11.7479073 5.17465347 16.8679859 1.91443564 2.8956669 5.18814856 6.638127 7.99046536 8.9313492l-1.5519307 6.4574404-.447198 1.8185687c-.0786436.1788142-.139604.3660543-.1824159.561252-.0265247.1188974-.0344356.2438801-.0460693.3679266-.0088416.0940882-.0283861.1848996-.0283861.2817963 0 1.6603509 1.3378713 3.0061386 2.9889208 3.0061386.5393366 0 1.0386534-.1549411 1.4756138-.4063109.0134951-.0079577.0283862-.0149792.0414159-.0229369.0642178-.0379161.1293663-.0716193.1903267-.1137483l11.0845545-5.5966043c2.3858317.6885751 4.7530495 1.1290573 7.2491683 1.4052363 1.622198.1797505 3.2690594.2705619 4.8945148.2705619 1.6575644 0 3.3756238-.1006415 5.1067129-.2986479 3.4040099-.3889911 6.6781881-1.1782078 9.7862376-2.3007118-.3359802-.1118759-.6659109-.2583912-.9851386-.4423545-1.9014059-1.0939499-2.8860792-3.1751228-2.6906336-5.2347631-2.2210991.7096397-4.5403862 1.2184645-6.9383169 1.4923031-1.4546732.1666436-2.8949208.2509016-4.2788614.2509016-1.3602079 0-2.7385643-.0763003-4.0964455-.2265604-.283396-.0313627-.565396-.0748961-.8478614-.1128122-1.8655743-.2499654-3.7097426-.6324031-5.4910891-1.1576114-.3629703-.1165569-.7473465-.1755375-1.1414951-.1755375-.6142574 0-1.2103663.1633669-1.8148514.4788663-.0781783.0407247-.1558911.0744279-.2345347.1207698l-7.1123564 4.2161773-.0074456.0042129c-.1475148.0865985-.2308119.1188974-.3071287.1188974-.2498911 0-.4527822-.2125174-.4527822-.4737172l.2629208-1.0686725c.0735248-.2817962.1772971-.6787451.3029406-1.1613562.3108515-1.1908466.7357129-2.8198348 1.0512178-4.0289373.068406-.2471568.138208-.5439323.138208-.8772195 0-.9207528-.4378911-1.7909509-1.1675545-2.3255211-.3713465-.2761791-.7422277-.565933-1.1321881-.8851773-.5970396-.4886964-1.1680198-.9979893-1.7175941-1.5222614-1.5440198-1.4731109-2.8995742-3.0810346-4.0382772-4.8036428-2.68132673-4.0546828-4.09830693-8.6556383-4.09830693-13.3062125 0-3.6090515.82040594-7.1188657 2.4379505-10.4311418 1.20850493-2.4743769 2.83628713-4.7783655 4.83867323-6.8483039 5.1848911-5.3588096 12.476406-8.79466405 20.5306238-9.67562837 1.4020891-.15353682 2.7804455-.23124143 4.0973762-.23124143 1.3825446 0 2.8223268.08425801 4.2788614.25090164 8.0169901.91700802 15.2661584 4.37018216 20.4124258 9.72431076 1.9930792 2.0741514 3.6120198 4.383289 4.8121485 6.8637512 1.5914851 3.2912116 2.3988614 6.7724718 2.3988614 10.3473519 0 .3716715-.0232674.7419386-.0414159 1.1126739 2.0796337-1.2802537 4.8279703-1.0288839 6.6279307.7817271.0912079.0912795.1675248.1914529.2503565.2878815.0595643-.7615988.0926039-1.5255381.0926039-2.2913498 0-4.551805-1.0237624-8.9762868-3.042901-13.1503351" fill="#0079de"/></g></svg>