<?xml version="1.0" encoding="UTF-8"?>
<svg width="48px" height="48px" viewBox="0 0 48 48" version="1.1" xmlns="http://www.w3.org/2000/svg" xmlns:xlink="http://www.w3.org/1999/xlink">
    <!-- Generator: Sketch 48.1 (47250) - http://www.bohemiancoding.com/sketch -->
    <title>Workbench/workbench-book</title>
    <desc>Created with Sketch.</desc>
    <defs>
        <linearGradient x1="0%" y1="0%" x2="100%" y2="100%" id="linearGradient-1">
            <stop stop-color="#FFBD39" offset="0%"></stop>
            <stop stop-color="#FFD762" offset="100%"></stop>
        </linearGradient>
    </defs>
    <g id="工作台-72小时预约" stroke="none" stroke-width="1" fill="none" fill-rule="evenodd" transform="translate(-208.000000, -96.000000)">
        <g id="Group-4" transform="translate(192.000000, 80.000000)">
            <g id="Workbench/workbench-book" transform="translate(16.000000, 16.000000)">
                <rect id="Rectangle-11" fill="url(#linearGradient-1)" x="0" y="0" width="48" height="48" rx="3"></rect>
                <g transform="translate(12.000000, 12.000000)" stroke="#FFFFFF">
                    <g>
                        <polyline id="Shape" stroke-width="2" stroke-linecap="round" points="18 16 18 18 20 18"></polyline>
                        <circle id="Oval" stroke-width="2" fill-opacity="0.2" fill="#FFFFFF" stroke-linecap="square" cx="18" cy="18" r="5"></circle>
                        <path d="M9,21 L2,21 C1.44771525,21 1,20.5522847 1,20 L1,9" id="Shape" stroke-width="2" stroke-linecap="round"></path>
                        <path d="M2,3 L20,3 C20.5522847,3 21,3.44771525 21,4 L21,9 L1,9 L1,4 C1,3.44771525 1.44771525,3 2,3 Z" id="Rectangle-path" stroke-width="2" fill-opacity="0.2" fill="#FFFFFF" stroke-linecap="square"></path>
                        <path d="M6,1 L6,5" id="Shape" stroke-width="2" stroke-linecap="round"></path>
                        <path d="M16,1 L16,5" id="Shape" stroke-width="2" stroke-linecap="round"></path>
                    </g>
                </g>
            </g>
        </g>
    </g>
</svg>