<?xml version="1.0" encoding="UTF-8"?>
<svg width="50px" height="50px" viewBox="0 0 50 50" version="1.1" xmlns="http://www.w3.org/2000/svg" xmlns:xlink="http://www.w3.org/1999/xlink">
    <!-- Generator: Sketch 49.3 (51167) - http://www.bohemiancoding.com/sketch -->
    <title>report-state/ignore</title>
    <desc>Created with Sketch.</desc>
    <defs></defs>
    <g id="Symbols" stroke="none" stroke-width="1" fill="none" fill-rule="evenodd">
        <g id="report-state/ignore">
            <g>
                <path d="M0,0 L47,0 C48.6568542,-3.04359188e-16 50,1.34314575 50,3 L50,50 L0,0 Z" id="Rectangle-3" fill="#F2F2F5"></path>
                <path d="M25.284,18.117 L18.464,18.117 L18.464,21.142 C18.464,21.56 18.673,21.769 19.091,21.769 L24.58,21.769 C24.778,21.769 24.965,21.703 25.119,21.571 C25.295,21.406 25.405,20.746 25.471,19.591 L26.494,19.921 C26.362,21.307 26.175,22.132 25.944,22.385 C25.68,22.627 25.328,22.759 24.877,22.781 L18.805,22.781 C17.87,22.781 17.408,22.297 17.408,21.329 L17.408,15.609 L18.464,15.609 L18.464,17.116 L24.217,17.116 L24.217,14.498 L16.957,14.498 L16.957,13.497 L25.284,13.497 L25.284,18.117 Z M31.411,14.74 L30.047,14.74 C29.596,15.224 29.057,15.675 28.419,16.071 L27.77,15.235 C28.892,14.619 29.651,13.86 30.047,12.958 L31.081,13.079 C30.993,13.299 30.883,13.519 30.773,13.728 L36.416,13.728 C36.372,16.214 36.306,17.666 36.229,18.084 C36.152,18.491 35.998,18.766 35.767,18.92 C35.536,19.074 35.019,19.151 34.205,19.151 L33.853,19.151 L33.545,18.139 C33.875,18.15 34.194,18.161 34.502,18.161 C34.832,18.161 35.03,18.095 35.118,17.985 C35.206,17.875 35.261,17.688 35.294,17.413 C35.305,17.127 35.327,16.236 35.36,14.74 L34.711,14.74 C34.051,16.434 32.918,17.875 31.29,19.052 L30.641,18.216 C32.049,17.248 33.061,16.082 33.666,14.74 L32.467,14.74 C31.741,16.236 30.531,17.413 28.826,18.271 L28.166,17.457 C29.673,16.753 30.751,15.851 31.411,14.74 Z M28.606,19.558 L29.64,19.767 C29.354,20.867 28.969,21.802 28.463,22.594 L27.561,22.033 C28.045,21.263 28.397,20.438 28.606,19.558 Z M32.885,18.953 C33.281,19.492 33.633,20.075 33.919,20.691 L32.951,21.12 C32.621,20.427 32.269,19.811 31.884,19.272 L32.885,18.953 Z M36.229,19.437 C36.713,20.207 37.131,21.043 37.494,21.934 L36.526,22.363 C36.13,21.384 35.701,20.515 35.217,19.767 L36.229,19.437 Z M34.139,22.935 L31.301,22.935 C30.531,22.935 30.146,22.506 30.146,21.648 L30.146,19.481 L31.213,19.481 L31.213,21.439 C31.213,21.758 31.345,21.923 31.62,21.923 L33.952,21.923 C34.128,21.923 34.249,21.868 34.337,21.758 C34.436,21.648 34.502,21.296 34.535,20.713 L35.536,21.032 C35.448,21.956 35.294,22.506 35.074,22.682 C34.876,22.847 34.557,22.935 34.139,22.935 Z M47.79,18.887 L47.79,23.056 L46.767,23.056 L46.767,22.638 L44.391,22.638 L44.391,23.056 L43.368,23.056 L43.368,18.898 C43.236,18.942 43.104,18.997 42.994,19.052 L42.598,18.535 L42.598,22.176 L41.707,22.176 L41.707,21.747 L39.694,21.747 L39.694,22.176 L38.759,22.176 L38.759,13.695 L42.598,13.695 L42.598,15.653 C43.258,14.993 43.83,14.113 44.314,13.013 L45.348,13.222 C45.238,13.475 45.128,13.717 45.018,13.948 L47.9,13.948 L47.9,14.751 C47.548,15.587 47.042,16.324 46.382,16.973 C47.031,17.413 47.79,17.798 48.659,18.117 L48.208,19.052 C47.218,18.612 46.371,18.128 45.667,17.589 C45.007,18.084 44.248,18.513 43.39,18.887 L47.79,18.887 Z M42.598,15.939 L42.598,18.139 C43.478,17.787 44.237,17.38 44.875,16.918 C44.49,16.544 44.16,16.148 43.896,15.752 C43.654,16.06 43.412,16.335 43.148,16.588 L42.598,15.939 Z M44.391,21.659 L46.767,21.659 L46.767,19.855 L44.391,19.855 L44.391,21.659 Z M41.707,20.834 L41.707,18.139 L41.113,18.139 L41.113,20.834 L41.707,20.834 Z M41.707,17.226 L41.707,14.641 L41.113,14.641 L41.113,17.226 L41.707,17.226 Z M40.277,14.641 L39.694,14.641 L39.694,17.226 L40.277,17.226 L40.277,14.641 Z M39.694,18.139 L39.694,20.834 L40.277,20.834 L40.277,18.139 L39.694,18.139 Z M45.557,16.346 C46.03,15.906 46.404,15.433 46.69,14.927 L44.468,14.927 C44.446,14.949 44.435,14.982 44.424,15.004 C44.721,15.488 45.095,15.939 45.557,16.346 Z" id="已忽略" fill="#B2B2B2" transform="translate(32.808000, 18.007000) rotate(45.000000) translate(-32.808000, -18.007000) "></path>
            </g>
        </g>
    </g>
</svg>