<svg height="128" viewBox="0 0 128 128" width="128" xmlns="http://www.w3.org/2000/svg" xmlns:xlink="http://www.w3.org/1999/xlink"><linearGradient id="a" x1="17.167705%" x2="3.25037%" y1="90.927734%" y2="10.999349%"><stop offset="0" stop-color="#c8c8ce"/><stop offset="1" stop-color="#e2e2e5"/></linearGradient><linearGradient id="b" x1="15.487928%" x2="77.7274%" y1="-6.482078%" y2="114.501953%"><stop offset="0" stop-color="#3995e9"/><stop offset="1" stop-color="#8acdff"/></linearGradient><linearGradient id="c" x1="0%" x2="100%" y1="0%" y2="100%"><stop offset="0" stop-color="#ffbd39"/><stop offset="1" stop-color="#ffd762"/></linearGradient><g fill="none" fill-rule="evenodd"><g transform="translate(17 23)"><path d="m1 56h60v30h-51c-5.5228475 0-10-4.4771525-10-10v-19c0-.5522847.44771525-1 1-1z" fill="url(#a)"/><path d="m15 0h74v86h-74z" fill="#fff"/><circle cx="83" cy="79" fill="url(#b)" r="12"/><g fill="#fff"><path d="m81.2 79.8-3-1.8-1.2 1.2 4.2 4.8 7.8-7.8-1.2-1.2z" fill-rule="nonzero"/><path d="m15 77.5v8.5h-5c-1.98781814 0-3.84016968-.5800015-5.39705483-1.5800046.89132699.3735955 1.87008619.5800046 2.89705483.5800046 4.1421356 0 7.5-3.3578644 7.5-7.5zm-15-1.5v-2z"/></g></g><g transform="translate(32 33)"><path d="m0 1h3v9h-3z" fill="url(#c)"/><g fill="#eee"><rect height="4" rx="1" width="39" x="8" y="1"/><rect height="11" opacity=".5" rx="5.5" width="11" x="56"/><rect height="2" opacity=".5" rx="1" width="25" x="8" y="8"/></g></g><g transform="translate(47 55)"><path d="m17 18h12c.552285 0 1-.447715 1-1s-.447715-1-1-1h-12c-.552285 0-1 .447715-1 1s.447715 1 1 1zm16.697224-12-1.751924-1.16795c-2.76996-1.846639-6.02455-2.83205-9.353627-2.83205h-1.44545l.695008 4zm3.232132 1.999992c-.001383.000005-.002766.000008-.00415.000008h-15.90829c-.012096.00022-.02416.000218-.036186 0h-9.783301c-1.259029 0-2.444582-.592777-3.2-1.6l-1.819103-2.425471c-.355496.241008-.69864.502818-1.027535.784728l-2.801582 2.401356c-.221646.189982-.349209.467332-.349209.759257v1.08013h1.925148c.552284 0 1 .447715 1 1s-.447716 1-1 1h-1.925148v4c0 .552285.447715 1 1 1h1c.552285 0 1 .447715 1 1s-.447715 1-1 1h-1c-1.656854 0-3-1.343146-3-3v-7.08013c0-.875775.382688-1.707823 1.047626-2.27777l2.801583-2.401357c2.439786-2.091245 5.547175-3.240743 8.760563-3.240743h9.981901c3.723927 0 7.364533 1.102287 10.463027 3.16795l4.189154 2.792769c.102727.068485.217248.117354.33777.144137 4.446244.988172 6.682142 1.485393 6.707694 1.491662 1.607384.401846 2.584666 2.03065 2.18282 3.638034l-1.123263 4.493055c-.333876 1.335501-1.533825 2.272393-2.910428 2.272393h-.438447c-.552285 0-1-.447715-1-1s.447715-1 1-1h.438447c.458868 0 .858851-.312297.970143-.757464l1.060634-4.242536h-1.771854c-.552285 0-1-.447715-1-1 0-.347379.177126-.653387.445989-.832637l-4.995596-1.110133c-.073597-.016355-.146449-.035455-.218407-.057238zm-28.986908-5.006634 1.654981 2.206642c.377709.503612.970485.8 1.6.8h8.613836l-.695008-4h-6.506485c-1.62056 0-3.209458.343372-4.667324.993358z" fill="#eee" fill-rule="nonzero"/><g fill="#dedede"><path d="m35.5 21c-2.485281 0-4.5-2.014719-4.5-4.5s2.014719-4.5 4.5-4.5 4.5 2.014719 4.5 4.5-2.014719 4.5-4.5 4.5zm0-2c1.380712 0 2.5-1.119288 2.5-2.5s-1.119288-2.5-2.5-2.5-2.5 1.119288-2.5 2.5 1.119288 2.5 2.5 2.5z"/><path d="m10.5 21c-2.485281 0-4.5-2.014719-4.5-4.5s2.014719-4.5 4.5-4.5 4.5 2.014719 4.5 4.5-2.014719 4.5-4.5 4.5zm0-2c1.380712 0 2.5-1.119288 2.5-2.5s-1.119288-2.5-2.5-2.5-2.5 1.119288-2.5 2.5 1.119288 2.5 2.5 2.5z"/></g></g><g fill="#eee" transform="translate(41 86)"><rect height="2" rx="1" width="39" x="9" y="2"/><path d="m6.21176471.98823529-.9882353-.98823529-2.82352941 2.82352941-1.41176471-1.4117647-.98823529.98823529 2.4 2.4z" fill-rule="nonzero"/><rect height="2" rx="1" width="22" x="9" y="11"/><path d="m6.21176471 9.98823529-.9882353-.98823529-2.82352941 2.8235294-1.41176471-1.4117647-.98823529.9882353 2.4 2.4z" fill-rule="nonzero"/></g></g></svg>