<?xml version="1.0" encoding="UTF-8"?>
<svg width="50px" height="50px" viewBox="0 0 50 50" version="1.1" xmlns="http://www.w3.org/2000/svg" xmlns:xlink="http://www.w3.org/1999/xlink">
    <!-- Generator: Sketch 49.3 (51167) - http://www.bohemiancoding.com/sketch -->
    <title>report-state/pending-repair</title>
    <desc>Created with Sketch.</desc>
    <defs></defs>
    <g id="Symbols" stroke="none" stroke-width="1" fill="none" fill-rule="evenodd">
        <g id="report-state/pending-repair" fill="#FF4A4A">
            <g>
                <path d="M0,0 L47,0 C48.6568542,-3.04359188e-16 50,1.34314575 50,3 L50,50 L0,0 Z" id="Rectangle-3" fill-opacity="0.1"></path>
                <path d="M18.596,12.903 L19.498,13.321 C18.948,14.531 18.002,15.631 16.682,16.599 L16.385,15.598 C17.375,14.828 18.112,13.926 18.596,12.903 Z M18.992,15.444 L19.883,15.862 C19.63,16.434 19.311,16.973 18.937,17.479 L18.937,23.067 L17.936,23.067 L17.936,18.623 C17.573,18.975 17.188,19.305 16.781,19.624 L16.484,18.634 C17.606,17.721 18.442,16.654 18.992,15.444 Z M22.71,12.958 L23.711,12.958 L23.711,14.069 L26.098,14.069 L26.098,15.026 L23.711,15.026 L23.711,16.159 L26.549,16.159 L26.549,17.127 L19.949,17.127 L19.949,16.159 L22.71,16.159 L22.71,15.026 L20.345,15.026 L20.345,14.069 L22.71,14.069 L22.71,12.958 Z M19.982,18.227 L24.162,18.227 L24.162,17.501 L25.196,17.501 L25.196,18.227 L26.395,18.227 L26.395,19.206 L25.196,19.206 L25.196,21.802 C25.196,22.616 24.8,23.023 24.019,23.023 L22.457,23.023 L22.215,22.022 C22.721,22.066 23.194,22.088 23.645,22.088 C23.986,22.088 24.162,21.901 24.162,21.549 L24.162,19.206 L19.982,19.206 L19.982,18.227 Z M21.412,19.481 C22.017,20.097 22.479,20.625 22.809,21.076 L21.995,21.648 C21.643,21.153 21.181,20.603 20.598,19.998 L21.412,19.481 Z M33.248,12.947 L34.26,13.079 C34.172,13.332 34.062,13.574 33.952,13.794 L36.999,13.794 L36.999,14.685 C36.68,15.345 36.196,15.928 35.536,16.423 C36.119,16.665 36.79,16.863 37.549,17.028 L37.142,18.007 C36.108,17.754 35.228,17.435 34.524,17.05 C33.765,17.446 32.863,17.765 31.829,18.018 L31.433,17.083 C32.247,16.907 32.951,16.687 33.567,16.423 C33.193,16.126 32.896,15.807 32.665,15.466 C32.467,15.642 32.269,15.818 32.049,15.972 L31.455,15.202 C32.335,14.586 32.94,13.838 33.248,12.947 Z M33.325,14.784 C33.611,15.213 34.018,15.587 34.546,15.917 C35.096,15.565 35.536,15.18 35.855,14.74 L33.358,14.74 C33.336,14.751 33.325,14.762 33.325,14.784 Z M29.651,12.947 L30.597,13.387 C30.344,14.201 30.025,14.982 29.629,15.708 L29.629,23.144 L28.628,23.144 L28.628,17.292 C28.32,17.688 28.001,18.073 27.671,18.447 L27.363,17.402 C28.397,16.126 29.167,14.641 29.651,12.947 Z M30.366,14.949 L31.323,14.949 L31.323,21.175 L30.366,21.175 L30.366,14.949 Z M34.788,17.622 L35.536,18.095 C35.118,18.436 34.7,18.722 34.26,18.942 C33.82,19.151 33.204,19.382 32.412,19.646 L31.917,18.821 C32.5,18.7 33.05,18.535 33.578,18.315 C34.007,18.117 34.414,17.886 34.788,17.622 Z M35.855,18.447 L36.537,18.975 C35.646,20.031 34.337,20.801 32.599,21.274 L32.192,20.383 C33.82,19.987 35.041,19.338 35.855,18.447 Z M32.181,23.232 L31.741,22.286 C33.006,21.956 34.018,21.571 34.766,21.142 C35.536,20.702 36.196,20.141 36.768,19.437 L37.505,19.987 C36.999,20.746 36.262,21.406 35.272,21.967 C34.282,22.517 33.248,22.946 32.181,23.232 Z M41.135,14.619 C41.003,14.817 40.871,15.015 40.739,15.202 L47.075,15.202 L47.075,18.832 L42.73,18.832 C42.587,19.041 42.444,19.239 42.29,19.426 L47.119,19.426 L47.119,20.163 C46.624,20.779 45.986,21.307 45.205,21.736 C46.173,21.967 47.24,22.099 48.406,22.143 L48.164,23.1 C46.591,23.023 45.183,22.759 43.94,22.308 C42.642,22.77 41.08,23.056 39.254,23.166 L38.836,22.264 C40.321,22.209 41.608,22.044 42.686,21.769 C42.059,21.439 41.476,21.065 40.948,20.636 C40.508,20.933 40.024,21.208 39.507,21.45 L38.968,20.559 C40.134,20.097 40.992,19.525 41.564,18.832 L40.277,18.832 L40.277,15.752 C39.947,16.104 39.584,16.423 39.199,16.72 L38.572,15.895 C39.672,15.07 40.42,14.058 40.816,12.87 L41.839,13.057 C41.762,13.288 41.685,13.508 41.597,13.728 L47.889,13.728 L47.889,14.619 L41.135,14.619 Z M43.951,21.362 C44.699,21.065 45.315,20.702 45.81,20.262 L41.806,20.262 C42.444,20.702 43.159,21.076 43.951,21.362 Z M46.063,18.018 L46.063,17.391 L41.3,17.391 L41.3,18.018 L46.063,18.018 Z M41.3,16.621 L46.063,16.621 L46.063,16.005 L41.3,16.005 L41.3,16.621 Z" id="待修复" transform="translate(32.395500, 18.051000) rotate(45.000000) translate(-32.395500, -18.051000) "></path>
            </g>
        </g>
    </g>
</svg>