<?xml version="1.0" encoding="UTF-8"?>
<svg width="50px" height="50px" viewBox="0 0 50 50" version="1.1" xmlns="http://www.w3.org/2000/svg" xmlns:xlink="http://www.w3.org/1999/xlink">
    <!-- Generator: Sketch 49.3 (51167) - http://www.bohemiancoding.com/sketch -->
    <title>report-state/repaired</title>
    <desc>Created with Sketch.</desc>
    <defs>
        <path d="M0,0 L47,0 C48.6568542,-3.04359188e-16 50,1.34314575 50,3 L50,50 L0,0 Z" id="path-1"></path>
        <filter x="-0.5%" y="-0.5%" width="101.0%" height="101.0%" filterUnits="objectBoundingBox" id="filter-2">
            <feMorphology radius="0.5" operator="erode" in="SourceAlpha" result="shadowSpreadInner1"></feMorphology>
            <feOffset dx="0" dy="0" in="shadowSpreadInner1" result="shadowOffsetInner1"></feOffset>
            <feComposite in="shadowOffsetInner1" in2="SourceAlpha" operator="arithmetic" k2="-1" k3="1" result="shadowInnerInner1"></feComposite>
            <feColorMatrix values="0 0 0 0 0   0 0 0 0 0   0 0 0 0 0  0 0 0 0.05 0" type="matrix" in="shadowInnerInner1"></feColorMatrix>
        </filter>
    </defs>
    <g id="Symbols" stroke="none" stroke-width="1" fill="none" fill-rule="evenodd">
        <g id="report-state/repaired">
            <g>
                <g id="Rectangle-3" opacity="0.099999994">
                    <use fill="#09BB07" fill-rule="evenodd" xlink:href="#path-1"></use>
                    <use fill="black" fill-opacity="1" filter="url(#filter-2)" xlink:href="#path-1"></use>
                </g>
                <path d="M25.284,18.117 L18.464,18.117 L18.464,21.142 C18.464,21.56 18.673,21.769 19.091,21.769 L24.58,21.769 C24.778,21.769 24.965,21.703 25.119,21.571 C25.295,21.406 25.405,20.746 25.471,19.591 L26.494,19.921 C26.362,21.307 26.175,22.132 25.944,22.385 C25.68,22.627 25.328,22.759 24.877,22.781 L18.805,22.781 C17.87,22.781 17.408,22.297 17.408,21.329 L17.408,15.609 L18.464,15.609 L18.464,17.116 L24.217,17.116 L24.217,14.498 L16.957,14.498 L16.957,13.497 L25.284,13.497 L25.284,18.117 Z M33.248,12.947 L34.26,13.079 C34.172,13.332 34.062,13.574 33.952,13.794 L36.999,13.794 L36.999,14.685 C36.68,15.345 36.196,15.928 35.536,16.423 C36.119,16.665 36.79,16.863 37.549,17.028 L37.142,18.007 C36.108,17.754 35.228,17.435 34.524,17.05 C33.765,17.446 32.863,17.765 31.829,18.018 L31.433,17.083 C32.247,16.907 32.951,16.687 33.567,16.423 C33.193,16.126 32.896,15.807 32.665,15.466 C32.467,15.642 32.269,15.818 32.049,15.972 L31.455,15.202 C32.335,14.586 32.94,13.838 33.248,12.947 Z M33.325,14.784 C33.611,15.213 34.018,15.587 34.546,15.917 C35.096,15.565 35.536,15.18 35.855,14.74 L33.358,14.74 C33.336,14.751 33.325,14.762 33.325,14.784 Z M29.651,12.947 L30.597,13.387 C30.344,14.201 30.025,14.982 29.629,15.708 L29.629,23.144 L28.628,23.144 L28.628,17.292 C28.32,17.688 28.001,18.073 27.671,18.447 L27.363,17.402 C28.397,16.126 29.167,14.641 29.651,12.947 Z M30.366,14.949 L31.323,14.949 L31.323,21.175 L30.366,21.175 L30.366,14.949 Z M34.788,17.622 L35.536,18.095 C35.118,18.436 34.7,18.722 34.26,18.942 C33.82,19.151 33.204,19.382 32.412,19.646 L31.917,18.821 C32.5,18.7 33.05,18.535 33.578,18.315 C34.007,18.117 34.414,17.886 34.788,17.622 Z M35.855,18.447 L36.537,18.975 C35.646,20.031 34.337,20.801 32.599,21.274 L32.192,20.383 C33.82,19.987 35.041,19.338 35.855,18.447 Z M32.181,23.232 L31.741,22.286 C33.006,21.956 34.018,21.571 34.766,21.142 C35.536,20.702 36.196,20.141 36.768,19.437 L37.505,19.987 C36.999,20.746 36.262,21.406 35.272,21.967 C34.282,22.517 33.248,22.946 32.181,23.232 Z M41.135,14.619 C41.003,14.817 40.871,15.015 40.739,15.202 L47.075,15.202 L47.075,18.832 L42.73,18.832 C42.587,19.041 42.444,19.239 42.29,19.426 L47.119,19.426 L47.119,20.163 C46.624,20.779 45.986,21.307 45.205,21.736 C46.173,21.967 47.24,22.099 48.406,22.143 L48.164,23.1 C46.591,23.023 45.183,22.759 43.94,22.308 C42.642,22.77 41.08,23.056 39.254,23.166 L38.836,22.264 C40.321,22.209 41.608,22.044 42.686,21.769 C42.059,21.439 41.476,21.065 40.948,20.636 C40.508,20.933 40.024,21.208 39.507,21.45 L38.968,20.559 C40.134,20.097 40.992,19.525 41.564,18.832 L40.277,18.832 L40.277,15.752 C39.947,16.104 39.584,16.423 39.199,16.72 L38.572,15.895 C39.672,15.07 40.42,14.058 40.816,12.87 L41.839,13.057 C41.762,13.288 41.685,13.508 41.597,13.728 L47.889,13.728 L47.889,14.619 L41.135,14.619 Z M43.951,21.362 C44.699,21.065 45.315,20.702 45.81,20.262 L41.806,20.262 C42.444,20.702 43.159,21.076 43.951,21.362 Z M46.063,18.018 L46.063,17.391 L41.3,17.391 L41.3,18.018 L46.063,18.018 Z M41.3,16.621 L46.063,16.621 L46.063,16.005 L41.3,16.005 L41.3,16.621 Z" id="已修复" fill="#2DB42C" transform="translate(32.681500, 18.051000) rotate(45.000000) translate(-32.681500, -18.051000) "></path>
            </g>
        </g>
    </g>
</svg>