<?xml version="1.0" encoding="UTF-8"?>
<svg width="32px" height="32px" viewBox="0 0 32 32" version="1.1" xmlns="http://www.w3.org/2000/svg" xmlns:xlink="http://www.w3.org/1999/xlink">
    <!-- Generator: Sketch 49 (51002) - http://www.bohemiancoding.com/sketch -->
    <title>wechat-ent</title>
    <desc>Created with Sketch.</desc>
    <defs></defs>
    <g id="Settings" stroke="none" stroke-width="1" fill="none" fill-rule="evenodd">
        <g id="设置-微信授权-列表" transform="translate(-476.000000, -430.000000)" fill="#FFFFFF" fill-rule="nonzero">
            <g id="Group-3" transform="translate(436.000000, 253.000000)">
                <g id="row" transform="translate(24.000000, 161.000000)">
                    <g id="wechat-ent">
                        <g transform="translate(16.000000, 16.000000)" id="Shape">
                            <path d="M16.290436,12.7322189 L16.290436,12.7396923 C16.2451838,12.7361465 16.1998484,12.7337575 16.1544741,12.7325274 C16.1089478,12.7338987 16.0635586,12.7360242 16.0185122,12.7396923 L16.0185122,12.7322189 C15.5357549,12.7438747 15.0382563,12.8994459 14.604282,13.3241983 C13.7822712,14.1290238 12.9607516,14.9343509 12.1397238,15.7401791 C12.9607432,16.546016 13.7822628,17.3513431 14.604282,18.15616 C15.0383249,18.5809467 15.5358577,18.7364836 16.0185122,18.7482079 L16.0185122,18.7407688 C16.0635586,18.744437 16.1089478,18.7465624 16.1544741,18.7479337 C16.1998484,18.7467037 16.2451838,18.7443146 16.290436,18.7407688 L16.290436,18.7482079 C16.7730905,18.7364835 17.2706234,18.5809467 17.7046662,18.15616 C18.5266771,17.3513345 19.3481967,16.5460074 20.1692245,15.7401791 C19.3482051,14.9343423 18.5266855,14.1290152 17.7046662,13.3241983 C17.270692,12.8994802 16.7731934,12.7438747 16.290436,12.7322189 Z"></path>
                            <path d="M16.0089819,2.03150881 C7.73001196,2.03150881 1.0185465,8.08853328 1.0185465,15.5602679 C1.0185465,18.3270551 1.93884344,20.8998413 3.51820937,23.0429384 C3.57107202,23.1146903 3.62599157,23.185071 3.68032837,23.2558631 C3.90758292,23.6950139 4.12445004,24.3177099 3.97583815,24.9307041 C3.70391433,26.0524413 3.12602477,28.0409614 3.12602473,28.0409614 C3.1260247,28.0409614 2.83497163,28.6018129 3.57535727,28.4318777 C4.3157429,28.2619424 7.40899646,27.3611176 7.40899646,27.3611176 C7.40899646,27.3611175 7.8989873,27.2062321 8.74139584,27.3945081 C10.894229,28.473633 13.3717801,29.0890269 16.0089476,29.0890269 C24.2879175,29.0890269 30.9993829,23.0320024 30.9993829,15.5602679 C30.9993829,8.08853328 24.2879517,2.03150881 16.0089819,2.03150881 Z M27.304311,21.0639829 C27.2884385,21.0642571 27.2724289,21.0644628 27.256625,21.0644628 C25.6467139,21.0645314 24.0630627,19.5687446 23.7498292,19.2561968 C23.6866476,19.1941123 22.8783153,18.3998013 21.8190054,17.3596892 C20.9869769,18.1763549 20.15443,18.9924922 19.3213652,19.8081007 C18.4765569,20.6349795 17.4154986,21.0619603 16.249812,21.0620288 C16.2182384,21.0620288 16.1862191,21.0602119 16.1544398,21.0594577 C16.1226605,21.0602119 16.0906412,21.0620288 16.0590677,21.0620288 C14.8933811,21.0619602 13.8323228,20.6350138 12.9875145,19.8081007 C12.1544837,18.9924574 11.3219368,18.1763201 10.4898743,17.3596892 C9.43059863,18.3998356 8.62223202,19.1941466 8.55905051,19.2561968 C8.24581703,19.5687789 6.66213153,21.0645314 5.05225472,21.0644628 C5.03645078,21.0644628 5.02044113,21.0642571 5.0046029,21.0639829 C4.36637724,21.0521556 3.85862838,20.5252775 3.87045565,19.8870861 C3.88214577,19.2561625 4.39719665,18.7527332 5.02558342,18.7527332 C5.03274833,18.7527332 5.04011892,18.7528017 5.0473524,18.7529388 C5.05012924,18.7530074 5.0528718,18.7530074 5.05571718,18.7530074 C5.48520049,18.7530074 6.38492831,18.1568113 6.92812462,17.6182774 L6.93528953,17.611181 C6.95301327,17.5937315 7.76316253,16.7976378 8.84005904,15.7401791 C8.2050143,15.1166471 7.57009111,14.4929912 6.93528953,13.8692116 L6.92812462,13.8621152 C6.46178828,13.3958131 5.53106965,12.7273508 5.05650568,12.7273508 L5.0473524,12.7274537 C5.04005035,12.7275908 5.0328169,12.7276594 5.02558342,12.7276594 C4.39726522,12.7276251 3.88214577,12.2241958 3.87045565,11.5933407 C3.85862842,10.9551494 4.36637724,10.4282369 5.0046029,10.4164097 C6.62884385,10.3880929 8.24273165,11.9085283 8.5590848,12.2242301 C8.6224377,12.2864859 9.43073574,13.0807284 10.4898743,14.1207376 C11.3219196,13.3040892 12.1544666,12.4879518 12.9875145,11.6723261 C13.8552231,10.823027 14.951386,10.397349 16.1544398,10.4211406 C17.3574937,10.3973147 18.4536566,10.823027 19.3213652,11.6723261 C20.1544046,12.4879606 20.9869515,13.3040979 21.8190054,14.1207376 C22.8781439,13.0807284 23.686442,12.2864859 23.7497949,12.2242301 C24.066148,11.9085283 25.6800358,10.3880928 27.3042768,10.4164097 C27.9425024,10.4282369 28.4502513,10.9551836 28.4384241,11.5933407 C28.4267339,12.2241958 27.9116145,12.7276251 27.2832963,12.7276594 C27.2760628,12.7276594 27.2688293,12.7275908 27.2615273,12.7274537 C27.2584767,12.7273851 27.2554254,12.7273509 27.252374,12.7273508 C26.77781,12.7273508 25.8470914,13.3958474 25.3807551,13.8621152 L25.3735902,13.8692116 C25.3558664,13.886661 24.5457172,14.6827547 23.4688206,15.7401791 C24.5457172,16.7976378 25.3558664,17.5936973 25.3735902,17.611181 L25.3807551,17.6182774 C25.9239514,18.1568456 26.8236792,18.7530074 27.2531625,18.7530074 C27.2560079,18.7530074 27.2587504,18.7530074 27.2615273,18.7529388 C27.2687607,18.7528017 27.2761313,18.7527332 27.2832963,18.7527332 C27.911683,18.7527332 28.4267339,19.2561625 28.4384241,19.8870861 C28.4502856,20.5253118 27.9425025,21.0521899 27.304311,21.0639829 Z"></path>
                        </g>
                    </g>
                </g>
            </g>
        </g>
    </g>
</svg>