<?xml version="1.0" encoding="UTF-8"?>
<svg width="32px" height="32px" viewBox="0 0 32 32" version="1.1" xmlns="http://www.w3.org/2000/svg" xmlns:xlink="http://www.w3.org/1999/xlink">
    <!-- Generator: Sketch 49 (51002) - http://www.bohemiancoding.com/sketch -->
    <title>wechat-mini</title>
    <desc>Created with Sketch.</desc>
    <defs></defs>
    <g id="Settings" stroke="none" stroke-width="1" fill="none" fill-rule="evenodd">
        <g id="设置-微信授权-列表" transform="translate(-476.000000, -551.000000)" fill="#FFFFFF" fill-rule="nonzero">
            <g id="Group-3" transform="translate(436.000000, 253.000000)">
                <g id="row" transform="translate(24.000000, 282.000000)">
                    <g id="wechat-mini">
                        <g transform="translate(16.000000, 16.000000)" id="Combined-Shape">
                            <path d="M22.535399,2 C27.2039121,2 31,5.80128094 31,10.469794 C31,15.1383071 27.2039121,18.934395 22.535399,18.934395 C21.4708326,18.934395 20.6036005,18.0671629 20.6036005,17.0025965 C20.6036005,15.9380301 21.4708326,15.070798 22.535399,15.070798 C25.0747793,15.070798 27.141596,13.0039813 27.141596,10.464601 C27.141596,7.9252207 25.0747793,5.85840401 22.535399,5.85840401 C19.9960187,5.85840401 17.929202,7.9252207 17.929202,10.464601 L17.929202,22.7564479 L17.903237,22.7564479 C17.7526398,24.7921066 16.8750216,26.6875541 15.4054007,28.141596 C13.8111477,29.715077 11.7027869,30.5823091 9.46460103,30.5823091 C4.79608794,30.5823091 0.99999997,26.7862212 1,22.1177081 C1.00000003,17.4491951 4.79608797,13.6531071 9.46460103,13.6531071 C10.5291674,13.6531071 11.3963995,14.5203393 11.3963995,15.5849056 C11.3963995,16.649472 10.5291674,17.5167042 9.46460103,17.5167042 C6.92522073,17.5167042 4.85840404,19.5835208 4.85840404,22.1229011 C4.85840404,24.6622814 6.92522073,26.7290981 9.46460103,26.7290981 C12.0039813,26.7290981 14.070798,24.6622814 14.070798,22.1229011 L14.070798,9.8570192 L14.09157,9.8570192 C14.2369742,7.81616756 15.1093994,5.91033407 16.5842133,4.45109918 C18.1784663,2.87242515 20.2920201,2 22.535399,2 Z"></path>
                        </g>
                    </g>
                </g>
            </g>
        </g>
    </g>
</svg>